G04 EAGLE Gerber RS-274X export*
G75*
%MOMM*%
%FSLAX34Y34*%
%LPD*%
%INTop Copper*%
%IPPOS*%
%AMOC8*
5,1,8,0,0,1.08239X$1,22.5*%
G01*
%ADD10C,1.120000*%
%ADD11C,1.422400*%
%ADD12C,1.960000*%
%ADD13R,1.524000X1.524000*%
%ADD14P,1.649562X8X292.500000*%
%ADD15R,1.676400X1.676400*%
%ADD16C,1.676400*%
%ADD17C,4.016000*%
%ADD18C,1.137919*%
%ADD19C,1.016000*%
%ADD20C,4.445000*%
%ADD21C,0.654800*%
%ADD22C,0.254000*%


D10*
X127000Y56400D03*
X127000Y121400D03*
D11*
X614680Y709168D02*
X614680Y723392D01*
X589280Y723392D02*
X589280Y709168D01*
X563880Y709168D02*
X563880Y723392D01*
D12*
X293100Y63900D03*
X293100Y113900D03*
X418100Y113900D03*
X418100Y63900D03*
X483600Y63900D03*
X483600Y113900D03*
X608600Y113900D03*
X608600Y63900D03*
X674100Y63900D03*
X674100Y113900D03*
X799100Y113900D03*
X799100Y63900D03*
D13*
X485400Y741000D03*
D14*
X460000Y741000D03*
X485400Y715600D03*
X460000Y715600D03*
X485400Y690200D03*
X460000Y690200D03*
X485400Y664800D03*
X460000Y664800D03*
X485400Y639400D03*
X460000Y639400D03*
X485400Y614000D03*
X460000Y614000D03*
X485400Y588600D03*
X460000Y588600D03*
X485400Y563200D03*
X460000Y563200D03*
X485400Y537800D03*
X460000Y537800D03*
X485400Y512400D03*
X460000Y512400D03*
X485400Y487000D03*
X460000Y487000D03*
X485400Y461600D03*
X460000Y461600D03*
X485400Y436200D03*
X460000Y436200D03*
X485400Y410800D03*
X460000Y410800D03*
X485400Y385400D03*
X460000Y385400D03*
X485400Y360000D03*
X460000Y360000D03*
X485400Y334600D03*
X460000Y334600D03*
X485400Y309200D03*
X460000Y309200D03*
D13*
X231400Y741000D03*
D14*
X206000Y741000D03*
X231400Y715600D03*
X206000Y715600D03*
X231400Y690200D03*
X206000Y690200D03*
X231400Y664800D03*
X206000Y664800D03*
X231400Y639400D03*
X206000Y639400D03*
X231400Y614000D03*
X206000Y614000D03*
X231400Y588600D03*
X206000Y588600D03*
X231400Y563200D03*
X206000Y563200D03*
X231400Y537800D03*
X206000Y537800D03*
X231400Y512400D03*
X206000Y512400D03*
X231400Y487000D03*
X206000Y487000D03*
X231400Y461600D03*
X206000Y461600D03*
X231400Y436200D03*
X206000Y436200D03*
X231400Y410800D03*
X206000Y410800D03*
X231400Y385400D03*
X206000Y385400D03*
X231400Y360000D03*
X206000Y360000D03*
X231400Y334600D03*
X206000Y334600D03*
X231400Y309200D03*
X206000Y309200D03*
D15*
X828040Y711200D03*
D16*
X828040Y685800D03*
X828040Y660400D03*
X828040Y635000D03*
X828040Y609600D03*
X828040Y584200D03*
X828040Y558800D03*
X828040Y533400D03*
X828040Y508000D03*
X828040Y482600D03*
X828040Y457200D03*
X828040Y431800D03*
X828040Y406400D03*
X828040Y381000D03*
X828040Y355600D03*
X828040Y330200D03*
X828040Y304800D03*
X828040Y279400D03*
X828040Y254000D03*
X828040Y228600D03*
D15*
X58040Y711200D03*
D16*
X58040Y685800D03*
X58040Y660400D03*
X58040Y635000D03*
X58040Y609600D03*
X58040Y584200D03*
X58040Y558800D03*
X58040Y533400D03*
X58040Y508000D03*
X58040Y482600D03*
X58040Y457200D03*
X58040Y431800D03*
X58040Y406400D03*
X58040Y381000D03*
X58040Y355600D03*
X58040Y330200D03*
X58040Y304800D03*
X58040Y279400D03*
X58040Y254000D03*
X58040Y228600D03*
D17*
X829740Y759900D03*
X829740Y179900D03*
X59740Y759900D03*
X59740Y179900D03*
D18*
X685190Y500380D02*
X696570Y500380D01*
X696570Y474980D02*
X685190Y474980D01*
X620370Y474980D02*
X608990Y474980D01*
X608990Y500380D02*
X620370Y500380D01*
X685190Y449580D02*
X696570Y449580D01*
X696570Y424180D02*
X685190Y424180D01*
X620370Y449580D02*
X608990Y449580D01*
X608990Y424180D02*
X620370Y424180D01*
D19*
X66040Y802640D03*
X822960Y802640D03*
X68580Y22860D03*
D20*
X25400Y800100D03*
X863600Y800100D03*
X25400Y25400D03*
X863600Y25400D03*
D21*
X444500Y114300D03*
X635000Y114300D03*
X825500Y114300D03*
X563880Y487680D03*
X563880Y386080D03*
D22*
X219380Y728980D02*
X231400Y741000D01*
X219380Y728980D02*
X195580Y728980D01*
X127000Y660400D01*
X127000Y121400D01*
X614680Y576580D02*
X614680Y716280D01*
X614680Y576580D02*
X508000Y469900D01*
X508000Y337820D02*
X492760Y322580D01*
X473380Y322580D02*
X460000Y309200D01*
X508000Y337820D02*
X508000Y469900D01*
X492760Y322580D02*
X473380Y322580D01*
M02*
