G04 EAGLE Gerber RS-274X export*
G75*
%MOMM*%
%FSLAX34Y34*%
%LPD*%
%INSilkscreen Top*%
%IPPOS*%
%AMOC8*
5,1,8,0,0,1.08239X$1,22.5*%
G01*
%ADD10C,0.152400*%
%ADD11C,0.127000*%
%ADD12C,0.101600*%
%ADD13C,0.254000*%


D10*
X122287Y788162D02*
X115062Y788162D01*
X115062Y804418D01*
X122287Y804418D01*
X120481Y797193D02*
X115062Y797193D01*
X128579Y804418D02*
X128579Y788162D01*
X137610Y788162D02*
X128579Y804418D01*
X137610Y804418D02*
X137610Y788162D01*
X151574Y797193D02*
X154284Y797193D01*
X154284Y788162D01*
X148865Y788162D01*
X148747Y788164D01*
X148629Y788170D01*
X148511Y788179D01*
X148394Y788193D01*
X148277Y788210D01*
X148160Y788231D01*
X148045Y788256D01*
X147930Y788285D01*
X147816Y788318D01*
X147704Y788354D01*
X147593Y788394D01*
X147483Y788437D01*
X147374Y788484D01*
X147267Y788534D01*
X147162Y788589D01*
X147059Y788646D01*
X146958Y788707D01*
X146858Y788771D01*
X146761Y788838D01*
X146666Y788908D01*
X146574Y788982D01*
X146483Y789058D01*
X146396Y789138D01*
X146311Y789220D01*
X146229Y789305D01*
X146149Y789392D01*
X146073Y789483D01*
X145999Y789575D01*
X145929Y789670D01*
X145862Y789767D01*
X145798Y789867D01*
X145737Y789968D01*
X145680Y790071D01*
X145625Y790176D01*
X145575Y790283D01*
X145528Y790392D01*
X145485Y790502D01*
X145445Y790613D01*
X145409Y790725D01*
X145376Y790839D01*
X145347Y790954D01*
X145322Y791069D01*
X145301Y791186D01*
X145284Y791303D01*
X145270Y791420D01*
X145261Y791538D01*
X145255Y791656D01*
X145253Y791774D01*
X145253Y800806D01*
X145255Y800924D01*
X145261Y801042D01*
X145270Y801160D01*
X145284Y801277D01*
X145301Y801394D01*
X145322Y801511D01*
X145347Y801626D01*
X145376Y801741D01*
X145409Y801855D01*
X145445Y801967D01*
X145485Y802078D01*
X145528Y802188D01*
X145575Y802297D01*
X145625Y802404D01*
X145679Y802509D01*
X145737Y802612D01*
X145798Y802713D01*
X145862Y802813D01*
X145929Y802910D01*
X145999Y803005D01*
X146073Y803097D01*
X146149Y803188D01*
X146229Y803275D01*
X146311Y803360D01*
X146396Y803442D01*
X146483Y803522D01*
X146574Y803598D01*
X146666Y803672D01*
X146761Y803742D01*
X146858Y803809D01*
X146958Y803873D01*
X147059Y803934D01*
X147162Y803991D01*
X147267Y804045D01*
X147374Y804096D01*
X147483Y804143D01*
X147593Y804186D01*
X147704Y804226D01*
X147816Y804262D01*
X147930Y804295D01*
X148045Y804324D01*
X148160Y804349D01*
X148277Y804370D01*
X148394Y804387D01*
X148511Y804401D01*
X148629Y804410D01*
X148747Y804416D01*
X148865Y804418D01*
X154284Y804418D01*
X162794Y804418D02*
X162794Y788162D01*
X160988Y788162D02*
X164600Y788162D01*
X164600Y804418D02*
X160988Y804418D01*
X179120Y788162D02*
X183636Y788162D01*
X183769Y788164D01*
X183901Y788170D01*
X184033Y788180D01*
X184165Y788193D01*
X184297Y788211D01*
X184427Y788232D01*
X184558Y788257D01*
X184687Y788286D01*
X184815Y788319D01*
X184943Y788355D01*
X185069Y788395D01*
X185194Y788439D01*
X185318Y788487D01*
X185440Y788538D01*
X185561Y788593D01*
X185680Y788651D01*
X185798Y788713D01*
X185913Y788778D01*
X186027Y788847D01*
X186138Y788918D01*
X186247Y788994D01*
X186354Y789072D01*
X186459Y789153D01*
X186561Y789238D01*
X186661Y789325D01*
X186758Y789415D01*
X186853Y789508D01*
X186944Y789604D01*
X187033Y789702D01*
X187119Y789803D01*
X187202Y789907D01*
X187282Y790013D01*
X187358Y790121D01*
X187432Y790231D01*
X187502Y790344D01*
X187569Y790458D01*
X187632Y790575D01*
X187692Y790693D01*
X187749Y790813D01*
X187802Y790935D01*
X187851Y791058D01*
X187897Y791182D01*
X187939Y791308D01*
X187977Y791435D01*
X188012Y791563D01*
X188043Y791692D01*
X188070Y791821D01*
X188093Y791952D01*
X188113Y792083D01*
X188128Y792215D01*
X188140Y792347D01*
X188148Y792479D01*
X188152Y792612D01*
X188152Y792744D01*
X188148Y792877D01*
X188140Y793009D01*
X188128Y793141D01*
X188113Y793273D01*
X188093Y793404D01*
X188070Y793535D01*
X188043Y793664D01*
X188012Y793793D01*
X187977Y793921D01*
X187939Y794048D01*
X187897Y794174D01*
X187851Y794298D01*
X187802Y794421D01*
X187749Y794543D01*
X187692Y794663D01*
X187632Y794781D01*
X187569Y794898D01*
X187502Y795012D01*
X187432Y795125D01*
X187358Y795235D01*
X187282Y795343D01*
X187202Y795449D01*
X187119Y795553D01*
X187033Y795654D01*
X186944Y795752D01*
X186853Y795848D01*
X186758Y795941D01*
X186661Y796031D01*
X186561Y796118D01*
X186459Y796203D01*
X186354Y796284D01*
X186247Y796362D01*
X186138Y796438D01*
X186027Y796509D01*
X185913Y796578D01*
X185798Y796643D01*
X185680Y796705D01*
X185561Y796763D01*
X185440Y796818D01*
X185318Y796869D01*
X185194Y796917D01*
X185069Y796961D01*
X184943Y797001D01*
X184815Y797037D01*
X184687Y797070D01*
X184558Y797099D01*
X184427Y797124D01*
X184297Y797145D01*
X184165Y797163D01*
X184033Y797176D01*
X183901Y797186D01*
X183769Y797192D01*
X183636Y797194D01*
X184539Y804418D02*
X179120Y804418D01*
X184539Y804418D02*
X184658Y804416D01*
X184778Y804410D01*
X184897Y804400D01*
X185015Y804386D01*
X185134Y804369D01*
X185251Y804347D01*
X185368Y804322D01*
X185483Y804292D01*
X185598Y804259D01*
X185712Y804222D01*
X185824Y804182D01*
X185935Y804137D01*
X186044Y804089D01*
X186152Y804038D01*
X186258Y803983D01*
X186362Y803924D01*
X186464Y803862D01*
X186564Y803797D01*
X186662Y803728D01*
X186758Y803656D01*
X186851Y803581D01*
X186941Y803504D01*
X187029Y803423D01*
X187114Y803339D01*
X187196Y803252D01*
X187276Y803163D01*
X187352Y803071D01*
X187426Y802977D01*
X187496Y802880D01*
X187563Y802782D01*
X187627Y802681D01*
X187687Y802577D01*
X187744Y802472D01*
X187797Y802365D01*
X187847Y802257D01*
X187893Y802147D01*
X187935Y802035D01*
X187974Y801922D01*
X188009Y801808D01*
X188040Y801693D01*
X188068Y801576D01*
X188091Y801459D01*
X188111Y801342D01*
X188127Y801223D01*
X188139Y801104D01*
X188147Y800985D01*
X188151Y800866D01*
X188151Y800746D01*
X188147Y800627D01*
X188139Y800508D01*
X188127Y800389D01*
X188111Y800270D01*
X188091Y800153D01*
X188068Y800036D01*
X188040Y799919D01*
X188009Y799804D01*
X187974Y799690D01*
X187935Y799577D01*
X187893Y799465D01*
X187847Y799355D01*
X187797Y799247D01*
X187744Y799140D01*
X187687Y799035D01*
X187627Y798931D01*
X187563Y798830D01*
X187496Y798732D01*
X187426Y798635D01*
X187352Y798541D01*
X187276Y798449D01*
X187196Y798360D01*
X187114Y798273D01*
X187029Y798189D01*
X186941Y798108D01*
X186851Y798031D01*
X186758Y797956D01*
X186662Y797884D01*
X186564Y797815D01*
X186464Y797750D01*
X186362Y797688D01*
X186258Y797629D01*
X186152Y797574D01*
X186044Y797523D01*
X185935Y797475D01*
X185824Y797430D01*
X185712Y797390D01*
X185598Y797353D01*
X185483Y797320D01*
X185368Y797290D01*
X185251Y797265D01*
X185134Y797243D01*
X185015Y797226D01*
X184897Y797212D01*
X184778Y797202D01*
X184658Y797196D01*
X184539Y797194D01*
X184539Y797193D02*
X180926Y797193D01*
X194752Y796290D02*
X194756Y796610D01*
X194767Y796929D01*
X194786Y797249D01*
X194813Y797567D01*
X194847Y797885D01*
X194889Y798202D01*
X194939Y798518D01*
X194996Y798833D01*
X195060Y799146D01*
X195132Y799458D01*
X195211Y799768D01*
X195298Y800075D01*
X195392Y800381D01*
X195493Y800684D01*
X195602Y800985D01*
X195717Y801283D01*
X195840Y801579D01*
X195970Y801871D01*
X196107Y802160D01*
X196106Y802161D02*
X196145Y802269D01*
X196188Y802376D01*
X196234Y802481D01*
X196285Y802585D01*
X196338Y802687D01*
X196395Y802787D01*
X196456Y802885D01*
X196520Y802980D01*
X196587Y803074D01*
X196658Y803165D01*
X196731Y803254D01*
X196808Y803340D01*
X196887Y803423D01*
X196969Y803504D01*
X197054Y803582D01*
X197142Y803656D01*
X197232Y803728D01*
X197324Y803796D01*
X197419Y803862D01*
X197516Y803924D01*
X197615Y803982D01*
X197717Y804038D01*
X197819Y804089D01*
X197924Y804137D01*
X198030Y804182D01*
X198138Y804223D01*
X198247Y804260D01*
X198357Y804293D01*
X198469Y804322D01*
X198581Y804348D01*
X198694Y804370D01*
X198808Y804387D01*
X198922Y804401D01*
X199037Y804411D01*
X199152Y804417D01*
X199267Y804419D01*
X199267Y804418D02*
X199382Y804416D01*
X199497Y804410D01*
X199612Y804400D01*
X199726Y804386D01*
X199840Y804369D01*
X199953Y804347D01*
X200065Y804321D01*
X200177Y804292D01*
X200287Y804259D01*
X200396Y804222D01*
X200504Y804181D01*
X200610Y804136D01*
X200715Y804088D01*
X200817Y804037D01*
X200918Y803981D01*
X201018Y803923D01*
X201115Y803861D01*
X201209Y803796D01*
X201302Y803727D01*
X201392Y803655D01*
X201480Y803581D01*
X201565Y803503D01*
X201647Y803422D01*
X201726Y803339D01*
X201803Y803253D01*
X201876Y803164D01*
X201947Y803073D01*
X202014Y802979D01*
X202078Y802884D01*
X202139Y802786D01*
X202196Y802686D01*
X202249Y802584D01*
X202300Y802480D01*
X202346Y802375D01*
X202389Y802268D01*
X202428Y802160D01*
X202427Y802160D02*
X202564Y801871D01*
X202694Y801579D01*
X202817Y801283D01*
X202932Y800985D01*
X203041Y800684D01*
X203142Y800381D01*
X203236Y800075D01*
X203323Y799768D01*
X203402Y799458D01*
X203474Y799146D01*
X203538Y798833D01*
X203595Y798518D01*
X203645Y798202D01*
X203687Y797885D01*
X203721Y797567D01*
X203748Y797249D01*
X203767Y796929D01*
X203778Y796610D01*
X203782Y796290D01*
X194752Y796290D02*
X194756Y795970D01*
X194767Y795651D01*
X194786Y795331D01*
X194813Y795013D01*
X194847Y794695D01*
X194889Y794378D01*
X194939Y794062D01*
X194996Y793747D01*
X195060Y793434D01*
X195132Y793122D01*
X195211Y792812D01*
X195298Y792505D01*
X195392Y792199D01*
X195493Y791896D01*
X195602Y791595D01*
X195717Y791297D01*
X195840Y791001D01*
X195970Y790709D01*
X196107Y790420D01*
X196106Y790420D02*
X196145Y790312D01*
X196188Y790205D01*
X196234Y790100D01*
X196285Y789996D01*
X196338Y789894D01*
X196395Y789794D01*
X196456Y789696D01*
X196520Y789601D01*
X196587Y789507D01*
X196658Y789416D01*
X196731Y789327D01*
X196808Y789241D01*
X196887Y789158D01*
X196969Y789077D01*
X197054Y788999D01*
X197142Y788925D01*
X197232Y788853D01*
X197325Y788784D01*
X197419Y788719D01*
X197516Y788657D01*
X197616Y788599D01*
X197717Y788543D01*
X197819Y788492D01*
X197924Y788444D01*
X198030Y788399D01*
X198138Y788358D01*
X198247Y788321D01*
X198357Y788288D01*
X198469Y788259D01*
X198581Y788233D01*
X198694Y788211D01*
X198808Y788194D01*
X198922Y788180D01*
X199037Y788170D01*
X199152Y788164D01*
X199267Y788162D01*
X202427Y790420D02*
X202564Y790709D01*
X202694Y791001D01*
X202817Y791297D01*
X202932Y791595D01*
X203041Y791896D01*
X203142Y792199D01*
X203236Y792505D01*
X203323Y792812D01*
X203402Y793122D01*
X203474Y793434D01*
X203538Y793747D01*
X203595Y794062D01*
X203645Y794378D01*
X203687Y794695D01*
X203721Y795013D01*
X203748Y795331D01*
X203767Y795651D01*
X203778Y795970D01*
X203782Y796290D01*
X202428Y790420D02*
X202389Y790312D01*
X202346Y790205D01*
X202300Y790100D01*
X202249Y789996D01*
X202196Y789894D01*
X202139Y789794D01*
X202078Y789696D01*
X202014Y789601D01*
X201947Y789507D01*
X201876Y789416D01*
X201803Y789327D01*
X201726Y789241D01*
X201647Y789158D01*
X201565Y789077D01*
X201480Y788999D01*
X201392Y788925D01*
X201302Y788853D01*
X201209Y788784D01*
X201115Y788719D01*
X201018Y788657D01*
X200918Y788599D01*
X200817Y788543D01*
X200714Y788492D01*
X200610Y788444D01*
X200504Y788399D01*
X200396Y788358D01*
X200287Y788321D01*
X200177Y788288D01*
X200065Y788259D01*
X199953Y788233D01*
X199840Y788211D01*
X199726Y788194D01*
X199612Y788180D01*
X199497Y788170D01*
X199382Y788164D01*
X199267Y788162D01*
X195655Y791774D02*
X202879Y800806D01*
X210383Y800806D02*
X214898Y804418D01*
X214898Y788162D01*
X210383Y788162D02*
X219414Y788162D01*
X234489Y794484D02*
X245327Y794484D01*
X265300Y788162D02*
X265418Y788164D01*
X265536Y788170D01*
X265654Y788179D01*
X265771Y788193D01*
X265888Y788210D01*
X266005Y788231D01*
X266120Y788256D01*
X266235Y788285D01*
X266349Y788318D01*
X266461Y788354D01*
X266572Y788394D01*
X266682Y788437D01*
X266791Y788484D01*
X266898Y788534D01*
X267003Y788589D01*
X267106Y788646D01*
X267207Y788707D01*
X267307Y788771D01*
X267404Y788838D01*
X267499Y788908D01*
X267591Y788982D01*
X267682Y789058D01*
X267769Y789138D01*
X267854Y789220D01*
X267936Y789305D01*
X268016Y789392D01*
X268092Y789483D01*
X268166Y789575D01*
X268236Y789670D01*
X268303Y789767D01*
X268367Y789867D01*
X268428Y789968D01*
X268485Y790071D01*
X268540Y790176D01*
X268590Y790283D01*
X268637Y790392D01*
X268680Y790502D01*
X268720Y790613D01*
X268756Y790725D01*
X268789Y790839D01*
X268818Y790954D01*
X268843Y791069D01*
X268864Y791186D01*
X268881Y791303D01*
X268895Y791420D01*
X268904Y791538D01*
X268910Y791656D01*
X268912Y791774D01*
X265300Y788162D02*
X265117Y788164D01*
X264935Y788171D01*
X264753Y788182D01*
X264571Y788197D01*
X264389Y788217D01*
X264208Y788240D01*
X264028Y788269D01*
X263848Y788301D01*
X263669Y788338D01*
X263492Y788379D01*
X263315Y788425D01*
X263139Y788474D01*
X262965Y788528D01*
X262791Y788586D01*
X262620Y788648D01*
X262450Y788714D01*
X262281Y788785D01*
X262114Y788859D01*
X261949Y788937D01*
X261786Y789019D01*
X261625Y789105D01*
X261466Y789195D01*
X261309Y789289D01*
X261155Y789386D01*
X261003Y789487D01*
X260853Y789592D01*
X260706Y789700D01*
X260562Y789811D01*
X260420Y789926D01*
X260281Y790045D01*
X260145Y790167D01*
X260012Y790292D01*
X259882Y790420D01*
X260333Y800806D02*
X260335Y800924D01*
X260341Y801042D01*
X260350Y801160D01*
X260364Y801277D01*
X260381Y801394D01*
X260402Y801511D01*
X260427Y801626D01*
X260456Y801741D01*
X260489Y801855D01*
X260525Y801967D01*
X260565Y802078D01*
X260608Y802188D01*
X260655Y802297D01*
X260705Y802404D01*
X260760Y802509D01*
X260817Y802612D01*
X260878Y802713D01*
X260942Y802813D01*
X261009Y802910D01*
X261079Y803005D01*
X261153Y803097D01*
X261229Y803188D01*
X261309Y803275D01*
X261391Y803360D01*
X261476Y803442D01*
X261563Y803522D01*
X261654Y803598D01*
X261746Y803672D01*
X261841Y803742D01*
X261938Y803809D01*
X262038Y803873D01*
X262139Y803934D01*
X262242Y803992D01*
X262347Y804046D01*
X262454Y804096D01*
X262563Y804143D01*
X262673Y804187D01*
X262784Y804226D01*
X262897Y804262D01*
X263010Y804295D01*
X263125Y804324D01*
X263240Y804349D01*
X263357Y804370D01*
X263474Y804387D01*
X263591Y804401D01*
X263709Y804410D01*
X263827Y804416D01*
X263945Y804418D01*
X264106Y804416D01*
X264268Y804410D01*
X264429Y804401D01*
X264590Y804387D01*
X264750Y804370D01*
X264910Y804349D01*
X265070Y804324D01*
X265229Y804295D01*
X265387Y804263D01*
X265544Y804227D01*
X265700Y804187D01*
X265856Y804143D01*
X266010Y804095D01*
X266163Y804044D01*
X266315Y803990D01*
X266466Y803931D01*
X266615Y803870D01*
X266762Y803804D01*
X266908Y803735D01*
X267053Y803663D01*
X267195Y803587D01*
X267336Y803508D01*
X267475Y803426D01*
X267611Y803340D01*
X267746Y803251D01*
X267879Y803159D01*
X268009Y803063D01*
X262139Y797645D02*
X262038Y797707D01*
X261938Y797772D01*
X261841Y797841D01*
X261746Y797913D01*
X261653Y797987D01*
X261563Y798065D01*
X261475Y798146D01*
X261390Y798229D01*
X261308Y798315D01*
X261229Y798404D01*
X261152Y798495D01*
X261079Y798589D01*
X261008Y798685D01*
X260941Y798783D01*
X260877Y798883D01*
X260816Y798986D01*
X260759Y799090D01*
X260705Y799196D01*
X260655Y799304D01*
X260608Y799413D01*
X260564Y799524D01*
X260524Y799636D01*
X260488Y799750D01*
X260456Y799864D01*
X260427Y799980D01*
X260402Y800096D01*
X260381Y800213D01*
X260364Y800331D01*
X260350Y800449D01*
X260341Y800568D01*
X260335Y800687D01*
X260333Y800806D01*
X267107Y794935D02*
X267208Y794873D01*
X267308Y794808D01*
X267405Y794739D01*
X267500Y794667D01*
X267593Y794593D01*
X267683Y794515D01*
X267771Y794434D01*
X267856Y794351D01*
X267938Y794265D01*
X268017Y794176D01*
X268094Y794085D01*
X268167Y793991D01*
X268238Y793895D01*
X268305Y793797D01*
X268369Y793697D01*
X268430Y793594D01*
X268487Y793490D01*
X268541Y793384D01*
X268591Y793276D01*
X268638Y793167D01*
X268682Y793056D01*
X268722Y792944D01*
X268758Y792830D01*
X268790Y792716D01*
X268819Y792600D01*
X268844Y792484D01*
X268865Y792367D01*
X268882Y792249D01*
X268896Y792131D01*
X268905Y792012D01*
X268911Y791893D01*
X268913Y791774D01*
X267106Y794935D02*
X262139Y797645D01*
X275374Y798999D02*
X275374Y790871D01*
X275376Y790770D01*
X275382Y790669D01*
X275391Y790568D01*
X275404Y790467D01*
X275421Y790367D01*
X275442Y790268D01*
X275466Y790170D01*
X275494Y790073D01*
X275526Y789976D01*
X275561Y789881D01*
X275600Y789788D01*
X275642Y789696D01*
X275688Y789605D01*
X275737Y789517D01*
X275789Y789430D01*
X275845Y789345D01*
X275903Y789262D01*
X275965Y789182D01*
X276030Y789104D01*
X276097Y789028D01*
X276167Y788955D01*
X276240Y788885D01*
X276316Y788818D01*
X276394Y788753D01*
X276474Y788691D01*
X276557Y788633D01*
X276642Y788577D01*
X276729Y788525D01*
X276817Y788476D01*
X276908Y788430D01*
X277000Y788388D01*
X277093Y788349D01*
X277188Y788314D01*
X277285Y788282D01*
X277382Y788254D01*
X277480Y788230D01*
X277579Y788209D01*
X277679Y788192D01*
X277780Y788179D01*
X277881Y788170D01*
X277982Y788164D01*
X278083Y788162D01*
X282599Y788162D01*
X282599Y798999D01*
X289963Y798999D02*
X289963Y788162D01*
X289963Y798999D02*
X294478Y798999D01*
X294582Y798997D01*
X294685Y798991D01*
X294789Y798981D01*
X294892Y798967D01*
X294994Y798949D01*
X295095Y798928D01*
X295196Y798902D01*
X295295Y798873D01*
X295394Y798840D01*
X295491Y798803D01*
X295586Y798762D01*
X295680Y798718D01*
X295772Y798670D01*
X295862Y798619D01*
X295951Y798564D01*
X296037Y798506D01*
X296120Y798444D01*
X296202Y798380D01*
X296280Y798312D01*
X296356Y798242D01*
X296430Y798169D01*
X296500Y798092D01*
X296568Y798014D01*
X296632Y797932D01*
X296694Y797849D01*
X296752Y797763D01*
X296807Y797674D01*
X296858Y797584D01*
X296906Y797492D01*
X296950Y797398D01*
X296991Y797303D01*
X297028Y797206D01*
X297061Y797107D01*
X297090Y797008D01*
X297116Y796907D01*
X297137Y796806D01*
X297155Y796704D01*
X297169Y796601D01*
X297179Y796497D01*
X297185Y796394D01*
X297187Y796290D01*
X297188Y796290D02*
X297188Y788162D01*
X316079Y788162D02*
X319692Y788162D01*
X316079Y788162D02*
X315961Y788164D01*
X315843Y788170D01*
X315725Y788179D01*
X315608Y788193D01*
X315491Y788210D01*
X315374Y788231D01*
X315259Y788256D01*
X315144Y788285D01*
X315030Y788318D01*
X314918Y788354D01*
X314807Y788394D01*
X314697Y788437D01*
X314588Y788484D01*
X314481Y788534D01*
X314376Y788589D01*
X314273Y788646D01*
X314172Y788707D01*
X314072Y788771D01*
X313975Y788838D01*
X313880Y788908D01*
X313788Y788982D01*
X313697Y789058D01*
X313610Y789138D01*
X313525Y789220D01*
X313443Y789305D01*
X313363Y789392D01*
X313287Y789483D01*
X313213Y789575D01*
X313143Y789670D01*
X313076Y789767D01*
X313012Y789867D01*
X312951Y789968D01*
X312894Y790071D01*
X312839Y790176D01*
X312789Y790283D01*
X312742Y790392D01*
X312699Y790502D01*
X312659Y790613D01*
X312623Y790725D01*
X312590Y790839D01*
X312561Y790954D01*
X312536Y791069D01*
X312515Y791186D01*
X312498Y791303D01*
X312484Y791420D01*
X312475Y791538D01*
X312469Y791656D01*
X312467Y791774D01*
X312467Y800806D01*
X312468Y800806D02*
X312470Y800924D01*
X312476Y801042D01*
X312485Y801160D01*
X312499Y801277D01*
X312516Y801394D01*
X312537Y801511D01*
X312562Y801626D01*
X312591Y801741D01*
X312624Y801855D01*
X312660Y801967D01*
X312700Y802078D01*
X312743Y802188D01*
X312790Y802297D01*
X312840Y802404D01*
X312894Y802509D01*
X312952Y802612D01*
X313013Y802713D01*
X313077Y802813D01*
X313144Y802910D01*
X313214Y803005D01*
X313288Y803097D01*
X313364Y803188D01*
X313444Y803275D01*
X313526Y803360D01*
X313611Y803442D01*
X313698Y803522D01*
X313789Y803598D01*
X313881Y803672D01*
X313976Y803742D01*
X314073Y803809D01*
X314173Y803873D01*
X314274Y803934D01*
X314377Y803991D01*
X314482Y804045D01*
X314589Y804096D01*
X314698Y804143D01*
X314808Y804186D01*
X314919Y804226D01*
X315031Y804262D01*
X315145Y804295D01*
X315260Y804324D01*
X315375Y804349D01*
X315492Y804370D01*
X315609Y804387D01*
X315726Y804401D01*
X315844Y804410D01*
X315962Y804416D01*
X316080Y804418D01*
X316079Y804418D02*
X319692Y804418D01*
X325630Y804418D02*
X325630Y790871D01*
X325631Y790871D02*
X325633Y790770D01*
X325639Y790669D01*
X325648Y790568D01*
X325661Y790467D01*
X325678Y790367D01*
X325699Y790268D01*
X325723Y790170D01*
X325751Y790073D01*
X325783Y789976D01*
X325818Y789881D01*
X325857Y789788D01*
X325899Y789696D01*
X325945Y789605D01*
X325994Y789517D01*
X326046Y789430D01*
X326102Y789345D01*
X326160Y789262D01*
X326222Y789182D01*
X326287Y789104D01*
X326354Y789028D01*
X326424Y788955D01*
X326497Y788885D01*
X326573Y788818D01*
X326651Y788753D01*
X326731Y788691D01*
X326814Y788633D01*
X326899Y788577D01*
X326986Y788525D01*
X327074Y788476D01*
X327165Y788430D01*
X327257Y788388D01*
X327350Y788349D01*
X327445Y788314D01*
X327542Y788282D01*
X327639Y788254D01*
X327737Y788230D01*
X327836Y788209D01*
X327936Y788192D01*
X328037Y788179D01*
X328138Y788170D01*
X328239Y788164D01*
X328340Y788162D01*
X333730Y791774D02*
X333730Y795387D01*
X333731Y795387D02*
X333733Y795506D01*
X333739Y795626D01*
X333749Y795745D01*
X333763Y795863D01*
X333780Y795982D01*
X333802Y796099D01*
X333827Y796216D01*
X333857Y796331D01*
X333890Y796446D01*
X333927Y796560D01*
X333967Y796672D01*
X334012Y796783D01*
X334060Y796892D01*
X334111Y797000D01*
X334166Y797106D01*
X334225Y797210D01*
X334287Y797312D01*
X334352Y797412D01*
X334421Y797510D01*
X334493Y797606D01*
X334568Y797699D01*
X334645Y797789D01*
X334726Y797877D01*
X334810Y797962D01*
X334897Y798044D01*
X334986Y798124D01*
X335078Y798200D01*
X335172Y798274D01*
X335269Y798344D01*
X335367Y798411D01*
X335468Y798475D01*
X335572Y798535D01*
X335677Y798592D01*
X335784Y798645D01*
X335892Y798695D01*
X336002Y798741D01*
X336114Y798783D01*
X336227Y798822D01*
X336341Y798857D01*
X336456Y798888D01*
X336573Y798916D01*
X336690Y798939D01*
X336807Y798959D01*
X336926Y798975D01*
X337045Y798987D01*
X337164Y798995D01*
X337283Y798999D01*
X337403Y798999D01*
X337522Y798995D01*
X337641Y798987D01*
X337760Y798975D01*
X337879Y798959D01*
X337996Y798939D01*
X338113Y798916D01*
X338230Y798888D01*
X338345Y798857D01*
X338459Y798822D01*
X338572Y798783D01*
X338684Y798741D01*
X338794Y798695D01*
X338902Y798645D01*
X339009Y798592D01*
X339114Y798535D01*
X339218Y798475D01*
X339319Y798411D01*
X339417Y798344D01*
X339514Y798274D01*
X339608Y798200D01*
X339700Y798124D01*
X339789Y798044D01*
X339876Y797962D01*
X339960Y797877D01*
X340041Y797789D01*
X340118Y797699D01*
X340193Y797606D01*
X340265Y797510D01*
X340334Y797412D01*
X340399Y797312D01*
X340461Y797210D01*
X340520Y797106D01*
X340575Y797000D01*
X340626Y796892D01*
X340674Y796783D01*
X340719Y796672D01*
X340759Y796560D01*
X340796Y796446D01*
X340829Y796331D01*
X340859Y796216D01*
X340884Y796099D01*
X340906Y795982D01*
X340923Y795863D01*
X340937Y795745D01*
X340947Y795626D01*
X340953Y795506D01*
X340955Y795387D01*
X340955Y791774D01*
X340953Y791655D01*
X340947Y791535D01*
X340937Y791416D01*
X340923Y791298D01*
X340906Y791179D01*
X340884Y791062D01*
X340859Y790945D01*
X340829Y790830D01*
X340796Y790715D01*
X340759Y790601D01*
X340719Y790489D01*
X340674Y790378D01*
X340626Y790269D01*
X340575Y790161D01*
X340520Y790055D01*
X340461Y789951D01*
X340399Y789849D01*
X340334Y789749D01*
X340265Y789651D01*
X340193Y789555D01*
X340118Y789462D01*
X340041Y789372D01*
X339960Y789284D01*
X339876Y789199D01*
X339789Y789117D01*
X339700Y789037D01*
X339608Y788961D01*
X339514Y788887D01*
X339417Y788817D01*
X339319Y788750D01*
X339218Y788686D01*
X339114Y788626D01*
X339009Y788569D01*
X338902Y788516D01*
X338794Y788466D01*
X338684Y788420D01*
X338572Y788378D01*
X338459Y788339D01*
X338345Y788304D01*
X338230Y788273D01*
X338113Y788245D01*
X337996Y788222D01*
X337879Y788202D01*
X337760Y788186D01*
X337641Y788174D01*
X337522Y788166D01*
X337403Y788162D01*
X337283Y788162D01*
X337164Y788166D01*
X337045Y788174D01*
X336926Y788186D01*
X336807Y788202D01*
X336690Y788222D01*
X336573Y788245D01*
X336456Y788273D01*
X336341Y788304D01*
X336227Y788339D01*
X336114Y788378D01*
X336002Y788420D01*
X335892Y788466D01*
X335784Y788516D01*
X335677Y788569D01*
X335572Y788626D01*
X335468Y788686D01*
X335367Y788750D01*
X335269Y788817D01*
X335172Y788887D01*
X335078Y788961D01*
X334986Y789037D01*
X334897Y789117D01*
X334810Y789199D01*
X334726Y789284D01*
X334645Y789372D01*
X334568Y789462D01*
X334493Y789555D01*
X334421Y789651D01*
X334352Y789749D01*
X334287Y789849D01*
X334225Y789951D01*
X334166Y790055D01*
X334111Y790161D01*
X334060Y790269D01*
X334012Y790378D01*
X333967Y790489D01*
X333927Y790601D01*
X333890Y790715D01*
X333857Y790830D01*
X333827Y790945D01*
X333802Y791062D01*
X333780Y791179D01*
X333763Y791298D01*
X333749Y791416D01*
X333739Y791535D01*
X333733Y791655D01*
X333731Y791774D01*
X350004Y788162D02*
X353617Y788162D01*
X350004Y788162D02*
X349903Y788164D01*
X349802Y788170D01*
X349701Y788179D01*
X349600Y788192D01*
X349500Y788209D01*
X349401Y788230D01*
X349303Y788254D01*
X349206Y788282D01*
X349109Y788314D01*
X349014Y788349D01*
X348921Y788388D01*
X348829Y788430D01*
X348738Y788476D01*
X348650Y788525D01*
X348563Y788577D01*
X348478Y788633D01*
X348395Y788691D01*
X348315Y788753D01*
X348237Y788818D01*
X348161Y788885D01*
X348088Y788955D01*
X348018Y789028D01*
X347951Y789104D01*
X347886Y789182D01*
X347824Y789262D01*
X347766Y789345D01*
X347710Y789430D01*
X347658Y789517D01*
X347609Y789605D01*
X347563Y789696D01*
X347521Y789788D01*
X347482Y789881D01*
X347447Y789976D01*
X347415Y790073D01*
X347387Y790170D01*
X347363Y790268D01*
X347342Y790367D01*
X347325Y790467D01*
X347312Y790568D01*
X347303Y790669D01*
X347297Y790770D01*
X347295Y790871D01*
X347295Y796290D01*
X347297Y796391D01*
X347303Y796492D01*
X347312Y796593D01*
X347325Y796694D01*
X347342Y796794D01*
X347363Y796893D01*
X347387Y796991D01*
X347415Y797088D01*
X347447Y797185D01*
X347482Y797280D01*
X347521Y797373D01*
X347563Y797465D01*
X347609Y797556D01*
X347658Y797645D01*
X347710Y797731D01*
X347766Y797816D01*
X347824Y797899D01*
X347886Y797979D01*
X347951Y798057D01*
X348018Y798133D01*
X348088Y798206D01*
X348161Y798276D01*
X348237Y798343D01*
X348315Y798408D01*
X348395Y798470D01*
X348478Y798528D01*
X348563Y798584D01*
X348650Y798636D01*
X348738Y798685D01*
X348829Y798731D01*
X348921Y798773D01*
X349014Y798812D01*
X349109Y798847D01*
X349206Y798879D01*
X349303Y798907D01*
X349401Y798931D01*
X349500Y798952D01*
X349600Y798969D01*
X349701Y798982D01*
X349802Y798991D01*
X349903Y798997D01*
X350004Y798999D01*
X353617Y798999D01*
X359951Y804418D02*
X359951Y788162D01*
X359951Y793581D02*
X367176Y798999D01*
X363112Y795838D02*
X367176Y788162D01*
X711962Y788162D02*
X711962Y804418D01*
X716478Y804418D01*
X716611Y804416D01*
X716743Y804410D01*
X716875Y804400D01*
X717007Y804387D01*
X717139Y804369D01*
X717269Y804348D01*
X717400Y804323D01*
X717529Y804294D01*
X717657Y804261D01*
X717785Y804225D01*
X717911Y804185D01*
X718036Y804141D01*
X718160Y804093D01*
X718282Y804042D01*
X718403Y803987D01*
X718522Y803929D01*
X718640Y803867D01*
X718755Y803802D01*
X718869Y803733D01*
X718980Y803662D01*
X719089Y803586D01*
X719196Y803508D01*
X719301Y803427D01*
X719403Y803342D01*
X719503Y803255D01*
X719600Y803165D01*
X719695Y803072D01*
X719786Y802976D01*
X719875Y802878D01*
X719961Y802777D01*
X720044Y802673D01*
X720124Y802567D01*
X720200Y802459D01*
X720274Y802349D01*
X720344Y802236D01*
X720411Y802122D01*
X720474Y802005D01*
X720534Y801887D01*
X720591Y801767D01*
X720644Y801645D01*
X720693Y801522D01*
X720739Y801398D01*
X720781Y801272D01*
X720819Y801145D01*
X720854Y801017D01*
X720885Y800888D01*
X720912Y800759D01*
X720935Y800628D01*
X720955Y800497D01*
X720970Y800365D01*
X720982Y800233D01*
X720990Y800101D01*
X720994Y799968D01*
X720994Y799836D01*
X720990Y799703D01*
X720982Y799571D01*
X720970Y799439D01*
X720955Y799307D01*
X720935Y799176D01*
X720912Y799045D01*
X720885Y798916D01*
X720854Y798787D01*
X720819Y798659D01*
X720781Y798532D01*
X720739Y798406D01*
X720693Y798282D01*
X720644Y798159D01*
X720591Y798037D01*
X720534Y797917D01*
X720474Y797799D01*
X720411Y797682D01*
X720344Y797568D01*
X720274Y797455D01*
X720200Y797345D01*
X720124Y797237D01*
X720044Y797131D01*
X719961Y797027D01*
X719875Y796926D01*
X719786Y796828D01*
X719695Y796732D01*
X719600Y796639D01*
X719503Y796549D01*
X719403Y796462D01*
X719301Y796377D01*
X719196Y796296D01*
X719089Y796218D01*
X718980Y796142D01*
X718869Y796071D01*
X718755Y796002D01*
X718640Y795937D01*
X718522Y795875D01*
X718403Y795817D01*
X718282Y795762D01*
X718160Y795711D01*
X718036Y795663D01*
X717911Y795619D01*
X717785Y795579D01*
X717657Y795543D01*
X717529Y795510D01*
X717400Y795481D01*
X717269Y795456D01*
X717139Y795435D01*
X717007Y795417D01*
X716875Y795404D01*
X716743Y795394D01*
X716611Y795388D01*
X716478Y795386D01*
X716478Y795387D02*
X711962Y795387D01*
X717381Y795387D02*
X720993Y788162D01*
X730072Y788162D02*
X734588Y788162D01*
X730072Y788162D02*
X729971Y788164D01*
X729870Y788170D01*
X729769Y788179D01*
X729668Y788192D01*
X729568Y788209D01*
X729469Y788230D01*
X729371Y788254D01*
X729274Y788282D01*
X729177Y788314D01*
X729082Y788349D01*
X728989Y788388D01*
X728897Y788430D01*
X728806Y788476D01*
X728718Y788525D01*
X728631Y788577D01*
X728546Y788633D01*
X728463Y788691D01*
X728383Y788753D01*
X728305Y788818D01*
X728229Y788885D01*
X728156Y788955D01*
X728086Y789028D01*
X728019Y789104D01*
X727954Y789182D01*
X727892Y789262D01*
X727834Y789345D01*
X727778Y789430D01*
X727726Y789517D01*
X727677Y789605D01*
X727631Y789696D01*
X727589Y789788D01*
X727550Y789881D01*
X727515Y789976D01*
X727483Y790073D01*
X727455Y790170D01*
X727431Y790268D01*
X727410Y790367D01*
X727393Y790467D01*
X727380Y790568D01*
X727371Y790669D01*
X727365Y790770D01*
X727363Y790871D01*
X727363Y795387D01*
X727365Y795506D01*
X727371Y795626D01*
X727381Y795745D01*
X727395Y795863D01*
X727412Y795982D01*
X727434Y796099D01*
X727459Y796216D01*
X727489Y796331D01*
X727522Y796446D01*
X727559Y796560D01*
X727599Y796672D01*
X727644Y796783D01*
X727692Y796892D01*
X727743Y797000D01*
X727798Y797106D01*
X727857Y797210D01*
X727919Y797312D01*
X727984Y797412D01*
X728053Y797510D01*
X728125Y797606D01*
X728200Y797699D01*
X728277Y797789D01*
X728358Y797877D01*
X728442Y797962D01*
X728529Y798044D01*
X728618Y798124D01*
X728710Y798200D01*
X728804Y798274D01*
X728901Y798344D01*
X728999Y798411D01*
X729100Y798475D01*
X729204Y798535D01*
X729309Y798592D01*
X729416Y798645D01*
X729524Y798695D01*
X729634Y798741D01*
X729746Y798783D01*
X729859Y798822D01*
X729973Y798857D01*
X730088Y798888D01*
X730205Y798916D01*
X730322Y798939D01*
X730439Y798959D01*
X730558Y798975D01*
X730677Y798987D01*
X730796Y798995D01*
X730915Y798999D01*
X731035Y798999D01*
X731154Y798995D01*
X731273Y798987D01*
X731392Y798975D01*
X731511Y798959D01*
X731628Y798939D01*
X731745Y798916D01*
X731862Y798888D01*
X731977Y798857D01*
X732091Y798822D01*
X732204Y798783D01*
X732316Y798741D01*
X732426Y798695D01*
X732534Y798645D01*
X732641Y798592D01*
X732746Y798535D01*
X732850Y798475D01*
X732951Y798411D01*
X733049Y798344D01*
X733146Y798274D01*
X733240Y798200D01*
X733332Y798124D01*
X733421Y798044D01*
X733508Y797962D01*
X733592Y797877D01*
X733673Y797789D01*
X733750Y797699D01*
X733825Y797606D01*
X733897Y797510D01*
X733966Y797412D01*
X734031Y797312D01*
X734093Y797210D01*
X734152Y797106D01*
X734207Y797000D01*
X734258Y796892D01*
X734306Y796783D01*
X734351Y796672D01*
X734391Y796560D01*
X734428Y796446D01*
X734461Y796331D01*
X734491Y796216D01*
X734516Y796099D01*
X734538Y795982D01*
X734555Y795863D01*
X734569Y795745D01*
X734579Y795626D01*
X734585Y795506D01*
X734587Y795387D01*
X734588Y795387D02*
X734588Y793581D01*
X727363Y793581D01*
X740389Y798999D02*
X744001Y788162D01*
X747614Y798999D01*
X761890Y800806D02*
X766406Y804418D01*
X766406Y788162D01*
X770921Y788162D02*
X761890Y788162D01*
X776618Y788162D02*
X782037Y804418D01*
X787456Y788162D01*
X786101Y792226D02*
X777973Y792226D01*
D11*
X25400Y71120D02*
X25282Y71079D01*
X25166Y71034D01*
X25051Y70985D01*
X24937Y70933D01*
X24825Y70877D01*
X24715Y70818D01*
X24607Y70756D01*
X24501Y70690D01*
X24397Y70621D01*
X24295Y70548D01*
X24195Y70473D01*
X24098Y70394D01*
X24004Y70313D01*
X23911Y70229D01*
X23822Y70141D01*
X23735Y70051D01*
X23651Y69959D01*
X23571Y69864D01*
X23493Y69766D01*
X23418Y69666D01*
X23346Y69564D01*
X23278Y69459D01*
X23212Y69353D01*
X23151Y69244D01*
X23092Y69134D01*
X23037Y69022D01*
X22986Y68908D01*
X22938Y68793D01*
X22893Y68676D01*
X22853Y68558D01*
X22816Y68438D01*
X22783Y68318D01*
X22753Y68197D01*
X22727Y68074D01*
X22706Y67951D01*
X22688Y67828D01*
X22673Y67704D01*
X22663Y67579D01*
X22657Y67454D01*
X22654Y67329D01*
X22655Y67205D01*
X22661Y67080D01*
X22670Y66955D01*
X22683Y66831D01*
X22700Y66707D01*
X22720Y66584D01*
X22745Y66462D01*
X22773Y66340D01*
X22805Y66219D01*
X22841Y66099D01*
X22880Y65981D01*
X22923Y65864D01*
X22970Y65748D01*
X23021Y65634D01*
X23075Y65521D01*
X23132Y65410D01*
X23193Y65301D01*
X23257Y65194D01*
X23324Y65089D01*
X23395Y64986D01*
X23469Y64885D01*
X23546Y64786D01*
X23626Y64691D01*
X23709Y64597D01*
X23795Y64506D01*
X23883Y64418D01*
X23974Y64333D01*
X24068Y64251D01*
X24165Y64171D01*
X24264Y64095D01*
X24365Y64022D01*
X24468Y63951D01*
X24574Y63885D01*
X24681Y63821D01*
X24791Y63761D01*
X24902Y63704D01*
X25015Y63651D01*
X25130Y63601D01*
X25246Y63555D01*
X25363Y63513D01*
X25482Y63474D01*
X25602Y63439D01*
X25723Y63407D01*
X25844Y63380D01*
X25967Y63356D01*
X26090Y63336D01*
X26214Y63320D01*
X26339Y63308D01*
X26463Y63299D01*
X26588Y63295D01*
X26713Y63294D01*
X26838Y63298D01*
X26963Y63305D01*
X27087Y63316D01*
X27211Y63331D01*
X27334Y63349D01*
X27457Y63372D01*
X27579Y63398D01*
X27701Y63429D01*
X27821Y63462D01*
X27940Y63500D01*
X33020Y60960D02*
X33020Y76200D01*
X33065Y76105D01*
X33107Y76009D01*
X33145Y75911D01*
X33180Y75812D01*
X33210Y75712D01*
X33237Y75610D01*
X33261Y75508D01*
X33280Y75405D01*
X33296Y75301D01*
X33307Y75197D01*
X33315Y75092D01*
X33319Y74987D01*
X33320Y74882D01*
X33316Y74777D01*
X33308Y74673D01*
X33297Y74568D01*
X33282Y74464D01*
X33262Y74361D01*
X33240Y74259D01*
X33213Y74157D01*
X33182Y74057D01*
X33148Y73958D01*
X33111Y73860D01*
X33069Y73763D01*
X33024Y73668D01*
X32976Y73575D01*
X32924Y73484D01*
X32869Y73395D01*
X32811Y73307D01*
X32749Y73222D01*
X32685Y73140D01*
X32617Y73059D01*
X32546Y72982D01*
X32473Y72907D01*
X32397Y72834D01*
X32318Y72765D01*
X32237Y72699D01*
X32153Y72635D01*
X32067Y72575D01*
X31979Y72518D01*
X31889Y72464D01*
X31797Y72414D01*
X31703Y72367D01*
X31607Y72323D01*
X31510Y72283D01*
X31412Y72247D01*
X31312Y72215D01*
X31211Y72186D01*
X31109Y72161D01*
X31006Y72139D01*
X30903Y72122D01*
X30799Y72108D01*
X30694Y72098D01*
X30590Y72092D01*
X30485Y72090D01*
X30380Y72092D01*
X30275Y72097D01*
X30170Y72107D01*
X30066Y72120D01*
X29963Y72137D01*
X29860Y72159D01*
X29758Y72183D01*
X29657Y72212D01*
X29557Y72244D01*
X29458Y72280D01*
X29361Y72320D01*
X29266Y72363D01*
X29171Y72409D01*
X29079Y72459D01*
X28989Y72513D01*
X28901Y72570D01*
X28814Y72630D01*
X28731Y72693D01*
X28649Y72759D01*
X28570Y72828D01*
X28494Y72900D01*
X28420Y72975D01*
X28349Y73052D01*
X28281Y73132D01*
X28216Y73215D01*
X28155Y73300D01*
X28096Y73387D01*
X28041Y73476D01*
X27988Y73567D01*
X27940Y73660D01*
X33019Y68580D02*
X33078Y68859D01*
X33143Y69136D01*
X33215Y69412D01*
X33293Y69685D01*
X33378Y69957D01*
X33469Y70227D01*
X33567Y70495D01*
X33671Y70760D01*
X33781Y71022D01*
X33898Y71282D01*
X34020Y71539D01*
X34149Y71793D01*
X34284Y72044D01*
X34425Y72292D01*
X34571Y72536D01*
X34723Y72777D01*
X34881Y73014D01*
X35045Y73247D01*
X35214Y73476D01*
X35388Y73701D01*
X35568Y73922D01*
X35753Y74138D01*
X35943Y74350D01*
X36138Y74558D01*
X36338Y74761D01*
X36543Y74959D01*
X36752Y75152D01*
X36966Y75340D01*
X37185Y75522D01*
X37407Y75700D01*
X37634Y75872D01*
X37865Y76039D01*
X38100Y76200D01*
X38100Y63500D01*
X38099Y63500D02*
X38099Y63925D01*
X38109Y64351D01*
X38129Y64776D01*
X38160Y65200D01*
X38200Y65623D01*
X38250Y66046D01*
X38311Y66467D01*
X38381Y66886D01*
X38461Y67304D01*
X38552Y67719D01*
X38652Y68133D01*
X38762Y68544D01*
X38882Y68952D01*
X39011Y69357D01*
X39150Y69759D01*
X39298Y70158D01*
X39456Y70552D01*
X39624Y70944D01*
X39800Y71330D01*
X39986Y71713D01*
X40181Y72091D01*
X40385Y72465D01*
X40597Y72833D01*
X40818Y73196D01*
X41048Y73554D01*
X41287Y73907D01*
X41533Y74253D01*
X41788Y74594D01*
X42051Y74928D01*
X42322Y75256D01*
X42600Y75578D01*
X42886Y75892D01*
X43179Y76200D01*
X43180Y76200D02*
X43180Y50800D01*
X43228Y50707D01*
X43281Y50616D01*
X43336Y50527D01*
X43395Y50440D01*
X43456Y50355D01*
X43521Y50272D01*
X43589Y50192D01*
X43660Y50115D01*
X43734Y50040D01*
X43810Y49968D01*
X43889Y49899D01*
X43971Y49833D01*
X44054Y49770D01*
X44141Y49710D01*
X44229Y49653D01*
X44319Y49599D01*
X44411Y49549D01*
X44506Y49503D01*
X44601Y49460D01*
X44698Y49420D01*
X44797Y49384D01*
X44897Y49352D01*
X44998Y49323D01*
X45100Y49299D01*
X45203Y49277D01*
X45306Y49260D01*
X45410Y49247D01*
X45515Y49237D01*
X45620Y49232D01*
X45725Y49230D01*
X45830Y49232D01*
X45934Y49238D01*
X46039Y49248D01*
X46143Y49262D01*
X46246Y49279D01*
X46349Y49301D01*
X46451Y49326D01*
X46552Y49355D01*
X46652Y49387D01*
X46750Y49423D01*
X46847Y49463D01*
X46943Y49507D01*
X47037Y49554D01*
X47129Y49604D01*
X47219Y49658D01*
X47307Y49715D01*
X47393Y49775D01*
X47477Y49839D01*
X47558Y49905D01*
X47637Y49974D01*
X47713Y50047D01*
X47786Y50122D01*
X47857Y50199D01*
X47925Y50280D01*
X47989Y50362D01*
X48051Y50447D01*
X48109Y50535D01*
X48164Y50624D01*
X48216Y50715D01*
X48264Y50808D01*
X48309Y50903D01*
X48351Y51000D01*
X48388Y51098D01*
X48422Y51197D01*
X48453Y51297D01*
X48480Y51399D01*
X48502Y51501D01*
X48522Y51604D01*
X48537Y51708D01*
X48548Y51813D01*
X48556Y51917D01*
X48560Y52022D01*
X48559Y52127D01*
X48555Y52232D01*
X48547Y52337D01*
X48536Y52441D01*
X48520Y52545D01*
X48501Y52648D01*
X48477Y52750D01*
X48450Y52852D01*
X48420Y52952D01*
X48385Y53051D01*
X48347Y53149D01*
X48305Y53245D01*
X48260Y53340D01*
X55880Y63500D02*
X55775Y63398D01*
X55668Y63299D01*
X55558Y63203D01*
X55446Y63111D01*
X55331Y63021D01*
X55213Y62934D01*
X55094Y62850D01*
X54972Y62770D01*
X54848Y62693D01*
X54722Y62620D01*
X54594Y62550D01*
X54464Y62483D01*
X54332Y62420D01*
X54199Y62361D01*
X54064Y62305D01*
X53928Y62253D01*
X53790Y62204D01*
X53651Y62159D01*
X53511Y62118D01*
X53370Y62081D01*
X53228Y62048D01*
X53085Y62019D01*
X52942Y61993D01*
X52797Y61971D01*
X52653Y61954D01*
X52507Y61940D01*
X52362Y61930D01*
X52216Y61924D01*
X52070Y61922D01*
X51924Y61924D01*
X51778Y61930D01*
X51633Y61940D01*
X51487Y61954D01*
X51343Y61971D01*
X51198Y61993D01*
X51055Y62019D01*
X50912Y62048D01*
X50770Y62081D01*
X50629Y62118D01*
X50489Y62159D01*
X50350Y62204D01*
X50212Y62253D01*
X50076Y62305D01*
X49941Y62361D01*
X49808Y62420D01*
X49676Y62483D01*
X49546Y62550D01*
X49418Y62620D01*
X49292Y62693D01*
X49168Y62770D01*
X49046Y62850D01*
X48927Y62934D01*
X48809Y63021D01*
X48694Y63111D01*
X48582Y63203D01*
X48472Y63299D01*
X48365Y63398D01*
X48260Y63500D01*
X48158Y63605D01*
X48059Y63712D01*
X47963Y63822D01*
X47871Y63934D01*
X47781Y64049D01*
X47694Y64167D01*
X47610Y64286D01*
X47530Y64408D01*
X47453Y64532D01*
X47380Y64658D01*
X47310Y64786D01*
X47243Y64916D01*
X47180Y65048D01*
X47121Y65181D01*
X47065Y65316D01*
X47013Y65452D01*
X46964Y65590D01*
X46919Y65729D01*
X46878Y65869D01*
X46841Y66010D01*
X46808Y66152D01*
X46779Y66295D01*
X46753Y66438D01*
X46731Y66583D01*
X46714Y66727D01*
X46700Y66873D01*
X46690Y67018D01*
X46684Y67164D01*
X46682Y67310D01*
X46684Y67456D01*
X46690Y67602D01*
X46700Y67747D01*
X46714Y67893D01*
X46731Y68037D01*
X46753Y68182D01*
X46779Y68325D01*
X46808Y68468D01*
X46841Y68610D01*
X46878Y68751D01*
X46919Y68891D01*
X46964Y69030D01*
X47013Y69168D01*
X47065Y69304D01*
X47121Y69439D01*
X47180Y69572D01*
X47243Y69704D01*
X47310Y69834D01*
X47380Y69962D01*
X47453Y70088D01*
X47530Y70212D01*
X47610Y70334D01*
X47694Y70453D01*
X47781Y70571D01*
X47871Y70686D01*
X47963Y70798D01*
X48059Y70908D01*
X48158Y71015D01*
X48260Y71120D01*
X48365Y71222D01*
X48472Y71321D01*
X48582Y71417D01*
X48694Y71509D01*
X48809Y71599D01*
X48927Y71686D01*
X49046Y71770D01*
X49168Y71850D01*
X49292Y71927D01*
X49418Y72000D01*
X49546Y72070D01*
X49676Y72137D01*
X49808Y72200D01*
X49941Y72259D01*
X50076Y72315D01*
X50212Y72367D01*
X50350Y72416D01*
X50489Y72461D01*
X50629Y72502D01*
X50770Y72539D01*
X50912Y72572D01*
X51055Y72601D01*
X51198Y72627D01*
X51343Y72649D01*
X51487Y72666D01*
X51633Y72680D01*
X51778Y72690D01*
X51924Y72696D01*
X52070Y72698D01*
X52216Y72696D01*
X52362Y72690D01*
X52507Y72680D01*
X52653Y72666D01*
X52797Y72649D01*
X52942Y72627D01*
X53085Y72601D01*
X53228Y72572D01*
X53370Y72539D01*
X53511Y72502D01*
X53651Y72461D01*
X53790Y72416D01*
X53928Y72367D01*
X54064Y72315D01*
X54199Y72259D01*
X54332Y72200D01*
X54464Y72137D01*
X54594Y72070D01*
X54722Y72000D01*
X54848Y71927D01*
X54972Y71850D01*
X55094Y71770D01*
X55213Y71686D01*
X55331Y71599D01*
X55446Y71509D01*
X55558Y71417D01*
X55668Y71321D01*
X55775Y71222D01*
X55880Y71120D01*
X14640Y68580D02*
X14642Y68731D01*
X14648Y68881D01*
X14658Y69031D01*
X14672Y69181D01*
X14690Y69331D01*
X14712Y69480D01*
X14738Y69628D01*
X14767Y69776D01*
X14801Y69922D01*
X14838Y70068D01*
X14880Y70213D01*
X14925Y70357D01*
X14974Y70499D01*
X15027Y70640D01*
X15083Y70780D01*
X15143Y70918D01*
X15207Y71054D01*
X15275Y71189D01*
X15345Y71322D01*
X15420Y71453D01*
X15498Y71581D01*
X15579Y71708D01*
X15664Y71833D01*
X15751Y71955D01*
X15843Y72075D01*
X15937Y72192D01*
X16034Y72307D01*
X16134Y72420D01*
X16238Y72529D01*
X16344Y72636D01*
X16453Y72740D01*
X16564Y72841D01*
X16679Y72939D01*
X16795Y73034D01*
X16915Y73126D01*
X17036Y73215D01*
X17160Y73300D01*
X17287Y73382D01*
X17415Y73461D01*
X17545Y73536D01*
X17678Y73608D01*
X17812Y73676D01*
X17948Y73741D01*
X18086Y73802D01*
X18225Y73859D01*
X18366Y73913D01*
X18508Y73963D01*
X18651Y74009D01*
X18795Y74052D01*
X18941Y74090D01*
X19088Y74125D01*
X19235Y74155D01*
X19383Y74182D01*
X19532Y74205D01*
X19681Y74224D01*
X19831Y74239D01*
X19981Y74250D01*
X20132Y74257D01*
X20282Y74260D01*
X20433Y74259D01*
X20583Y74254D01*
X20734Y74245D01*
X20884Y74232D01*
X21033Y74215D01*
X21183Y74194D01*
X21331Y74169D01*
X21479Y74141D01*
X21626Y74108D01*
X21772Y74071D01*
X21917Y74031D01*
X22061Y73987D01*
X22204Y73939D01*
X22345Y73887D01*
X22485Y73831D01*
X22623Y73772D01*
X22760Y73709D01*
X22895Y73643D01*
X23029Y73573D01*
X23160Y73499D01*
X23289Y73422D01*
X23417Y73342D01*
X23542Y73258D01*
X23665Y73171D01*
X23785Y73081D01*
X23903Y72987D01*
X24019Y72891D01*
X24132Y72791D01*
X24242Y72688D01*
X24350Y72583D01*
X24454Y72475D01*
X24556Y72364D01*
X24655Y72250D01*
X24751Y72134D01*
X24843Y72015D01*
X24933Y71894D01*
X25019Y71771D01*
X25102Y71645D01*
X25182Y71517D01*
X25258Y71387D01*
X25330Y71255D01*
X25400Y71122D01*
X25465Y70986D01*
X25527Y70849D01*
X25585Y70710D01*
X25640Y70570D01*
X25691Y70428D01*
X25738Y70285D01*
X25781Y70141D01*
X25821Y69995D01*
X25856Y69849D01*
X25888Y69702D01*
X25916Y69554D01*
X25940Y69405D01*
X25960Y69256D01*
X25976Y69106D01*
X25988Y68956D01*
X25996Y68806D01*
X26000Y68655D01*
X26000Y68505D01*
X25996Y68354D01*
X25988Y68204D01*
X25976Y68054D01*
X25960Y67904D01*
X25940Y67755D01*
X25916Y67606D01*
X25888Y67458D01*
X25856Y67311D01*
X25821Y67165D01*
X25781Y67019D01*
X25738Y66875D01*
X25691Y66732D01*
X25640Y66590D01*
X25585Y66450D01*
X25527Y66311D01*
X25465Y66174D01*
X25400Y66038D01*
X25330Y65905D01*
X25258Y65773D01*
X25182Y65643D01*
X25102Y65515D01*
X25019Y65389D01*
X24933Y65266D01*
X24843Y65145D01*
X24751Y65026D01*
X24655Y64910D01*
X24556Y64796D01*
X24454Y64685D01*
X24350Y64577D01*
X24242Y64472D01*
X24132Y64369D01*
X24019Y64269D01*
X23903Y64173D01*
X23785Y64079D01*
X23665Y63989D01*
X23542Y63902D01*
X23417Y63818D01*
X23289Y63738D01*
X23160Y63661D01*
X23029Y63587D01*
X22895Y63517D01*
X22760Y63451D01*
X22623Y63388D01*
X22485Y63329D01*
X22345Y63273D01*
X22204Y63221D01*
X22061Y63173D01*
X21917Y63129D01*
X21772Y63089D01*
X21626Y63052D01*
X21479Y63019D01*
X21331Y62991D01*
X21183Y62966D01*
X21033Y62945D01*
X20884Y62928D01*
X20734Y62915D01*
X20583Y62906D01*
X20433Y62901D01*
X20282Y62900D01*
X20132Y62903D01*
X19981Y62910D01*
X19831Y62921D01*
X19681Y62936D01*
X19532Y62955D01*
X19383Y62978D01*
X19235Y63005D01*
X19088Y63035D01*
X18941Y63070D01*
X18795Y63108D01*
X18651Y63151D01*
X18508Y63197D01*
X18366Y63247D01*
X18225Y63301D01*
X18086Y63358D01*
X17948Y63419D01*
X17812Y63484D01*
X17678Y63552D01*
X17545Y63624D01*
X17415Y63699D01*
X17287Y63778D01*
X17160Y63860D01*
X17036Y63945D01*
X16915Y64034D01*
X16795Y64126D01*
X16679Y64221D01*
X16564Y64319D01*
X16453Y64420D01*
X16344Y64524D01*
X16238Y64631D01*
X16134Y64740D01*
X16034Y64853D01*
X15937Y64968D01*
X15843Y65085D01*
X15751Y65205D01*
X15664Y65327D01*
X15579Y65452D01*
X15498Y65579D01*
X15420Y65707D01*
X15345Y65838D01*
X15275Y65971D01*
X15207Y66106D01*
X15143Y66242D01*
X15083Y66380D01*
X15027Y66520D01*
X14974Y66661D01*
X14925Y66803D01*
X14880Y66947D01*
X14838Y67092D01*
X14801Y67238D01*
X14767Y67384D01*
X14738Y67532D01*
X14712Y67680D01*
X14690Y67829D01*
X14672Y67979D01*
X14658Y68129D01*
X14648Y68279D01*
X14642Y68429D01*
X14640Y68580D01*
D12*
X775208Y194254D02*
X775208Y202692D01*
X775208Y194254D02*
X775210Y194141D01*
X775216Y194028D01*
X775226Y193915D01*
X775240Y193802D01*
X775257Y193690D01*
X775279Y193579D01*
X775304Y193469D01*
X775334Y193359D01*
X775367Y193251D01*
X775404Y193144D01*
X775444Y193038D01*
X775489Y192934D01*
X775537Y192831D01*
X775588Y192730D01*
X775643Y192631D01*
X775701Y192534D01*
X775763Y192439D01*
X775828Y192346D01*
X775896Y192256D01*
X775967Y192168D01*
X776042Y192082D01*
X776119Y191999D01*
X776199Y191919D01*
X776282Y191842D01*
X776368Y191767D01*
X776456Y191696D01*
X776546Y191628D01*
X776639Y191563D01*
X776734Y191501D01*
X776831Y191443D01*
X776930Y191388D01*
X777031Y191337D01*
X777134Y191289D01*
X777238Y191244D01*
X777344Y191204D01*
X777451Y191167D01*
X777559Y191134D01*
X777669Y191104D01*
X777779Y191079D01*
X777890Y191057D01*
X778002Y191040D01*
X778115Y191026D01*
X778228Y191016D01*
X778341Y191010D01*
X778454Y191008D01*
X778567Y191010D01*
X778680Y191016D01*
X778793Y191026D01*
X778906Y191040D01*
X779018Y191057D01*
X779129Y191079D01*
X779239Y191104D01*
X779349Y191134D01*
X779457Y191167D01*
X779564Y191204D01*
X779670Y191244D01*
X779774Y191289D01*
X779877Y191337D01*
X779978Y191388D01*
X780077Y191443D01*
X780174Y191501D01*
X780269Y191563D01*
X780362Y191628D01*
X780452Y191696D01*
X780540Y191767D01*
X780626Y191842D01*
X780709Y191919D01*
X780789Y191999D01*
X780866Y192082D01*
X780941Y192168D01*
X781012Y192256D01*
X781080Y192346D01*
X781145Y192439D01*
X781207Y192534D01*
X781265Y192631D01*
X781320Y192730D01*
X781371Y192831D01*
X781419Y192934D01*
X781464Y193038D01*
X781504Y193144D01*
X781541Y193251D01*
X781574Y193359D01*
X781604Y193469D01*
X781629Y193579D01*
X781651Y193690D01*
X781668Y193802D01*
X781682Y193915D01*
X781692Y194028D01*
X781698Y194141D01*
X781700Y194254D01*
X781699Y194254D02*
X781699Y202692D01*
X790589Y202692D02*
X790696Y202690D01*
X790802Y202684D01*
X790908Y202674D01*
X791014Y202661D01*
X791120Y202643D01*
X791224Y202622D01*
X791328Y202597D01*
X791431Y202568D01*
X791532Y202536D01*
X791632Y202499D01*
X791731Y202459D01*
X791829Y202416D01*
X791925Y202369D01*
X792019Y202318D01*
X792111Y202264D01*
X792201Y202207D01*
X792289Y202147D01*
X792374Y202083D01*
X792457Y202016D01*
X792538Y201946D01*
X792616Y201874D01*
X792692Y201798D01*
X792764Y201720D01*
X792834Y201639D01*
X792901Y201556D01*
X792965Y201471D01*
X793025Y201383D01*
X793082Y201293D01*
X793136Y201201D01*
X793187Y201107D01*
X793234Y201011D01*
X793277Y200913D01*
X793317Y200814D01*
X793354Y200714D01*
X793386Y200613D01*
X793415Y200510D01*
X793440Y200406D01*
X793461Y200302D01*
X793479Y200196D01*
X793492Y200090D01*
X793502Y199984D01*
X793508Y199878D01*
X793510Y199771D01*
X790589Y202692D02*
X790468Y202690D01*
X790347Y202684D01*
X790227Y202674D01*
X790106Y202661D01*
X789987Y202643D01*
X789867Y202622D01*
X789749Y202597D01*
X789632Y202568D01*
X789515Y202535D01*
X789400Y202499D01*
X789286Y202458D01*
X789173Y202415D01*
X789061Y202367D01*
X788952Y202316D01*
X788844Y202261D01*
X788737Y202203D01*
X788633Y202142D01*
X788531Y202077D01*
X788431Y202009D01*
X788333Y201938D01*
X788237Y201864D01*
X788144Y201787D01*
X788054Y201706D01*
X787966Y201623D01*
X787881Y201537D01*
X787798Y201448D01*
X787719Y201357D01*
X787642Y201263D01*
X787569Y201167D01*
X787499Y201069D01*
X787432Y200968D01*
X787368Y200865D01*
X787308Y200760D01*
X787251Y200653D01*
X787197Y200545D01*
X787147Y200435D01*
X787101Y200323D01*
X787058Y200210D01*
X787019Y200095D01*
X792537Y197499D02*
X792616Y197576D01*
X792692Y197657D01*
X792765Y197740D01*
X792835Y197825D01*
X792902Y197913D01*
X792966Y198003D01*
X793026Y198095D01*
X793083Y198190D01*
X793137Y198286D01*
X793188Y198384D01*
X793235Y198484D01*
X793279Y198586D01*
X793319Y198689D01*
X793355Y198793D01*
X793387Y198899D01*
X793416Y199005D01*
X793441Y199113D01*
X793463Y199221D01*
X793480Y199331D01*
X793494Y199440D01*
X793503Y199550D01*
X793509Y199661D01*
X793511Y199771D01*
X792536Y197499D02*
X787019Y191008D01*
X793510Y191008D01*
D11*
X67000Y88900D02*
X67018Y90372D01*
X67072Y91844D01*
X67163Y93314D01*
X67289Y94781D01*
X67451Y96245D01*
X67649Y97704D01*
X67883Y99158D01*
X68153Y100605D01*
X68458Y102046D01*
X68798Y103479D01*
X69173Y104903D01*
X69584Y106317D01*
X70028Y107721D01*
X70507Y109113D01*
X71020Y110494D01*
X71567Y111861D01*
X72147Y113214D01*
X72761Y114553D01*
X73407Y115877D01*
X74085Y117184D01*
X74795Y118474D01*
X75536Y119746D01*
X76309Y121000D01*
X77112Y122234D01*
X77945Y123448D01*
X78808Y124642D01*
X79699Y125814D01*
X80619Y126964D01*
X81567Y128090D01*
X82543Y129194D01*
X83545Y130272D01*
X84574Y131326D01*
X85628Y132355D01*
X86706Y133357D01*
X87810Y134333D01*
X88936Y135281D01*
X90086Y136201D01*
X91258Y137092D01*
X92452Y137955D01*
X93666Y138788D01*
X94900Y139591D01*
X96154Y140364D01*
X97426Y141105D01*
X98716Y141815D01*
X100023Y142493D01*
X101347Y143139D01*
X102686Y143753D01*
X104039Y144333D01*
X105406Y144880D01*
X106787Y145393D01*
X108179Y145872D01*
X109583Y146316D01*
X110997Y146727D01*
X112421Y147102D01*
X113854Y147442D01*
X115295Y147747D01*
X116742Y148017D01*
X118196Y148251D01*
X119655Y148449D01*
X121119Y148611D01*
X122586Y148737D01*
X124056Y148828D01*
X125528Y148882D01*
X127000Y148900D01*
X128472Y148882D01*
X129944Y148828D01*
X131414Y148737D01*
X132881Y148611D01*
X134345Y148449D01*
X135804Y148251D01*
X137258Y148017D01*
X138705Y147747D01*
X140146Y147442D01*
X141579Y147102D01*
X143003Y146727D01*
X144417Y146316D01*
X145821Y145872D01*
X147213Y145393D01*
X148594Y144880D01*
X149961Y144333D01*
X151314Y143753D01*
X152653Y143139D01*
X153977Y142493D01*
X155284Y141815D01*
X156574Y141105D01*
X157846Y140364D01*
X159100Y139591D01*
X160334Y138788D01*
X161548Y137955D01*
X162742Y137092D01*
X163914Y136201D01*
X165064Y135281D01*
X166190Y134333D01*
X167294Y133357D01*
X168372Y132355D01*
X169426Y131326D01*
X170455Y130272D01*
X171457Y129194D01*
X172433Y128090D01*
X173381Y126964D01*
X174301Y125814D01*
X175192Y124642D01*
X176055Y123448D01*
X176888Y122234D01*
X177691Y121000D01*
X178464Y119746D01*
X179205Y118474D01*
X179915Y117184D01*
X180593Y115877D01*
X181239Y114553D01*
X181853Y113214D01*
X182433Y111861D01*
X182980Y110494D01*
X183493Y109113D01*
X183972Y107721D01*
X184416Y106317D01*
X184827Y104903D01*
X185202Y103479D01*
X185542Y102046D01*
X185847Y100605D01*
X186117Y99158D01*
X186351Y97704D01*
X186549Y96245D01*
X186711Y94781D01*
X186837Y93314D01*
X186928Y91844D01*
X186982Y90372D01*
X187000Y88900D01*
X186982Y87428D01*
X186928Y85956D01*
X186837Y84486D01*
X186711Y83019D01*
X186549Y81555D01*
X186351Y80096D01*
X186117Y78642D01*
X185847Y77195D01*
X185542Y75754D01*
X185202Y74321D01*
X184827Y72897D01*
X184416Y71483D01*
X183972Y70079D01*
X183493Y68687D01*
X182980Y67306D01*
X182433Y65939D01*
X181853Y64586D01*
X181239Y63247D01*
X180593Y61923D01*
X179915Y60616D01*
X179205Y59326D01*
X178464Y58054D01*
X177691Y56800D01*
X176888Y55566D01*
X176055Y54352D01*
X175192Y53158D01*
X174301Y51986D01*
X173381Y50836D01*
X172433Y49710D01*
X171457Y48606D01*
X170455Y47528D01*
X169426Y46474D01*
X168372Y45445D01*
X167294Y44443D01*
X166190Y43467D01*
X165064Y42519D01*
X163914Y41599D01*
X162742Y40708D01*
X161548Y39845D01*
X160334Y39012D01*
X159100Y38209D01*
X157846Y37436D01*
X156574Y36695D01*
X155284Y35985D01*
X153977Y35307D01*
X152653Y34661D01*
X151314Y34047D01*
X149961Y33467D01*
X148594Y32920D01*
X147213Y32407D01*
X145821Y31928D01*
X144417Y31484D01*
X143003Y31073D01*
X141579Y30698D01*
X140146Y30358D01*
X138705Y30053D01*
X137258Y29783D01*
X135804Y29549D01*
X134345Y29351D01*
X132881Y29189D01*
X131414Y29063D01*
X129944Y28972D01*
X128472Y28918D01*
X127000Y28900D01*
X125528Y28918D01*
X124056Y28972D01*
X122586Y29063D01*
X121119Y29189D01*
X119655Y29351D01*
X118196Y29549D01*
X116742Y29783D01*
X115295Y30053D01*
X113854Y30358D01*
X112421Y30698D01*
X110997Y31073D01*
X109583Y31484D01*
X108179Y31928D01*
X106787Y32407D01*
X105406Y32920D01*
X104039Y33467D01*
X102686Y34047D01*
X101347Y34661D01*
X100023Y35307D01*
X98716Y35985D01*
X97426Y36695D01*
X96154Y37436D01*
X94900Y38209D01*
X93666Y39012D01*
X92452Y39845D01*
X91258Y40708D01*
X90086Y41599D01*
X88936Y42519D01*
X87810Y43467D01*
X86706Y44443D01*
X85628Y45445D01*
X84574Y46474D01*
X83545Y47528D01*
X82543Y48606D01*
X81567Y49710D01*
X80619Y50836D01*
X79699Y51986D01*
X78808Y53158D01*
X77945Y54352D01*
X77112Y55566D01*
X76309Y56800D01*
X75536Y58054D01*
X74795Y59326D01*
X74085Y60616D01*
X73407Y61923D01*
X72761Y63247D01*
X72147Y64586D01*
X71567Y65939D01*
X71020Y67306D01*
X70507Y68687D01*
X70028Y70079D01*
X69584Y71483D01*
X69173Y72897D01*
X68798Y74321D01*
X68458Y75754D01*
X68153Y77195D01*
X67883Y78642D01*
X67649Y80096D01*
X67451Y81555D01*
X67289Y83019D01*
X67163Y84486D01*
X67072Y85956D01*
X67018Y87428D01*
X67000Y88900D01*
X115500Y88900D02*
X115503Y89182D01*
X115514Y89464D01*
X115531Y89746D01*
X115555Y90027D01*
X115586Y90308D01*
X115624Y90587D01*
X115669Y90866D01*
X115721Y91144D01*
X115779Y91420D01*
X115845Y91694D01*
X115917Y91967D01*
X115995Y92238D01*
X116080Y92507D01*
X116172Y92774D01*
X116271Y93039D01*
X116375Y93301D01*
X116487Y93560D01*
X116604Y93817D01*
X116728Y94071D01*
X116858Y94321D01*
X116994Y94568D01*
X117136Y94812D01*
X117284Y95052D01*
X117438Y95289D01*
X117598Y95522D01*
X117763Y95751D01*
X117934Y95975D01*
X118110Y96196D01*
X118292Y96411D01*
X118479Y96623D01*
X118671Y96830D01*
X118868Y97032D01*
X119070Y97229D01*
X119277Y97421D01*
X119489Y97608D01*
X119704Y97790D01*
X119925Y97966D01*
X120149Y98137D01*
X120378Y98302D01*
X120611Y98462D01*
X120848Y98616D01*
X121088Y98764D01*
X121332Y98906D01*
X121579Y99042D01*
X121829Y99172D01*
X122083Y99296D01*
X122340Y99413D01*
X122599Y99525D01*
X122861Y99629D01*
X123126Y99728D01*
X123393Y99820D01*
X123662Y99905D01*
X123933Y99983D01*
X124206Y100055D01*
X124480Y100121D01*
X124756Y100179D01*
X125034Y100231D01*
X125313Y100276D01*
X125592Y100314D01*
X125873Y100345D01*
X126154Y100369D01*
X126436Y100386D01*
X126718Y100397D01*
X127000Y100400D01*
X127282Y100397D01*
X127564Y100386D01*
X127846Y100369D01*
X128127Y100345D01*
X128408Y100314D01*
X128687Y100276D01*
X128966Y100231D01*
X129244Y100179D01*
X129520Y100121D01*
X129794Y100055D01*
X130067Y99983D01*
X130338Y99905D01*
X130607Y99820D01*
X130874Y99728D01*
X131139Y99629D01*
X131401Y99525D01*
X131660Y99413D01*
X131917Y99296D01*
X132171Y99172D01*
X132421Y99042D01*
X132668Y98906D01*
X132912Y98764D01*
X133152Y98616D01*
X133389Y98462D01*
X133622Y98302D01*
X133851Y98137D01*
X134075Y97966D01*
X134296Y97790D01*
X134511Y97608D01*
X134723Y97421D01*
X134930Y97229D01*
X135132Y97032D01*
X135329Y96830D01*
X135521Y96623D01*
X135708Y96411D01*
X135890Y96196D01*
X136066Y95975D01*
X136237Y95751D01*
X136402Y95522D01*
X136562Y95289D01*
X136716Y95052D01*
X136864Y94812D01*
X137006Y94568D01*
X137142Y94321D01*
X137272Y94071D01*
X137396Y93817D01*
X137513Y93560D01*
X137625Y93301D01*
X137729Y93039D01*
X137828Y92774D01*
X137920Y92507D01*
X138005Y92238D01*
X138083Y91967D01*
X138155Y91694D01*
X138221Y91420D01*
X138279Y91144D01*
X138331Y90866D01*
X138376Y90587D01*
X138414Y90308D01*
X138445Y90027D01*
X138469Y89746D01*
X138486Y89464D01*
X138497Y89182D01*
X138500Y88900D01*
X138497Y88618D01*
X138486Y88336D01*
X138469Y88054D01*
X138445Y87773D01*
X138414Y87492D01*
X138376Y87213D01*
X138331Y86934D01*
X138279Y86656D01*
X138221Y86380D01*
X138155Y86106D01*
X138083Y85833D01*
X138005Y85562D01*
X137920Y85293D01*
X137828Y85026D01*
X137729Y84761D01*
X137625Y84499D01*
X137513Y84240D01*
X137396Y83983D01*
X137272Y83729D01*
X137142Y83479D01*
X137006Y83232D01*
X136864Y82988D01*
X136716Y82748D01*
X136562Y82511D01*
X136402Y82278D01*
X136237Y82049D01*
X136066Y81825D01*
X135890Y81604D01*
X135708Y81389D01*
X135521Y81177D01*
X135329Y80970D01*
X135132Y80768D01*
X134930Y80571D01*
X134723Y80379D01*
X134511Y80192D01*
X134296Y80010D01*
X134075Y79834D01*
X133851Y79663D01*
X133622Y79498D01*
X133389Y79338D01*
X133152Y79184D01*
X132912Y79036D01*
X132668Y78894D01*
X132421Y78758D01*
X132171Y78628D01*
X131917Y78504D01*
X131660Y78387D01*
X131401Y78275D01*
X131139Y78171D01*
X130874Y78072D01*
X130607Y77980D01*
X130338Y77895D01*
X130067Y77817D01*
X129794Y77745D01*
X129520Y77679D01*
X129244Y77621D01*
X128966Y77569D01*
X128687Y77524D01*
X128408Y77486D01*
X128127Y77455D01*
X127846Y77431D01*
X127564Y77414D01*
X127282Y77403D01*
X127000Y77400D01*
X126718Y77403D01*
X126436Y77414D01*
X126154Y77431D01*
X125873Y77455D01*
X125592Y77486D01*
X125313Y77524D01*
X125034Y77569D01*
X124756Y77621D01*
X124480Y77679D01*
X124206Y77745D01*
X123933Y77817D01*
X123662Y77895D01*
X123393Y77980D01*
X123126Y78072D01*
X122861Y78171D01*
X122599Y78275D01*
X122340Y78387D01*
X122083Y78504D01*
X121829Y78628D01*
X121579Y78758D01*
X121332Y78894D01*
X121088Y79036D01*
X120848Y79184D01*
X120611Y79338D01*
X120378Y79498D01*
X120149Y79663D01*
X119925Y79834D01*
X119704Y80010D01*
X119489Y80192D01*
X119277Y80379D01*
X119070Y80571D01*
X118868Y80768D01*
X118671Y80970D01*
X118479Y81177D01*
X118292Y81389D01*
X118110Y81604D01*
X117934Y81825D01*
X117763Y82049D01*
X117598Y82278D01*
X117438Y82511D01*
X117284Y82748D01*
X117136Y82988D01*
X116994Y83232D01*
X116858Y83479D01*
X116728Y83729D01*
X116604Y83983D01*
X116487Y84240D01*
X116375Y84499D01*
X116271Y84761D01*
X116172Y85026D01*
X116080Y85293D01*
X115995Y85562D01*
X115917Y85833D01*
X115845Y86106D01*
X115779Y86380D01*
X115721Y86656D01*
X115669Y86934D01*
X115624Y87213D01*
X115586Y87492D01*
X115555Y87773D01*
X115531Y88054D01*
X115514Y88336D01*
X115503Y88618D01*
X115500Y88900D01*
D12*
X143703Y119252D02*
X151492Y119252D01*
X147597Y123146D02*
X147597Y115357D01*
X143703Y54252D02*
X151492Y54252D01*
X163331Y24892D02*
X163331Y13208D01*
X168523Y13208D01*
X176347Y13208D02*
X176446Y13210D01*
X176546Y13216D01*
X176645Y13225D01*
X176743Y13238D01*
X176841Y13255D01*
X176939Y13276D01*
X177035Y13301D01*
X177130Y13329D01*
X177224Y13361D01*
X177317Y13396D01*
X177409Y13435D01*
X177499Y13478D01*
X177587Y13523D01*
X177674Y13573D01*
X177758Y13625D01*
X177841Y13681D01*
X177921Y13739D01*
X177999Y13801D01*
X178074Y13866D01*
X178147Y13934D01*
X178217Y14004D01*
X178285Y14077D01*
X178350Y14152D01*
X178412Y14230D01*
X178470Y14310D01*
X178526Y14393D01*
X178578Y14477D01*
X178628Y14564D01*
X178673Y14652D01*
X178716Y14742D01*
X178755Y14834D01*
X178790Y14927D01*
X178822Y15021D01*
X178850Y15116D01*
X178875Y15212D01*
X178896Y15310D01*
X178913Y15408D01*
X178926Y15506D01*
X178935Y15605D01*
X178941Y15705D01*
X178943Y15804D01*
X176347Y13208D02*
X176203Y13210D01*
X176058Y13216D01*
X175914Y13225D01*
X175771Y13238D01*
X175627Y13255D01*
X175484Y13276D01*
X175342Y13301D01*
X175201Y13329D01*
X175060Y13361D01*
X174920Y13397D01*
X174781Y13436D01*
X174643Y13479D01*
X174507Y13526D01*
X174371Y13576D01*
X174237Y13630D01*
X174105Y13687D01*
X173974Y13748D01*
X173845Y13812D01*
X173717Y13880D01*
X173591Y13950D01*
X173467Y14025D01*
X173346Y14102D01*
X173226Y14183D01*
X173108Y14266D01*
X172993Y14353D01*
X172880Y14443D01*
X172769Y14536D01*
X172661Y14631D01*
X172555Y14730D01*
X172452Y14831D01*
X172777Y22296D02*
X172779Y22395D01*
X172785Y22495D01*
X172794Y22594D01*
X172807Y22692D01*
X172824Y22790D01*
X172845Y22888D01*
X172870Y22984D01*
X172898Y23079D01*
X172930Y23173D01*
X172965Y23266D01*
X173004Y23358D01*
X173047Y23448D01*
X173092Y23536D01*
X173142Y23623D01*
X173194Y23707D01*
X173250Y23790D01*
X173308Y23870D01*
X173370Y23948D01*
X173435Y24023D01*
X173503Y24096D01*
X173573Y24166D01*
X173646Y24234D01*
X173721Y24299D01*
X173799Y24361D01*
X173879Y24419D01*
X173962Y24475D01*
X174046Y24527D01*
X174133Y24577D01*
X174221Y24622D01*
X174311Y24665D01*
X174403Y24704D01*
X174496Y24739D01*
X174590Y24771D01*
X174685Y24799D01*
X174782Y24824D01*
X174879Y24845D01*
X174977Y24862D01*
X175075Y24875D01*
X175174Y24884D01*
X175274Y24890D01*
X175373Y24892D01*
X175509Y24890D01*
X175645Y24884D01*
X175781Y24875D01*
X175917Y24862D01*
X176052Y24844D01*
X176186Y24824D01*
X176320Y24799D01*
X176454Y24771D01*
X176586Y24738D01*
X176717Y24703D01*
X176848Y24663D01*
X176977Y24620D01*
X177105Y24574D01*
X177231Y24523D01*
X177357Y24470D01*
X177480Y24412D01*
X177602Y24352D01*
X177722Y24288D01*
X177841Y24220D01*
X177957Y24150D01*
X178071Y24076D01*
X178184Y23999D01*
X178294Y23918D01*
X174074Y20024D02*
X173988Y20077D01*
X173904Y20134D01*
X173822Y20193D01*
X173742Y20256D01*
X173665Y20322D01*
X173590Y20390D01*
X173518Y20462D01*
X173449Y20536D01*
X173383Y20613D01*
X173320Y20692D01*
X173260Y20774D01*
X173203Y20858D01*
X173149Y20944D01*
X173099Y21032D01*
X173052Y21122D01*
X173008Y21213D01*
X172969Y21307D01*
X172932Y21401D01*
X172900Y21497D01*
X172871Y21595D01*
X172846Y21693D01*
X172825Y21792D01*
X172807Y21892D01*
X172794Y21992D01*
X172784Y22093D01*
X172778Y22195D01*
X172776Y22296D01*
X177645Y18076D02*
X177731Y18023D01*
X177815Y17966D01*
X177897Y17907D01*
X177977Y17844D01*
X178054Y17778D01*
X178129Y17710D01*
X178201Y17638D01*
X178270Y17564D01*
X178336Y17487D01*
X178399Y17408D01*
X178459Y17326D01*
X178516Y17242D01*
X178570Y17156D01*
X178620Y17068D01*
X178667Y16978D01*
X178711Y16887D01*
X178750Y16793D01*
X178787Y16699D01*
X178819Y16603D01*
X178848Y16505D01*
X178873Y16407D01*
X178894Y16308D01*
X178912Y16208D01*
X178925Y16108D01*
X178935Y16007D01*
X178941Y15905D01*
X178943Y15804D01*
X177645Y18076D02*
X174075Y20024D01*
X183501Y22296D02*
X186746Y24892D01*
X186746Y13208D01*
X183501Y13208D02*
X189992Y13208D01*
D13*
X295600Y138900D02*
X295603Y139142D01*
X295612Y139383D01*
X295626Y139624D01*
X295647Y139865D01*
X295673Y140105D01*
X295705Y140345D01*
X295743Y140584D01*
X295786Y140821D01*
X295836Y141058D01*
X295891Y141293D01*
X295951Y141527D01*
X296018Y141759D01*
X296089Y141990D01*
X296167Y142219D01*
X296250Y142446D01*
X296338Y142671D01*
X296432Y142894D01*
X296531Y143114D01*
X296636Y143332D01*
X296745Y143547D01*
X296860Y143760D01*
X296980Y143970D01*
X297105Y144176D01*
X297235Y144380D01*
X297370Y144581D01*
X297510Y144778D01*
X297654Y144972D01*
X297803Y145162D01*
X297957Y145348D01*
X298115Y145531D01*
X298277Y145710D01*
X298444Y145885D01*
X298615Y146056D01*
X298790Y146223D01*
X298969Y146385D01*
X299152Y146543D01*
X299338Y146697D01*
X299528Y146846D01*
X299722Y146990D01*
X299919Y147130D01*
X300120Y147265D01*
X300324Y147395D01*
X300530Y147520D01*
X300740Y147640D01*
X300953Y147755D01*
X301168Y147864D01*
X301386Y147969D01*
X301606Y148068D01*
X301829Y148162D01*
X302054Y148250D01*
X302281Y148333D01*
X302510Y148411D01*
X302741Y148482D01*
X302973Y148549D01*
X303207Y148609D01*
X303442Y148664D01*
X303679Y148714D01*
X303916Y148757D01*
X304155Y148795D01*
X304395Y148827D01*
X304635Y148853D01*
X304876Y148874D01*
X305117Y148888D01*
X305358Y148897D01*
X305600Y148900D01*
X405600Y148900D01*
X405842Y148897D01*
X406083Y148888D01*
X406324Y148874D01*
X406565Y148853D01*
X406805Y148827D01*
X407045Y148795D01*
X407284Y148757D01*
X407521Y148714D01*
X407758Y148664D01*
X407993Y148609D01*
X408227Y148549D01*
X408459Y148482D01*
X408690Y148411D01*
X408919Y148333D01*
X409146Y148250D01*
X409371Y148162D01*
X409594Y148068D01*
X409814Y147969D01*
X410032Y147864D01*
X410247Y147755D01*
X410460Y147640D01*
X410670Y147520D01*
X410876Y147395D01*
X411080Y147265D01*
X411281Y147130D01*
X411478Y146990D01*
X411672Y146846D01*
X411862Y146697D01*
X412048Y146543D01*
X412231Y146385D01*
X412410Y146223D01*
X412585Y146056D01*
X412756Y145885D01*
X412923Y145710D01*
X413085Y145531D01*
X413243Y145348D01*
X413397Y145162D01*
X413546Y144972D01*
X413690Y144778D01*
X413830Y144581D01*
X413965Y144380D01*
X414095Y144176D01*
X414220Y143970D01*
X414340Y143760D01*
X414455Y143547D01*
X414564Y143332D01*
X414669Y143114D01*
X414768Y142894D01*
X414862Y142671D01*
X414950Y142446D01*
X415033Y142219D01*
X415111Y141990D01*
X415182Y141759D01*
X415249Y141527D01*
X415309Y141293D01*
X415364Y141058D01*
X415414Y140821D01*
X415457Y140584D01*
X415495Y140345D01*
X415527Y140105D01*
X415553Y139865D01*
X415574Y139624D01*
X415588Y139383D01*
X415597Y139142D01*
X415600Y138900D01*
X415600Y38900D02*
X415597Y38658D01*
X415588Y38417D01*
X415574Y38176D01*
X415553Y37935D01*
X415527Y37695D01*
X415495Y37455D01*
X415457Y37216D01*
X415414Y36979D01*
X415364Y36742D01*
X415309Y36507D01*
X415249Y36273D01*
X415182Y36041D01*
X415111Y35810D01*
X415033Y35581D01*
X414950Y35354D01*
X414862Y35129D01*
X414768Y34906D01*
X414669Y34686D01*
X414564Y34468D01*
X414455Y34253D01*
X414340Y34040D01*
X414220Y33830D01*
X414095Y33624D01*
X413965Y33420D01*
X413830Y33219D01*
X413690Y33022D01*
X413546Y32828D01*
X413397Y32638D01*
X413243Y32452D01*
X413085Y32269D01*
X412923Y32090D01*
X412756Y31915D01*
X412585Y31744D01*
X412410Y31577D01*
X412231Y31415D01*
X412048Y31257D01*
X411862Y31103D01*
X411672Y30954D01*
X411478Y30810D01*
X411281Y30670D01*
X411080Y30535D01*
X410876Y30405D01*
X410670Y30280D01*
X410460Y30160D01*
X410247Y30045D01*
X410032Y29936D01*
X409814Y29831D01*
X409594Y29732D01*
X409371Y29638D01*
X409146Y29550D01*
X408919Y29467D01*
X408690Y29389D01*
X408459Y29318D01*
X408227Y29251D01*
X407993Y29191D01*
X407758Y29136D01*
X407521Y29086D01*
X407284Y29043D01*
X407045Y29005D01*
X406805Y28973D01*
X406565Y28947D01*
X406324Y28926D01*
X406083Y28912D01*
X405842Y28903D01*
X405600Y28900D01*
X305600Y28900D01*
X305358Y28903D01*
X305117Y28912D01*
X304876Y28926D01*
X304635Y28947D01*
X304395Y28973D01*
X304155Y29005D01*
X303916Y29043D01*
X303679Y29086D01*
X303442Y29136D01*
X303207Y29191D01*
X302973Y29251D01*
X302741Y29318D01*
X302510Y29389D01*
X302281Y29467D01*
X302054Y29550D01*
X301829Y29638D01*
X301606Y29732D01*
X301386Y29831D01*
X301168Y29936D01*
X300953Y30045D01*
X300740Y30160D01*
X300530Y30280D01*
X300324Y30405D01*
X300120Y30535D01*
X299919Y30670D01*
X299722Y30810D01*
X299528Y30954D01*
X299338Y31103D01*
X299152Y31257D01*
X298969Y31415D01*
X298790Y31577D01*
X298615Y31744D01*
X298444Y31915D01*
X298277Y32090D01*
X298115Y32269D01*
X297957Y32452D01*
X297803Y32638D01*
X297654Y32828D01*
X297510Y33022D01*
X297370Y33219D01*
X297235Y33420D01*
X297105Y33624D01*
X296980Y33830D01*
X296860Y34040D01*
X296745Y34253D01*
X296636Y34468D01*
X296531Y34686D01*
X296432Y34906D01*
X296338Y35129D01*
X296250Y35354D01*
X296167Y35581D01*
X296089Y35810D01*
X296018Y36041D01*
X295951Y36273D01*
X295891Y36507D01*
X295836Y36742D01*
X295786Y36979D01*
X295743Y37216D01*
X295705Y37455D01*
X295673Y37695D01*
X295647Y37935D01*
X295626Y38176D01*
X295612Y38417D01*
X295603Y38658D01*
X295600Y38900D01*
X320245Y88900D02*
X320256Y89768D01*
X320288Y90635D01*
X320341Y91501D01*
X320415Y92365D01*
X320511Y93228D01*
X320628Y94088D01*
X320766Y94944D01*
X320924Y95797D01*
X321104Y96646D01*
X321305Y97491D01*
X321526Y98330D01*
X321767Y99163D01*
X322029Y99990D01*
X322312Y100811D01*
X322614Y101624D01*
X322936Y102430D01*
X323278Y103227D01*
X323639Y104016D01*
X324020Y104796D01*
X324420Y105566D01*
X324838Y106326D01*
X325275Y107076D01*
X325730Y107815D01*
X326203Y108542D01*
X326694Y109258D01*
X327203Y109961D01*
X327728Y110652D01*
X328270Y111329D01*
X328829Y111993D01*
X329404Y112643D01*
X329994Y113279D01*
X330600Y113900D01*
X331221Y114506D01*
X331857Y115096D01*
X332507Y115671D01*
X333171Y116230D01*
X333848Y116772D01*
X334539Y117297D01*
X335242Y117806D01*
X335958Y118297D01*
X336685Y118770D01*
X337424Y119225D01*
X338174Y119662D01*
X338934Y120080D01*
X339704Y120480D01*
X340484Y120861D01*
X341273Y121222D01*
X342070Y121564D01*
X342876Y121886D01*
X343689Y122188D01*
X344510Y122471D01*
X345337Y122733D01*
X346170Y122974D01*
X347009Y123195D01*
X347854Y123396D01*
X348703Y123576D01*
X349556Y123734D01*
X350412Y123872D01*
X351272Y123989D01*
X352135Y124085D01*
X352999Y124159D01*
X353865Y124212D01*
X354732Y124244D01*
X355600Y124255D01*
X356468Y124244D01*
X357335Y124212D01*
X358201Y124159D01*
X359065Y124085D01*
X359928Y123989D01*
X360788Y123872D01*
X361644Y123734D01*
X362497Y123576D01*
X363346Y123396D01*
X364191Y123195D01*
X365030Y122974D01*
X365863Y122733D01*
X366690Y122471D01*
X367511Y122188D01*
X368324Y121886D01*
X369130Y121564D01*
X369927Y121222D01*
X370716Y120861D01*
X371496Y120480D01*
X372266Y120080D01*
X373026Y119662D01*
X373776Y119225D01*
X374515Y118770D01*
X375242Y118297D01*
X375958Y117806D01*
X376661Y117297D01*
X377352Y116772D01*
X378029Y116230D01*
X378693Y115671D01*
X379343Y115096D01*
X379979Y114506D01*
X380600Y113900D01*
X381206Y113279D01*
X381796Y112643D01*
X382371Y111993D01*
X382930Y111329D01*
X383472Y110652D01*
X383997Y109961D01*
X384506Y109258D01*
X384997Y108542D01*
X385470Y107815D01*
X385925Y107076D01*
X386362Y106326D01*
X386780Y105566D01*
X387180Y104796D01*
X387561Y104016D01*
X387922Y103227D01*
X388264Y102430D01*
X388586Y101624D01*
X388888Y100811D01*
X389171Y99990D01*
X389433Y99163D01*
X389674Y98330D01*
X389895Y97491D01*
X390096Y96646D01*
X390276Y95797D01*
X390434Y94944D01*
X390572Y94088D01*
X390689Y93228D01*
X390785Y92365D01*
X390859Y91501D01*
X390912Y90635D01*
X390944Y89768D01*
X390955Y88900D01*
X390944Y88032D01*
X390912Y87165D01*
X390859Y86299D01*
X390785Y85435D01*
X390689Y84572D01*
X390572Y83712D01*
X390434Y82856D01*
X390276Y82003D01*
X390096Y81154D01*
X389895Y80309D01*
X389674Y79470D01*
X389433Y78637D01*
X389171Y77810D01*
X388888Y76989D01*
X388586Y76176D01*
X388264Y75370D01*
X387922Y74573D01*
X387561Y73784D01*
X387180Y73004D01*
X386780Y72234D01*
X386362Y71474D01*
X385925Y70724D01*
X385470Y69985D01*
X384997Y69258D01*
X384506Y68542D01*
X383997Y67839D01*
X383472Y67148D01*
X382930Y66471D01*
X382371Y65807D01*
X381796Y65157D01*
X381206Y64521D01*
X380600Y63900D01*
X379979Y63294D01*
X379343Y62704D01*
X378693Y62129D01*
X378029Y61570D01*
X377352Y61028D01*
X376661Y60503D01*
X375958Y59994D01*
X375242Y59503D01*
X374515Y59030D01*
X373776Y58575D01*
X373026Y58138D01*
X372266Y57720D01*
X371496Y57320D01*
X370716Y56939D01*
X369927Y56578D01*
X369130Y56236D01*
X368324Y55914D01*
X367511Y55612D01*
X366690Y55329D01*
X365863Y55067D01*
X365030Y54826D01*
X364191Y54605D01*
X363346Y54404D01*
X362497Y54224D01*
X361644Y54066D01*
X360788Y53928D01*
X359928Y53811D01*
X359065Y53715D01*
X358201Y53641D01*
X357335Y53588D01*
X356468Y53556D01*
X355600Y53545D01*
X354732Y53556D01*
X353865Y53588D01*
X352999Y53641D01*
X352135Y53715D01*
X351272Y53811D01*
X350412Y53928D01*
X349556Y54066D01*
X348703Y54224D01*
X347854Y54404D01*
X347009Y54605D01*
X346170Y54826D01*
X345337Y55067D01*
X344510Y55329D01*
X343689Y55612D01*
X342876Y55914D01*
X342070Y56236D01*
X341273Y56578D01*
X340484Y56939D01*
X339704Y57320D01*
X338934Y57720D01*
X338174Y58138D01*
X337424Y58575D01*
X336685Y59030D01*
X335958Y59503D01*
X335242Y59994D01*
X334539Y60503D01*
X333848Y61028D01*
X333171Y61570D01*
X332507Y62129D01*
X331857Y62704D01*
X331221Y63294D01*
X330600Y63900D01*
X329994Y64521D01*
X329404Y65157D01*
X328829Y65807D01*
X328270Y66471D01*
X327728Y67148D01*
X327203Y67839D01*
X326694Y68542D01*
X326203Y69258D01*
X325730Y69985D01*
X325275Y70724D01*
X324838Y71474D01*
X324420Y72234D01*
X324020Y73004D01*
X323639Y73784D01*
X323278Y74573D01*
X322936Y75370D01*
X322614Y76176D01*
X322312Y76989D01*
X322029Y77810D01*
X321767Y78637D01*
X321526Y79470D01*
X321305Y80309D01*
X321104Y81154D01*
X320924Y82003D01*
X320766Y82856D01*
X320628Y83712D01*
X320511Y84572D01*
X320415Y85435D01*
X320341Y86299D01*
X320288Y87165D01*
X320256Y88032D01*
X320245Y88900D01*
X335600Y68900D02*
X375600Y68900D01*
X335600Y68900D02*
X335600Y108900D01*
X375600Y108900D01*
X375600Y68900D01*
X415600Y51400D02*
X415600Y38900D01*
X415600Y76400D02*
X415600Y101400D01*
X415600Y126400D02*
X415600Y138900D01*
X295600Y51400D02*
X295600Y38900D01*
X295600Y76400D02*
X295600Y101400D01*
X295600Y126400D02*
X295600Y138900D01*
D12*
X380365Y15804D02*
X380363Y15705D01*
X380357Y15605D01*
X380348Y15506D01*
X380335Y15408D01*
X380318Y15310D01*
X380297Y15212D01*
X380272Y15116D01*
X380244Y15021D01*
X380212Y14927D01*
X380177Y14834D01*
X380138Y14742D01*
X380095Y14652D01*
X380050Y14564D01*
X380000Y14477D01*
X379948Y14393D01*
X379892Y14310D01*
X379834Y14230D01*
X379772Y14152D01*
X379707Y14077D01*
X379639Y14004D01*
X379569Y13934D01*
X379496Y13866D01*
X379421Y13801D01*
X379343Y13739D01*
X379263Y13681D01*
X379180Y13625D01*
X379096Y13573D01*
X379009Y13523D01*
X378921Y13478D01*
X378831Y13435D01*
X378739Y13396D01*
X378646Y13361D01*
X378552Y13329D01*
X378457Y13301D01*
X378361Y13276D01*
X378263Y13255D01*
X378165Y13238D01*
X378067Y13225D01*
X377968Y13216D01*
X377868Y13210D01*
X377769Y13208D01*
X377625Y13210D01*
X377480Y13216D01*
X377336Y13225D01*
X377193Y13238D01*
X377049Y13255D01*
X376906Y13276D01*
X376764Y13301D01*
X376623Y13329D01*
X376482Y13361D01*
X376342Y13397D01*
X376203Y13436D01*
X376065Y13479D01*
X375929Y13526D01*
X375793Y13576D01*
X375659Y13630D01*
X375527Y13687D01*
X375396Y13748D01*
X375267Y13812D01*
X375139Y13880D01*
X375013Y13950D01*
X374889Y14025D01*
X374768Y14102D01*
X374648Y14183D01*
X374530Y14266D01*
X374415Y14353D01*
X374302Y14443D01*
X374191Y14536D01*
X374083Y14631D01*
X373977Y14730D01*
X373874Y14831D01*
X374199Y22296D02*
X374201Y22395D01*
X374207Y22495D01*
X374216Y22594D01*
X374229Y22692D01*
X374246Y22790D01*
X374267Y22888D01*
X374292Y22984D01*
X374320Y23079D01*
X374352Y23173D01*
X374387Y23266D01*
X374426Y23358D01*
X374469Y23448D01*
X374514Y23536D01*
X374564Y23623D01*
X374616Y23707D01*
X374672Y23790D01*
X374730Y23870D01*
X374792Y23948D01*
X374857Y24023D01*
X374925Y24096D01*
X374995Y24166D01*
X375068Y24234D01*
X375143Y24299D01*
X375221Y24361D01*
X375301Y24419D01*
X375384Y24475D01*
X375468Y24527D01*
X375555Y24577D01*
X375643Y24622D01*
X375733Y24665D01*
X375825Y24704D01*
X375918Y24739D01*
X376012Y24771D01*
X376107Y24799D01*
X376204Y24824D01*
X376301Y24845D01*
X376399Y24862D01*
X376497Y24875D01*
X376596Y24884D01*
X376696Y24890D01*
X376795Y24892D01*
X376931Y24890D01*
X377067Y24884D01*
X377203Y24875D01*
X377339Y24862D01*
X377474Y24844D01*
X377608Y24824D01*
X377742Y24799D01*
X377876Y24771D01*
X378008Y24738D01*
X378139Y24703D01*
X378270Y24663D01*
X378399Y24620D01*
X378527Y24574D01*
X378653Y24523D01*
X378779Y24470D01*
X378902Y24412D01*
X379024Y24352D01*
X379144Y24288D01*
X379263Y24220D01*
X379379Y24150D01*
X379493Y24076D01*
X379606Y23999D01*
X379716Y23918D01*
X375496Y20024D02*
X375410Y20077D01*
X375326Y20134D01*
X375244Y20193D01*
X375164Y20256D01*
X375087Y20322D01*
X375012Y20390D01*
X374940Y20462D01*
X374871Y20536D01*
X374805Y20613D01*
X374742Y20692D01*
X374682Y20774D01*
X374625Y20858D01*
X374571Y20944D01*
X374521Y21032D01*
X374474Y21122D01*
X374430Y21213D01*
X374391Y21307D01*
X374354Y21401D01*
X374322Y21497D01*
X374293Y21595D01*
X374268Y21693D01*
X374247Y21792D01*
X374229Y21892D01*
X374216Y21992D01*
X374206Y22093D01*
X374200Y22195D01*
X374198Y22296D01*
X379067Y18076D02*
X379153Y18023D01*
X379237Y17966D01*
X379319Y17907D01*
X379399Y17844D01*
X379476Y17778D01*
X379551Y17710D01*
X379623Y17638D01*
X379692Y17564D01*
X379758Y17487D01*
X379821Y17408D01*
X379881Y17326D01*
X379938Y17242D01*
X379992Y17156D01*
X380042Y17068D01*
X380089Y16978D01*
X380133Y16887D01*
X380172Y16793D01*
X380209Y16699D01*
X380241Y16603D01*
X380270Y16505D01*
X380295Y16407D01*
X380316Y16308D01*
X380334Y16208D01*
X380347Y16108D01*
X380357Y16007D01*
X380363Y15905D01*
X380365Y15804D01*
X379067Y18076D02*
X375497Y20024D01*
X384500Y24892D02*
X387096Y13208D01*
X389692Y20997D01*
X392289Y13208D01*
X394885Y24892D01*
X399401Y22296D02*
X402646Y24892D01*
X402646Y13208D01*
X399401Y13208D02*
X405892Y13208D01*
D13*
X486100Y138900D02*
X486103Y139142D01*
X486112Y139383D01*
X486126Y139624D01*
X486147Y139865D01*
X486173Y140105D01*
X486205Y140345D01*
X486243Y140584D01*
X486286Y140821D01*
X486336Y141058D01*
X486391Y141293D01*
X486451Y141527D01*
X486518Y141759D01*
X486589Y141990D01*
X486667Y142219D01*
X486750Y142446D01*
X486838Y142671D01*
X486932Y142894D01*
X487031Y143114D01*
X487136Y143332D01*
X487245Y143547D01*
X487360Y143760D01*
X487480Y143970D01*
X487605Y144176D01*
X487735Y144380D01*
X487870Y144581D01*
X488010Y144778D01*
X488154Y144972D01*
X488303Y145162D01*
X488457Y145348D01*
X488615Y145531D01*
X488777Y145710D01*
X488944Y145885D01*
X489115Y146056D01*
X489290Y146223D01*
X489469Y146385D01*
X489652Y146543D01*
X489838Y146697D01*
X490028Y146846D01*
X490222Y146990D01*
X490419Y147130D01*
X490620Y147265D01*
X490824Y147395D01*
X491030Y147520D01*
X491240Y147640D01*
X491453Y147755D01*
X491668Y147864D01*
X491886Y147969D01*
X492106Y148068D01*
X492329Y148162D01*
X492554Y148250D01*
X492781Y148333D01*
X493010Y148411D01*
X493241Y148482D01*
X493473Y148549D01*
X493707Y148609D01*
X493942Y148664D01*
X494179Y148714D01*
X494416Y148757D01*
X494655Y148795D01*
X494895Y148827D01*
X495135Y148853D01*
X495376Y148874D01*
X495617Y148888D01*
X495858Y148897D01*
X496100Y148900D01*
X596100Y148900D01*
X596342Y148897D01*
X596583Y148888D01*
X596824Y148874D01*
X597065Y148853D01*
X597305Y148827D01*
X597545Y148795D01*
X597784Y148757D01*
X598021Y148714D01*
X598258Y148664D01*
X598493Y148609D01*
X598727Y148549D01*
X598959Y148482D01*
X599190Y148411D01*
X599419Y148333D01*
X599646Y148250D01*
X599871Y148162D01*
X600094Y148068D01*
X600314Y147969D01*
X600532Y147864D01*
X600747Y147755D01*
X600960Y147640D01*
X601170Y147520D01*
X601376Y147395D01*
X601580Y147265D01*
X601781Y147130D01*
X601978Y146990D01*
X602172Y146846D01*
X602362Y146697D01*
X602548Y146543D01*
X602731Y146385D01*
X602910Y146223D01*
X603085Y146056D01*
X603256Y145885D01*
X603423Y145710D01*
X603585Y145531D01*
X603743Y145348D01*
X603897Y145162D01*
X604046Y144972D01*
X604190Y144778D01*
X604330Y144581D01*
X604465Y144380D01*
X604595Y144176D01*
X604720Y143970D01*
X604840Y143760D01*
X604955Y143547D01*
X605064Y143332D01*
X605169Y143114D01*
X605268Y142894D01*
X605362Y142671D01*
X605450Y142446D01*
X605533Y142219D01*
X605611Y141990D01*
X605682Y141759D01*
X605749Y141527D01*
X605809Y141293D01*
X605864Y141058D01*
X605914Y140821D01*
X605957Y140584D01*
X605995Y140345D01*
X606027Y140105D01*
X606053Y139865D01*
X606074Y139624D01*
X606088Y139383D01*
X606097Y139142D01*
X606100Y138900D01*
X606100Y38900D02*
X606097Y38658D01*
X606088Y38417D01*
X606074Y38176D01*
X606053Y37935D01*
X606027Y37695D01*
X605995Y37455D01*
X605957Y37216D01*
X605914Y36979D01*
X605864Y36742D01*
X605809Y36507D01*
X605749Y36273D01*
X605682Y36041D01*
X605611Y35810D01*
X605533Y35581D01*
X605450Y35354D01*
X605362Y35129D01*
X605268Y34906D01*
X605169Y34686D01*
X605064Y34468D01*
X604955Y34253D01*
X604840Y34040D01*
X604720Y33830D01*
X604595Y33624D01*
X604465Y33420D01*
X604330Y33219D01*
X604190Y33022D01*
X604046Y32828D01*
X603897Y32638D01*
X603743Y32452D01*
X603585Y32269D01*
X603423Y32090D01*
X603256Y31915D01*
X603085Y31744D01*
X602910Y31577D01*
X602731Y31415D01*
X602548Y31257D01*
X602362Y31103D01*
X602172Y30954D01*
X601978Y30810D01*
X601781Y30670D01*
X601580Y30535D01*
X601376Y30405D01*
X601170Y30280D01*
X600960Y30160D01*
X600747Y30045D01*
X600532Y29936D01*
X600314Y29831D01*
X600094Y29732D01*
X599871Y29638D01*
X599646Y29550D01*
X599419Y29467D01*
X599190Y29389D01*
X598959Y29318D01*
X598727Y29251D01*
X598493Y29191D01*
X598258Y29136D01*
X598021Y29086D01*
X597784Y29043D01*
X597545Y29005D01*
X597305Y28973D01*
X597065Y28947D01*
X596824Y28926D01*
X596583Y28912D01*
X596342Y28903D01*
X596100Y28900D01*
X496100Y28900D01*
X495858Y28903D01*
X495617Y28912D01*
X495376Y28926D01*
X495135Y28947D01*
X494895Y28973D01*
X494655Y29005D01*
X494416Y29043D01*
X494179Y29086D01*
X493942Y29136D01*
X493707Y29191D01*
X493473Y29251D01*
X493241Y29318D01*
X493010Y29389D01*
X492781Y29467D01*
X492554Y29550D01*
X492329Y29638D01*
X492106Y29732D01*
X491886Y29831D01*
X491668Y29936D01*
X491453Y30045D01*
X491240Y30160D01*
X491030Y30280D01*
X490824Y30405D01*
X490620Y30535D01*
X490419Y30670D01*
X490222Y30810D01*
X490028Y30954D01*
X489838Y31103D01*
X489652Y31257D01*
X489469Y31415D01*
X489290Y31577D01*
X489115Y31744D01*
X488944Y31915D01*
X488777Y32090D01*
X488615Y32269D01*
X488457Y32452D01*
X488303Y32638D01*
X488154Y32828D01*
X488010Y33022D01*
X487870Y33219D01*
X487735Y33420D01*
X487605Y33624D01*
X487480Y33830D01*
X487360Y34040D01*
X487245Y34253D01*
X487136Y34468D01*
X487031Y34686D01*
X486932Y34906D01*
X486838Y35129D01*
X486750Y35354D01*
X486667Y35581D01*
X486589Y35810D01*
X486518Y36041D01*
X486451Y36273D01*
X486391Y36507D01*
X486336Y36742D01*
X486286Y36979D01*
X486243Y37216D01*
X486205Y37455D01*
X486173Y37695D01*
X486147Y37935D01*
X486126Y38176D01*
X486112Y38417D01*
X486103Y38658D01*
X486100Y38900D01*
X510745Y88900D02*
X510756Y89768D01*
X510788Y90635D01*
X510841Y91501D01*
X510915Y92365D01*
X511011Y93228D01*
X511128Y94088D01*
X511266Y94944D01*
X511424Y95797D01*
X511604Y96646D01*
X511805Y97491D01*
X512026Y98330D01*
X512267Y99163D01*
X512529Y99990D01*
X512812Y100811D01*
X513114Y101624D01*
X513436Y102430D01*
X513778Y103227D01*
X514139Y104016D01*
X514520Y104796D01*
X514920Y105566D01*
X515338Y106326D01*
X515775Y107076D01*
X516230Y107815D01*
X516703Y108542D01*
X517194Y109258D01*
X517703Y109961D01*
X518228Y110652D01*
X518770Y111329D01*
X519329Y111993D01*
X519904Y112643D01*
X520494Y113279D01*
X521100Y113900D01*
X521721Y114506D01*
X522357Y115096D01*
X523007Y115671D01*
X523671Y116230D01*
X524348Y116772D01*
X525039Y117297D01*
X525742Y117806D01*
X526458Y118297D01*
X527185Y118770D01*
X527924Y119225D01*
X528674Y119662D01*
X529434Y120080D01*
X530204Y120480D01*
X530984Y120861D01*
X531773Y121222D01*
X532570Y121564D01*
X533376Y121886D01*
X534189Y122188D01*
X535010Y122471D01*
X535837Y122733D01*
X536670Y122974D01*
X537509Y123195D01*
X538354Y123396D01*
X539203Y123576D01*
X540056Y123734D01*
X540912Y123872D01*
X541772Y123989D01*
X542635Y124085D01*
X543499Y124159D01*
X544365Y124212D01*
X545232Y124244D01*
X546100Y124255D01*
X546968Y124244D01*
X547835Y124212D01*
X548701Y124159D01*
X549565Y124085D01*
X550428Y123989D01*
X551288Y123872D01*
X552144Y123734D01*
X552997Y123576D01*
X553846Y123396D01*
X554691Y123195D01*
X555530Y122974D01*
X556363Y122733D01*
X557190Y122471D01*
X558011Y122188D01*
X558824Y121886D01*
X559630Y121564D01*
X560427Y121222D01*
X561216Y120861D01*
X561996Y120480D01*
X562766Y120080D01*
X563526Y119662D01*
X564276Y119225D01*
X565015Y118770D01*
X565742Y118297D01*
X566458Y117806D01*
X567161Y117297D01*
X567852Y116772D01*
X568529Y116230D01*
X569193Y115671D01*
X569843Y115096D01*
X570479Y114506D01*
X571100Y113900D01*
X571706Y113279D01*
X572296Y112643D01*
X572871Y111993D01*
X573430Y111329D01*
X573972Y110652D01*
X574497Y109961D01*
X575006Y109258D01*
X575497Y108542D01*
X575970Y107815D01*
X576425Y107076D01*
X576862Y106326D01*
X577280Y105566D01*
X577680Y104796D01*
X578061Y104016D01*
X578422Y103227D01*
X578764Y102430D01*
X579086Y101624D01*
X579388Y100811D01*
X579671Y99990D01*
X579933Y99163D01*
X580174Y98330D01*
X580395Y97491D01*
X580596Y96646D01*
X580776Y95797D01*
X580934Y94944D01*
X581072Y94088D01*
X581189Y93228D01*
X581285Y92365D01*
X581359Y91501D01*
X581412Y90635D01*
X581444Y89768D01*
X581455Y88900D01*
X581444Y88032D01*
X581412Y87165D01*
X581359Y86299D01*
X581285Y85435D01*
X581189Y84572D01*
X581072Y83712D01*
X580934Y82856D01*
X580776Y82003D01*
X580596Y81154D01*
X580395Y80309D01*
X580174Y79470D01*
X579933Y78637D01*
X579671Y77810D01*
X579388Y76989D01*
X579086Y76176D01*
X578764Y75370D01*
X578422Y74573D01*
X578061Y73784D01*
X577680Y73004D01*
X577280Y72234D01*
X576862Y71474D01*
X576425Y70724D01*
X575970Y69985D01*
X575497Y69258D01*
X575006Y68542D01*
X574497Y67839D01*
X573972Y67148D01*
X573430Y66471D01*
X572871Y65807D01*
X572296Y65157D01*
X571706Y64521D01*
X571100Y63900D01*
X570479Y63294D01*
X569843Y62704D01*
X569193Y62129D01*
X568529Y61570D01*
X567852Y61028D01*
X567161Y60503D01*
X566458Y59994D01*
X565742Y59503D01*
X565015Y59030D01*
X564276Y58575D01*
X563526Y58138D01*
X562766Y57720D01*
X561996Y57320D01*
X561216Y56939D01*
X560427Y56578D01*
X559630Y56236D01*
X558824Y55914D01*
X558011Y55612D01*
X557190Y55329D01*
X556363Y55067D01*
X555530Y54826D01*
X554691Y54605D01*
X553846Y54404D01*
X552997Y54224D01*
X552144Y54066D01*
X551288Y53928D01*
X550428Y53811D01*
X549565Y53715D01*
X548701Y53641D01*
X547835Y53588D01*
X546968Y53556D01*
X546100Y53545D01*
X545232Y53556D01*
X544365Y53588D01*
X543499Y53641D01*
X542635Y53715D01*
X541772Y53811D01*
X540912Y53928D01*
X540056Y54066D01*
X539203Y54224D01*
X538354Y54404D01*
X537509Y54605D01*
X536670Y54826D01*
X535837Y55067D01*
X535010Y55329D01*
X534189Y55612D01*
X533376Y55914D01*
X532570Y56236D01*
X531773Y56578D01*
X530984Y56939D01*
X530204Y57320D01*
X529434Y57720D01*
X528674Y58138D01*
X527924Y58575D01*
X527185Y59030D01*
X526458Y59503D01*
X525742Y59994D01*
X525039Y60503D01*
X524348Y61028D01*
X523671Y61570D01*
X523007Y62129D01*
X522357Y62704D01*
X521721Y63294D01*
X521100Y63900D01*
X520494Y64521D01*
X519904Y65157D01*
X519329Y65807D01*
X518770Y66471D01*
X518228Y67148D01*
X517703Y67839D01*
X517194Y68542D01*
X516703Y69258D01*
X516230Y69985D01*
X515775Y70724D01*
X515338Y71474D01*
X514920Y72234D01*
X514520Y73004D01*
X514139Y73784D01*
X513778Y74573D01*
X513436Y75370D01*
X513114Y76176D01*
X512812Y76989D01*
X512529Y77810D01*
X512267Y78637D01*
X512026Y79470D01*
X511805Y80309D01*
X511604Y81154D01*
X511424Y82003D01*
X511266Y82856D01*
X511128Y83712D01*
X511011Y84572D01*
X510915Y85435D01*
X510841Y86299D01*
X510788Y87165D01*
X510756Y88032D01*
X510745Y88900D01*
X526100Y68900D02*
X566100Y68900D01*
X526100Y68900D02*
X526100Y108900D01*
X566100Y108900D01*
X566100Y68900D01*
X606100Y51400D02*
X606100Y38900D01*
X606100Y76400D02*
X606100Y101400D01*
X606100Y126400D02*
X606100Y138900D01*
X486100Y51400D02*
X486100Y38900D01*
X486100Y76400D02*
X486100Y101400D01*
X486100Y126400D02*
X486100Y138900D01*
D12*
X570865Y15804D02*
X570863Y15705D01*
X570857Y15605D01*
X570848Y15506D01*
X570835Y15408D01*
X570818Y15310D01*
X570797Y15212D01*
X570772Y15116D01*
X570744Y15021D01*
X570712Y14927D01*
X570677Y14834D01*
X570638Y14742D01*
X570595Y14652D01*
X570550Y14564D01*
X570500Y14477D01*
X570448Y14393D01*
X570392Y14310D01*
X570334Y14230D01*
X570272Y14152D01*
X570207Y14077D01*
X570139Y14004D01*
X570069Y13934D01*
X569996Y13866D01*
X569921Y13801D01*
X569843Y13739D01*
X569763Y13681D01*
X569680Y13625D01*
X569596Y13573D01*
X569509Y13523D01*
X569421Y13478D01*
X569331Y13435D01*
X569239Y13396D01*
X569146Y13361D01*
X569052Y13329D01*
X568957Y13301D01*
X568861Y13276D01*
X568763Y13255D01*
X568665Y13238D01*
X568567Y13225D01*
X568468Y13216D01*
X568368Y13210D01*
X568269Y13208D01*
X568125Y13210D01*
X567980Y13216D01*
X567836Y13225D01*
X567693Y13238D01*
X567549Y13255D01*
X567406Y13276D01*
X567264Y13301D01*
X567123Y13329D01*
X566982Y13361D01*
X566842Y13397D01*
X566703Y13436D01*
X566565Y13479D01*
X566429Y13526D01*
X566293Y13576D01*
X566159Y13630D01*
X566027Y13687D01*
X565896Y13748D01*
X565767Y13812D01*
X565639Y13880D01*
X565513Y13950D01*
X565389Y14025D01*
X565268Y14102D01*
X565148Y14183D01*
X565030Y14266D01*
X564915Y14353D01*
X564802Y14443D01*
X564691Y14536D01*
X564583Y14631D01*
X564477Y14730D01*
X564374Y14831D01*
X564699Y22296D02*
X564701Y22395D01*
X564707Y22495D01*
X564716Y22594D01*
X564729Y22692D01*
X564746Y22790D01*
X564767Y22888D01*
X564792Y22984D01*
X564820Y23079D01*
X564852Y23173D01*
X564887Y23266D01*
X564926Y23358D01*
X564969Y23448D01*
X565014Y23536D01*
X565064Y23623D01*
X565116Y23707D01*
X565172Y23790D01*
X565230Y23870D01*
X565292Y23948D01*
X565357Y24023D01*
X565425Y24096D01*
X565495Y24166D01*
X565568Y24234D01*
X565643Y24299D01*
X565721Y24361D01*
X565801Y24419D01*
X565884Y24475D01*
X565968Y24527D01*
X566055Y24577D01*
X566143Y24622D01*
X566233Y24665D01*
X566325Y24704D01*
X566418Y24739D01*
X566512Y24771D01*
X566607Y24799D01*
X566704Y24824D01*
X566801Y24845D01*
X566899Y24862D01*
X566997Y24875D01*
X567096Y24884D01*
X567196Y24890D01*
X567295Y24892D01*
X567431Y24890D01*
X567567Y24884D01*
X567703Y24875D01*
X567839Y24862D01*
X567974Y24844D01*
X568108Y24824D01*
X568242Y24799D01*
X568376Y24771D01*
X568508Y24738D01*
X568639Y24703D01*
X568770Y24663D01*
X568899Y24620D01*
X569027Y24574D01*
X569153Y24523D01*
X569279Y24470D01*
X569402Y24412D01*
X569524Y24352D01*
X569644Y24288D01*
X569763Y24220D01*
X569879Y24150D01*
X569993Y24076D01*
X570106Y23999D01*
X570216Y23918D01*
X565996Y20024D02*
X565910Y20077D01*
X565826Y20134D01*
X565744Y20193D01*
X565664Y20256D01*
X565587Y20322D01*
X565512Y20390D01*
X565440Y20462D01*
X565371Y20536D01*
X565305Y20613D01*
X565242Y20692D01*
X565182Y20774D01*
X565125Y20858D01*
X565071Y20944D01*
X565021Y21032D01*
X564974Y21122D01*
X564930Y21213D01*
X564891Y21307D01*
X564854Y21401D01*
X564822Y21497D01*
X564793Y21595D01*
X564768Y21693D01*
X564747Y21792D01*
X564729Y21892D01*
X564716Y21992D01*
X564706Y22093D01*
X564700Y22195D01*
X564698Y22296D01*
X569567Y18076D02*
X569653Y18023D01*
X569737Y17966D01*
X569819Y17907D01*
X569899Y17844D01*
X569976Y17778D01*
X570051Y17710D01*
X570123Y17638D01*
X570192Y17564D01*
X570258Y17487D01*
X570321Y17408D01*
X570381Y17326D01*
X570438Y17242D01*
X570492Y17156D01*
X570542Y17068D01*
X570589Y16978D01*
X570633Y16887D01*
X570672Y16793D01*
X570709Y16699D01*
X570741Y16603D01*
X570770Y16505D01*
X570795Y16407D01*
X570816Y16308D01*
X570834Y16208D01*
X570847Y16108D01*
X570857Y16007D01*
X570863Y15905D01*
X570865Y15804D01*
X569567Y18076D02*
X565997Y20024D01*
X575000Y24892D02*
X577596Y13208D01*
X580192Y20997D01*
X582789Y13208D01*
X585385Y24892D01*
X593471Y24892D02*
X593578Y24890D01*
X593684Y24884D01*
X593790Y24874D01*
X593896Y24861D01*
X594002Y24843D01*
X594106Y24822D01*
X594210Y24797D01*
X594313Y24768D01*
X594414Y24736D01*
X594514Y24699D01*
X594613Y24659D01*
X594711Y24616D01*
X594807Y24569D01*
X594901Y24518D01*
X594993Y24464D01*
X595083Y24407D01*
X595171Y24347D01*
X595256Y24283D01*
X595339Y24216D01*
X595420Y24146D01*
X595498Y24074D01*
X595574Y23998D01*
X595646Y23920D01*
X595716Y23839D01*
X595783Y23756D01*
X595847Y23671D01*
X595907Y23583D01*
X595964Y23493D01*
X596018Y23401D01*
X596069Y23307D01*
X596116Y23211D01*
X596159Y23113D01*
X596199Y23014D01*
X596236Y22914D01*
X596268Y22813D01*
X596297Y22710D01*
X596322Y22606D01*
X596343Y22502D01*
X596361Y22396D01*
X596374Y22290D01*
X596384Y22184D01*
X596390Y22078D01*
X596392Y21971D01*
X593471Y24892D02*
X593350Y24890D01*
X593229Y24884D01*
X593109Y24874D01*
X592988Y24861D01*
X592869Y24843D01*
X592749Y24822D01*
X592631Y24797D01*
X592514Y24768D01*
X592397Y24735D01*
X592282Y24699D01*
X592168Y24658D01*
X592055Y24615D01*
X591943Y24567D01*
X591834Y24516D01*
X591726Y24461D01*
X591619Y24403D01*
X591515Y24342D01*
X591413Y24277D01*
X591313Y24209D01*
X591215Y24138D01*
X591119Y24064D01*
X591026Y23987D01*
X590936Y23906D01*
X590848Y23823D01*
X590763Y23737D01*
X590680Y23648D01*
X590601Y23557D01*
X590524Y23463D01*
X590451Y23367D01*
X590381Y23269D01*
X590314Y23168D01*
X590250Y23065D01*
X590190Y22960D01*
X590133Y22853D01*
X590079Y22745D01*
X590029Y22635D01*
X589983Y22523D01*
X589940Y22410D01*
X589901Y22295D01*
X595419Y19699D02*
X595498Y19776D01*
X595574Y19857D01*
X595647Y19940D01*
X595717Y20025D01*
X595784Y20113D01*
X595848Y20203D01*
X595908Y20295D01*
X595965Y20390D01*
X596019Y20486D01*
X596070Y20584D01*
X596117Y20684D01*
X596161Y20786D01*
X596201Y20889D01*
X596237Y20993D01*
X596269Y21099D01*
X596298Y21205D01*
X596323Y21313D01*
X596345Y21421D01*
X596362Y21531D01*
X596376Y21640D01*
X596385Y21750D01*
X596391Y21861D01*
X596393Y21971D01*
X595418Y19699D02*
X589901Y13208D01*
X596392Y13208D01*
D13*
X676600Y138900D02*
X676603Y139142D01*
X676612Y139383D01*
X676626Y139624D01*
X676647Y139865D01*
X676673Y140105D01*
X676705Y140345D01*
X676743Y140584D01*
X676786Y140821D01*
X676836Y141058D01*
X676891Y141293D01*
X676951Y141527D01*
X677018Y141759D01*
X677089Y141990D01*
X677167Y142219D01*
X677250Y142446D01*
X677338Y142671D01*
X677432Y142894D01*
X677531Y143114D01*
X677636Y143332D01*
X677745Y143547D01*
X677860Y143760D01*
X677980Y143970D01*
X678105Y144176D01*
X678235Y144380D01*
X678370Y144581D01*
X678510Y144778D01*
X678654Y144972D01*
X678803Y145162D01*
X678957Y145348D01*
X679115Y145531D01*
X679277Y145710D01*
X679444Y145885D01*
X679615Y146056D01*
X679790Y146223D01*
X679969Y146385D01*
X680152Y146543D01*
X680338Y146697D01*
X680528Y146846D01*
X680722Y146990D01*
X680919Y147130D01*
X681120Y147265D01*
X681324Y147395D01*
X681530Y147520D01*
X681740Y147640D01*
X681953Y147755D01*
X682168Y147864D01*
X682386Y147969D01*
X682606Y148068D01*
X682829Y148162D01*
X683054Y148250D01*
X683281Y148333D01*
X683510Y148411D01*
X683741Y148482D01*
X683973Y148549D01*
X684207Y148609D01*
X684442Y148664D01*
X684679Y148714D01*
X684916Y148757D01*
X685155Y148795D01*
X685395Y148827D01*
X685635Y148853D01*
X685876Y148874D01*
X686117Y148888D01*
X686358Y148897D01*
X686600Y148900D01*
X786600Y148900D01*
X786842Y148897D01*
X787083Y148888D01*
X787324Y148874D01*
X787565Y148853D01*
X787805Y148827D01*
X788045Y148795D01*
X788284Y148757D01*
X788521Y148714D01*
X788758Y148664D01*
X788993Y148609D01*
X789227Y148549D01*
X789459Y148482D01*
X789690Y148411D01*
X789919Y148333D01*
X790146Y148250D01*
X790371Y148162D01*
X790594Y148068D01*
X790814Y147969D01*
X791032Y147864D01*
X791247Y147755D01*
X791460Y147640D01*
X791670Y147520D01*
X791876Y147395D01*
X792080Y147265D01*
X792281Y147130D01*
X792478Y146990D01*
X792672Y146846D01*
X792862Y146697D01*
X793048Y146543D01*
X793231Y146385D01*
X793410Y146223D01*
X793585Y146056D01*
X793756Y145885D01*
X793923Y145710D01*
X794085Y145531D01*
X794243Y145348D01*
X794397Y145162D01*
X794546Y144972D01*
X794690Y144778D01*
X794830Y144581D01*
X794965Y144380D01*
X795095Y144176D01*
X795220Y143970D01*
X795340Y143760D01*
X795455Y143547D01*
X795564Y143332D01*
X795669Y143114D01*
X795768Y142894D01*
X795862Y142671D01*
X795950Y142446D01*
X796033Y142219D01*
X796111Y141990D01*
X796182Y141759D01*
X796249Y141527D01*
X796309Y141293D01*
X796364Y141058D01*
X796414Y140821D01*
X796457Y140584D01*
X796495Y140345D01*
X796527Y140105D01*
X796553Y139865D01*
X796574Y139624D01*
X796588Y139383D01*
X796597Y139142D01*
X796600Y138900D01*
X796600Y38900D02*
X796597Y38658D01*
X796588Y38417D01*
X796574Y38176D01*
X796553Y37935D01*
X796527Y37695D01*
X796495Y37455D01*
X796457Y37216D01*
X796414Y36979D01*
X796364Y36742D01*
X796309Y36507D01*
X796249Y36273D01*
X796182Y36041D01*
X796111Y35810D01*
X796033Y35581D01*
X795950Y35354D01*
X795862Y35129D01*
X795768Y34906D01*
X795669Y34686D01*
X795564Y34468D01*
X795455Y34253D01*
X795340Y34040D01*
X795220Y33830D01*
X795095Y33624D01*
X794965Y33420D01*
X794830Y33219D01*
X794690Y33022D01*
X794546Y32828D01*
X794397Y32638D01*
X794243Y32452D01*
X794085Y32269D01*
X793923Y32090D01*
X793756Y31915D01*
X793585Y31744D01*
X793410Y31577D01*
X793231Y31415D01*
X793048Y31257D01*
X792862Y31103D01*
X792672Y30954D01*
X792478Y30810D01*
X792281Y30670D01*
X792080Y30535D01*
X791876Y30405D01*
X791670Y30280D01*
X791460Y30160D01*
X791247Y30045D01*
X791032Y29936D01*
X790814Y29831D01*
X790594Y29732D01*
X790371Y29638D01*
X790146Y29550D01*
X789919Y29467D01*
X789690Y29389D01*
X789459Y29318D01*
X789227Y29251D01*
X788993Y29191D01*
X788758Y29136D01*
X788521Y29086D01*
X788284Y29043D01*
X788045Y29005D01*
X787805Y28973D01*
X787565Y28947D01*
X787324Y28926D01*
X787083Y28912D01*
X786842Y28903D01*
X786600Y28900D01*
X686600Y28900D01*
X686358Y28903D01*
X686117Y28912D01*
X685876Y28926D01*
X685635Y28947D01*
X685395Y28973D01*
X685155Y29005D01*
X684916Y29043D01*
X684679Y29086D01*
X684442Y29136D01*
X684207Y29191D01*
X683973Y29251D01*
X683741Y29318D01*
X683510Y29389D01*
X683281Y29467D01*
X683054Y29550D01*
X682829Y29638D01*
X682606Y29732D01*
X682386Y29831D01*
X682168Y29936D01*
X681953Y30045D01*
X681740Y30160D01*
X681530Y30280D01*
X681324Y30405D01*
X681120Y30535D01*
X680919Y30670D01*
X680722Y30810D01*
X680528Y30954D01*
X680338Y31103D01*
X680152Y31257D01*
X679969Y31415D01*
X679790Y31577D01*
X679615Y31744D01*
X679444Y31915D01*
X679277Y32090D01*
X679115Y32269D01*
X678957Y32452D01*
X678803Y32638D01*
X678654Y32828D01*
X678510Y33022D01*
X678370Y33219D01*
X678235Y33420D01*
X678105Y33624D01*
X677980Y33830D01*
X677860Y34040D01*
X677745Y34253D01*
X677636Y34468D01*
X677531Y34686D01*
X677432Y34906D01*
X677338Y35129D01*
X677250Y35354D01*
X677167Y35581D01*
X677089Y35810D01*
X677018Y36041D01*
X676951Y36273D01*
X676891Y36507D01*
X676836Y36742D01*
X676786Y36979D01*
X676743Y37216D01*
X676705Y37455D01*
X676673Y37695D01*
X676647Y37935D01*
X676626Y38176D01*
X676612Y38417D01*
X676603Y38658D01*
X676600Y38900D01*
X701245Y88900D02*
X701256Y89768D01*
X701288Y90635D01*
X701341Y91501D01*
X701415Y92365D01*
X701511Y93228D01*
X701628Y94088D01*
X701766Y94944D01*
X701924Y95797D01*
X702104Y96646D01*
X702305Y97491D01*
X702526Y98330D01*
X702767Y99163D01*
X703029Y99990D01*
X703312Y100811D01*
X703614Y101624D01*
X703936Y102430D01*
X704278Y103227D01*
X704639Y104016D01*
X705020Y104796D01*
X705420Y105566D01*
X705838Y106326D01*
X706275Y107076D01*
X706730Y107815D01*
X707203Y108542D01*
X707694Y109258D01*
X708203Y109961D01*
X708728Y110652D01*
X709270Y111329D01*
X709829Y111993D01*
X710404Y112643D01*
X710994Y113279D01*
X711600Y113900D01*
X712221Y114506D01*
X712857Y115096D01*
X713507Y115671D01*
X714171Y116230D01*
X714848Y116772D01*
X715539Y117297D01*
X716242Y117806D01*
X716958Y118297D01*
X717685Y118770D01*
X718424Y119225D01*
X719174Y119662D01*
X719934Y120080D01*
X720704Y120480D01*
X721484Y120861D01*
X722273Y121222D01*
X723070Y121564D01*
X723876Y121886D01*
X724689Y122188D01*
X725510Y122471D01*
X726337Y122733D01*
X727170Y122974D01*
X728009Y123195D01*
X728854Y123396D01*
X729703Y123576D01*
X730556Y123734D01*
X731412Y123872D01*
X732272Y123989D01*
X733135Y124085D01*
X733999Y124159D01*
X734865Y124212D01*
X735732Y124244D01*
X736600Y124255D01*
X737468Y124244D01*
X738335Y124212D01*
X739201Y124159D01*
X740065Y124085D01*
X740928Y123989D01*
X741788Y123872D01*
X742644Y123734D01*
X743497Y123576D01*
X744346Y123396D01*
X745191Y123195D01*
X746030Y122974D01*
X746863Y122733D01*
X747690Y122471D01*
X748511Y122188D01*
X749324Y121886D01*
X750130Y121564D01*
X750927Y121222D01*
X751716Y120861D01*
X752496Y120480D01*
X753266Y120080D01*
X754026Y119662D01*
X754776Y119225D01*
X755515Y118770D01*
X756242Y118297D01*
X756958Y117806D01*
X757661Y117297D01*
X758352Y116772D01*
X759029Y116230D01*
X759693Y115671D01*
X760343Y115096D01*
X760979Y114506D01*
X761600Y113900D01*
X762206Y113279D01*
X762796Y112643D01*
X763371Y111993D01*
X763930Y111329D01*
X764472Y110652D01*
X764997Y109961D01*
X765506Y109258D01*
X765997Y108542D01*
X766470Y107815D01*
X766925Y107076D01*
X767362Y106326D01*
X767780Y105566D01*
X768180Y104796D01*
X768561Y104016D01*
X768922Y103227D01*
X769264Y102430D01*
X769586Y101624D01*
X769888Y100811D01*
X770171Y99990D01*
X770433Y99163D01*
X770674Y98330D01*
X770895Y97491D01*
X771096Y96646D01*
X771276Y95797D01*
X771434Y94944D01*
X771572Y94088D01*
X771689Y93228D01*
X771785Y92365D01*
X771859Y91501D01*
X771912Y90635D01*
X771944Y89768D01*
X771955Y88900D01*
X771944Y88032D01*
X771912Y87165D01*
X771859Y86299D01*
X771785Y85435D01*
X771689Y84572D01*
X771572Y83712D01*
X771434Y82856D01*
X771276Y82003D01*
X771096Y81154D01*
X770895Y80309D01*
X770674Y79470D01*
X770433Y78637D01*
X770171Y77810D01*
X769888Y76989D01*
X769586Y76176D01*
X769264Y75370D01*
X768922Y74573D01*
X768561Y73784D01*
X768180Y73004D01*
X767780Y72234D01*
X767362Y71474D01*
X766925Y70724D01*
X766470Y69985D01*
X765997Y69258D01*
X765506Y68542D01*
X764997Y67839D01*
X764472Y67148D01*
X763930Y66471D01*
X763371Y65807D01*
X762796Y65157D01*
X762206Y64521D01*
X761600Y63900D01*
X760979Y63294D01*
X760343Y62704D01*
X759693Y62129D01*
X759029Y61570D01*
X758352Y61028D01*
X757661Y60503D01*
X756958Y59994D01*
X756242Y59503D01*
X755515Y59030D01*
X754776Y58575D01*
X754026Y58138D01*
X753266Y57720D01*
X752496Y57320D01*
X751716Y56939D01*
X750927Y56578D01*
X750130Y56236D01*
X749324Y55914D01*
X748511Y55612D01*
X747690Y55329D01*
X746863Y55067D01*
X746030Y54826D01*
X745191Y54605D01*
X744346Y54404D01*
X743497Y54224D01*
X742644Y54066D01*
X741788Y53928D01*
X740928Y53811D01*
X740065Y53715D01*
X739201Y53641D01*
X738335Y53588D01*
X737468Y53556D01*
X736600Y53545D01*
X735732Y53556D01*
X734865Y53588D01*
X733999Y53641D01*
X733135Y53715D01*
X732272Y53811D01*
X731412Y53928D01*
X730556Y54066D01*
X729703Y54224D01*
X728854Y54404D01*
X728009Y54605D01*
X727170Y54826D01*
X726337Y55067D01*
X725510Y55329D01*
X724689Y55612D01*
X723876Y55914D01*
X723070Y56236D01*
X722273Y56578D01*
X721484Y56939D01*
X720704Y57320D01*
X719934Y57720D01*
X719174Y58138D01*
X718424Y58575D01*
X717685Y59030D01*
X716958Y59503D01*
X716242Y59994D01*
X715539Y60503D01*
X714848Y61028D01*
X714171Y61570D01*
X713507Y62129D01*
X712857Y62704D01*
X712221Y63294D01*
X711600Y63900D01*
X710994Y64521D01*
X710404Y65157D01*
X709829Y65807D01*
X709270Y66471D01*
X708728Y67148D01*
X708203Y67839D01*
X707694Y68542D01*
X707203Y69258D01*
X706730Y69985D01*
X706275Y70724D01*
X705838Y71474D01*
X705420Y72234D01*
X705020Y73004D01*
X704639Y73784D01*
X704278Y74573D01*
X703936Y75370D01*
X703614Y76176D01*
X703312Y76989D01*
X703029Y77810D01*
X702767Y78637D01*
X702526Y79470D01*
X702305Y80309D01*
X702104Y81154D01*
X701924Y82003D01*
X701766Y82856D01*
X701628Y83712D01*
X701511Y84572D01*
X701415Y85435D01*
X701341Y86299D01*
X701288Y87165D01*
X701256Y88032D01*
X701245Y88900D01*
X716600Y68900D02*
X756600Y68900D01*
X716600Y68900D02*
X716600Y108900D01*
X756600Y108900D01*
X756600Y68900D01*
X796600Y51400D02*
X796600Y38900D01*
X796600Y76400D02*
X796600Y101400D01*
X796600Y126400D02*
X796600Y138900D01*
X676600Y51400D02*
X676600Y38900D01*
X676600Y76400D02*
X676600Y101400D01*
X676600Y126400D02*
X676600Y138900D01*
D12*
X761365Y15804D02*
X761363Y15705D01*
X761357Y15605D01*
X761348Y15506D01*
X761335Y15408D01*
X761318Y15310D01*
X761297Y15212D01*
X761272Y15116D01*
X761244Y15021D01*
X761212Y14927D01*
X761177Y14834D01*
X761138Y14742D01*
X761095Y14652D01*
X761050Y14564D01*
X761000Y14477D01*
X760948Y14393D01*
X760892Y14310D01*
X760834Y14230D01*
X760772Y14152D01*
X760707Y14077D01*
X760639Y14004D01*
X760569Y13934D01*
X760496Y13866D01*
X760421Y13801D01*
X760343Y13739D01*
X760263Y13681D01*
X760180Y13625D01*
X760096Y13573D01*
X760009Y13523D01*
X759921Y13478D01*
X759831Y13435D01*
X759739Y13396D01*
X759646Y13361D01*
X759552Y13329D01*
X759457Y13301D01*
X759361Y13276D01*
X759263Y13255D01*
X759165Y13238D01*
X759067Y13225D01*
X758968Y13216D01*
X758868Y13210D01*
X758769Y13208D01*
X758625Y13210D01*
X758480Y13216D01*
X758336Y13225D01*
X758193Y13238D01*
X758049Y13255D01*
X757906Y13276D01*
X757764Y13301D01*
X757623Y13329D01*
X757482Y13361D01*
X757342Y13397D01*
X757203Y13436D01*
X757065Y13479D01*
X756929Y13526D01*
X756793Y13576D01*
X756659Y13630D01*
X756527Y13687D01*
X756396Y13748D01*
X756267Y13812D01*
X756139Y13880D01*
X756013Y13950D01*
X755889Y14025D01*
X755768Y14102D01*
X755648Y14183D01*
X755530Y14266D01*
X755415Y14353D01*
X755302Y14443D01*
X755191Y14536D01*
X755083Y14631D01*
X754977Y14730D01*
X754874Y14831D01*
X755199Y22296D02*
X755201Y22395D01*
X755207Y22495D01*
X755216Y22594D01*
X755229Y22692D01*
X755246Y22790D01*
X755267Y22888D01*
X755292Y22984D01*
X755320Y23079D01*
X755352Y23173D01*
X755387Y23266D01*
X755426Y23358D01*
X755469Y23448D01*
X755514Y23536D01*
X755564Y23623D01*
X755616Y23707D01*
X755672Y23790D01*
X755730Y23870D01*
X755792Y23948D01*
X755857Y24023D01*
X755925Y24096D01*
X755995Y24166D01*
X756068Y24234D01*
X756143Y24299D01*
X756221Y24361D01*
X756301Y24419D01*
X756384Y24475D01*
X756468Y24527D01*
X756555Y24577D01*
X756643Y24622D01*
X756733Y24665D01*
X756825Y24704D01*
X756918Y24739D01*
X757012Y24771D01*
X757107Y24799D01*
X757204Y24824D01*
X757301Y24845D01*
X757399Y24862D01*
X757497Y24875D01*
X757596Y24884D01*
X757696Y24890D01*
X757795Y24892D01*
X757931Y24890D01*
X758067Y24884D01*
X758203Y24875D01*
X758339Y24862D01*
X758474Y24844D01*
X758608Y24824D01*
X758742Y24799D01*
X758876Y24771D01*
X759008Y24738D01*
X759139Y24703D01*
X759270Y24663D01*
X759399Y24620D01*
X759527Y24574D01*
X759653Y24523D01*
X759779Y24470D01*
X759902Y24412D01*
X760024Y24352D01*
X760144Y24288D01*
X760263Y24220D01*
X760379Y24150D01*
X760493Y24076D01*
X760606Y23999D01*
X760716Y23918D01*
X756496Y20024D02*
X756410Y20077D01*
X756326Y20134D01*
X756244Y20193D01*
X756164Y20256D01*
X756087Y20322D01*
X756012Y20390D01*
X755940Y20462D01*
X755871Y20536D01*
X755805Y20613D01*
X755742Y20692D01*
X755682Y20774D01*
X755625Y20858D01*
X755571Y20944D01*
X755521Y21032D01*
X755474Y21122D01*
X755430Y21213D01*
X755391Y21307D01*
X755354Y21401D01*
X755322Y21497D01*
X755293Y21595D01*
X755268Y21693D01*
X755247Y21792D01*
X755229Y21892D01*
X755216Y21992D01*
X755206Y22093D01*
X755200Y22195D01*
X755198Y22296D01*
X760067Y18076D02*
X760153Y18023D01*
X760237Y17966D01*
X760319Y17907D01*
X760399Y17844D01*
X760476Y17778D01*
X760551Y17710D01*
X760623Y17638D01*
X760692Y17564D01*
X760758Y17487D01*
X760821Y17408D01*
X760881Y17326D01*
X760938Y17242D01*
X760992Y17156D01*
X761042Y17068D01*
X761089Y16978D01*
X761133Y16887D01*
X761172Y16793D01*
X761209Y16699D01*
X761241Y16603D01*
X761270Y16505D01*
X761295Y16407D01*
X761316Y16308D01*
X761334Y16208D01*
X761347Y16108D01*
X761357Y16007D01*
X761363Y15905D01*
X761365Y15804D01*
X760067Y18076D02*
X756497Y20024D01*
X765500Y24892D02*
X768096Y13208D01*
X770692Y20997D01*
X773289Y13208D01*
X775885Y24892D01*
X780401Y13208D02*
X783646Y13208D01*
X783759Y13210D01*
X783872Y13216D01*
X783985Y13226D01*
X784098Y13240D01*
X784210Y13257D01*
X784321Y13279D01*
X784431Y13304D01*
X784541Y13334D01*
X784649Y13367D01*
X784756Y13404D01*
X784862Y13444D01*
X784966Y13489D01*
X785069Y13537D01*
X785170Y13588D01*
X785269Y13643D01*
X785366Y13701D01*
X785461Y13763D01*
X785554Y13828D01*
X785644Y13896D01*
X785732Y13967D01*
X785818Y14042D01*
X785901Y14119D01*
X785981Y14199D01*
X786058Y14282D01*
X786133Y14368D01*
X786204Y14456D01*
X786272Y14546D01*
X786337Y14639D01*
X786399Y14734D01*
X786457Y14831D01*
X786512Y14930D01*
X786563Y15031D01*
X786611Y15134D01*
X786656Y15238D01*
X786696Y15344D01*
X786733Y15451D01*
X786766Y15559D01*
X786796Y15669D01*
X786821Y15779D01*
X786843Y15890D01*
X786860Y16002D01*
X786874Y16115D01*
X786884Y16228D01*
X786890Y16341D01*
X786892Y16454D01*
X786890Y16567D01*
X786884Y16680D01*
X786874Y16793D01*
X786860Y16906D01*
X786843Y17018D01*
X786821Y17129D01*
X786796Y17239D01*
X786766Y17349D01*
X786733Y17457D01*
X786696Y17564D01*
X786656Y17670D01*
X786611Y17774D01*
X786563Y17877D01*
X786512Y17978D01*
X786457Y18077D01*
X786399Y18174D01*
X786337Y18269D01*
X786272Y18362D01*
X786204Y18452D01*
X786133Y18540D01*
X786058Y18626D01*
X785981Y18709D01*
X785901Y18789D01*
X785818Y18866D01*
X785732Y18941D01*
X785644Y19012D01*
X785554Y19080D01*
X785461Y19145D01*
X785366Y19207D01*
X785269Y19265D01*
X785170Y19320D01*
X785069Y19371D01*
X784966Y19419D01*
X784862Y19464D01*
X784756Y19504D01*
X784649Y19541D01*
X784541Y19574D01*
X784431Y19604D01*
X784321Y19629D01*
X784210Y19651D01*
X784098Y19668D01*
X783985Y19682D01*
X783872Y19692D01*
X783759Y19698D01*
X783646Y19700D01*
X784296Y24892D02*
X780401Y24892D01*
X784296Y24892D02*
X784397Y24890D01*
X784497Y24884D01*
X784597Y24874D01*
X784697Y24861D01*
X784796Y24843D01*
X784895Y24822D01*
X784992Y24797D01*
X785089Y24768D01*
X785184Y24735D01*
X785278Y24699D01*
X785370Y24659D01*
X785461Y24616D01*
X785550Y24569D01*
X785637Y24519D01*
X785723Y24465D01*
X785806Y24408D01*
X785886Y24348D01*
X785965Y24285D01*
X786041Y24218D01*
X786114Y24149D01*
X786184Y24077D01*
X786252Y24003D01*
X786317Y23926D01*
X786378Y23846D01*
X786437Y23764D01*
X786492Y23680D01*
X786544Y23594D01*
X786593Y23506D01*
X786638Y23416D01*
X786680Y23324D01*
X786718Y23231D01*
X786752Y23136D01*
X786783Y23041D01*
X786810Y22944D01*
X786833Y22846D01*
X786853Y22747D01*
X786868Y22647D01*
X786880Y22547D01*
X786888Y22447D01*
X786892Y22346D01*
X786892Y22246D01*
X786888Y22145D01*
X786880Y22045D01*
X786868Y21945D01*
X786853Y21845D01*
X786833Y21746D01*
X786810Y21648D01*
X786783Y21551D01*
X786752Y21456D01*
X786718Y21361D01*
X786680Y21268D01*
X786638Y21176D01*
X786593Y21086D01*
X786544Y20998D01*
X786492Y20912D01*
X786437Y20828D01*
X786378Y20746D01*
X786317Y20666D01*
X786252Y20589D01*
X786184Y20515D01*
X786114Y20443D01*
X786041Y20374D01*
X785965Y20307D01*
X785886Y20244D01*
X785806Y20184D01*
X785723Y20127D01*
X785637Y20073D01*
X785550Y20023D01*
X785461Y19976D01*
X785370Y19933D01*
X785278Y19893D01*
X785184Y19857D01*
X785089Y19824D01*
X784992Y19795D01*
X784895Y19770D01*
X784796Y19749D01*
X784697Y19731D01*
X784597Y19718D01*
X784497Y19708D01*
X784397Y19702D01*
X784296Y19700D01*
X784296Y19699D02*
X781699Y19699D01*
D11*
X792440Y218900D02*
X792440Y720900D01*
X792440Y218900D02*
X98440Y218900D01*
X98440Y720900D01*
X792440Y720900D01*
D10*
X854820Y761170D02*
X856090Y183710D01*
X805930Y178630D02*
X805930Y208630D01*
X83550Y209900D01*
X83550Y179900D01*
X35930Y179900D02*
X35930Y759900D01*
X83550Y759900D02*
X83550Y729900D01*
X805930Y728630D01*
X805930Y756090D01*
X856090Y183710D02*
X856144Y183099D01*
X856184Y182486D01*
X856208Y181872D01*
X856218Y181259D01*
X856213Y180645D01*
X856192Y180031D01*
X856157Y179418D01*
X856107Y178807D01*
X856042Y178196D01*
X855962Y177587D01*
X855867Y176981D01*
X855758Y176377D01*
X855634Y175776D01*
X855495Y175178D01*
X855342Y174583D01*
X855175Y173993D01*
X854993Y173406D01*
X854796Y172825D01*
X854586Y172248D01*
X854362Y171676D01*
X854124Y171111D01*
X853872Y170551D01*
X853607Y169997D01*
X853328Y169450D01*
X853036Y168910D01*
X852731Y168377D01*
X852413Y167852D01*
X852082Y167335D01*
X851739Y166826D01*
X851384Y166326D01*
X851016Y165834D01*
X850637Y165351D01*
X850246Y164878D01*
X849843Y164414D01*
X849430Y163961D01*
X849005Y163517D01*
X848570Y163084D01*
X848124Y162662D01*
X847669Y162251D01*
X847203Y161851D01*
X846728Y161462D01*
X846243Y161085D01*
X845750Y160720D01*
X845247Y160367D01*
X844736Y160027D01*
X844217Y159699D01*
X843691Y159384D01*
X843156Y159081D01*
X842615Y158792D01*
X842067Y158516D01*
X841512Y158254D01*
X840951Y158005D01*
X840383Y157770D01*
X839811Y157548D01*
X839233Y157341D01*
X838650Y157148D01*
X838063Y156969D01*
X837472Y156804D01*
X836876Y156654D01*
X836278Y156519D01*
X835676Y156398D01*
X835071Y156291D01*
X834464Y156200D01*
X833855Y156123D01*
X833244Y156061D01*
X832632Y156014D01*
X832019Y155982D01*
X831406Y155965D01*
X830792Y155963D01*
X830178Y155976D01*
X829565Y156003D01*
X828952Y156046D01*
X828341Y156104D01*
X827732Y156176D01*
X827124Y156263D01*
X826519Y156365D01*
X825916Y156482D01*
X825316Y156613D01*
X824720Y156759D01*
X824127Y156920D01*
X823539Y157095D01*
X822955Y157284D01*
X822376Y157487D01*
X821801Y157704D01*
X821233Y157935D01*
X820670Y158180D01*
X820113Y158439D01*
X819563Y158711D01*
X819019Y158996D01*
X818483Y159295D01*
X817954Y159607D01*
X817433Y159931D01*
X816920Y160268D01*
X816415Y160617D01*
X815919Y160979D01*
X815431Y161352D01*
X814953Y161737D01*
X814485Y162134D01*
X814026Y162542D01*
X813578Y162961D01*
X813139Y163391D01*
X812712Y163832D01*
X812295Y164282D01*
X811889Y164743D01*
X811495Y165213D01*
X811112Y165693D01*
X810741Y166183D01*
X810382Y166681D01*
X810036Y167187D01*
X809701Y167702D01*
X809380Y168225D01*
X809071Y168755D01*
X808775Y169293D01*
X808493Y169838D01*
X808223Y170390D01*
X807967Y170948D01*
X807725Y171512D01*
X807497Y172082D01*
X807283Y172657D01*
X807083Y173238D01*
X806897Y173823D01*
X806725Y174412D01*
X806567Y175005D01*
X806425Y175602D01*
X806296Y176203D01*
X806183Y176806D01*
X806084Y177412D01*
X806000Y178020D01*
X805930Y178630D01*
X805930Y756090D02*
X805875Y756686D01*
X805835Y757283D01*
X805809Y757881D01*
X805798Y758480D01*
X805802Y759078D01*
X805820Y759676D01*
X805853Y760274D01*
X805900Y760871D01*
X805962Y761466D01*
X806038Y762060D01*
X806129Y762651D01*
X806234Y763240D01*
X806354Y763827D01*
X806487Y764410D01*
X806635Y764990D01*
X806797Y765566D01*
X806973Y766138D01*
X807163Y766706D01*
X807366Y767269D01*
X807584Y767827D01*
X807814Y768379D01*
X808058Y768925D01*
X808316Y769466D01*
X808586Y770000D01*
X808869Y770527D01*
X809165Y771047D01*
X809474Y771560D01*
X809795Y772065D01*
X810128Y772562D01*
X810474Y773051D01*
X810831Y773531D01*
X811199Y774003D01*
X811580Y774465D01*
X811971Y774918D01*
X812373Y775362D01*
X812786Y775795D01*
X813209Y776218D01*
X813642Y776631D01*
X814085Y777033D01*
X814538Y777424D01*
X815001Y777805D01*
X815472Y778173D01*
X815953Y778530D01*
X816441Y778876D01*
X816939Y779209D01*
X817444Y779530D01*
X817956Y779839D01*
X818477Y780135D01*
X819004Y780418D01*
X819538Y780689D01*
X820078Y780946D01*
X820625Y781190D01*
X821177Y781421D01*
X821734Y781638D01*
X822297Y781842D01*
X822865Y782031D01*
X823437Y782207D01*
X824013Y782369D01*
X824593Y782517D01*
X825177Y782651D01*
X825763Y782770D01*
X826352Y782876D01*
X826944Y782966D01*
X827537Y783043D01*
X828133Y783105D01*
X828729Y783152D01*
X829327Y783185D01*
X829925Y783203D01*
X830524Y783207D01*
X831122Y783196D01*
X831720Y783170D01*
X832317Y783130D01*
X832913Y783076D01*
X833508Y783006D01*
X834101Y782923D01*
X834691Y782825D01*
X835279Y782713D01*
X835864Y782586D01*
X836446Y782445D01*
X837024Y782291D01*
X837598Y782122D01*
X838168Y781939D01*
X838733Y781742D01*
X839294Y781532D01*
X839849Y781308D01*
X840398Y781070D01*
X840941Y780820D01*
X841479Y780556D01*
X842009Y780279D01*
X842533Y779989D01*
X843049Y779687D01*
X843558Y779372D01*
X844060Y779045D01*
X844553Y778705D01*
X845037Y778354D01*
X845513Y777991D01*
X845980Y777617D01*
X846438Y777231D01*
X846886Y776835D01*
X847325Y776427D01*
X847753Y776009D01*
X848171Y775581D01*
X848579Y775142D01*
X848975Y774694D01*
X849361Y774237D01*
X849735Y773770D01*
X850098Y773294D01*
X850449Y772809D01*
X850789Y772316D01*
X851116Y771815D01*
X851431Y771306D01*
X851733Y770789D01*
X852023Y770266D01*
X852300Y769735D01*
X852564Y769198D01*
X852815Y768654D01*
X853052Y768105D01*
X853276Y767550D01*
X853487Y766990D01*
X853683Y766424D01*
X853866Y765855D01*
X854035Y765280D01*
X854190Y764702D01*
X854331Y764121D01*
X854457Y763536D01*
X854570Y762948D01*
X854668Y762357D01*
X854751Y761765D01*
X854820Y761170D01*
X83550Y759900D02*
X83543Y760480D01*
X83522Y761059D01*
X83486Y761638D01*
X83437Y762216D01*
X83374Y762792D01*
X83296Y763367D01*
X83205Y763939D01*
X83100Y764510D01*
X82980Y765077D01*
X82847Y765641D01*
X82701Y766202D01*
X82540Y766760D01*
X82367Y767313D01*
X82179Y767862D01*
X81979Y768406D01*
X81765Y768945D01*
X81538Y769478D01*
X81299Y770006D01*
X81046Y770528D01*
X80781Y771044D01*
X80503Y771553D01*
X80214Y772055D01*
X79912Y772550D01*
X79597Y773038D01*
X79272Y773517D01*
X78934Y773989D01*
X78586Y774452D01*
X78226Y774907D01*
X77855Y775352D01*
X77473Y775789D01*
X77081Y776216D01*
X76678Y776633D01*
X76266Y777041D01*
X75844Y777438D01*
X75412Y777825D01*
X74971Y778201D01*
X74520Y778567D01*
X74061Y778921D01*
X73594Y779264D01*
X73118Y779596D01*
X72635Y779916D01*
X72144Y780224D01*
X71645Y780520D01*
X71139Y780804D01*
X70627Y781075D01*
X70108Y781334D01*
X69583Y781580D01*
X69052Y781813D01*
X68516Y782034D01*
X67974Y782241D01*
X67428Y782435D01*
X66877Y782615D01*
X66322Y782782D01*
X65762Y782936D01*
X65200Y783076D01*
X64634Y783202D01*
X64065Y783314D01*
X63493Y783412D01*
X62920Y783497D01*
X62344Y783567D01*
X61767Y783624D01*
X61189Y783666D01*
X60610Y783694D01*
X60030Y783708D01*
X59450Y783708D01*
X58870Y783694D01*
X58291Y783666D01*
X57713Y783624D01*
X57136Y783567D01*
X56560Y783497D01*
X55987Y783412D01*
X55415Y783314D01*
X54846Y783202D01*
X54280Y783076D01*
X53718Y782936D01*
X53158Y782782D01*
X52603Y782615D01*
X52052Y782435D01*
X51506Y782241D01*
X50964Y782034D01*
X50428Y781813D01*
X49897Y781580D01*
X49372Y781334D01*
X48853Y781075D01*
X48341Y780804D01*
X47835Y780520D01*
X47336Y780224D01*
X46845Y779916D01*
X46362Y779596D01*
X45886Y779264D01*
X45419Y778921D01*
X44960Y778567D01*
X44509Y778201D01*
X44068Y777825D01*
X43636Y777438D01*
X43214Y777041D01*
X42802Y776633D01*
X42399Y776216D01*
X42007Y775789D01*
X41625Y775352D01*
X41254Y774907D01*
X40894Y774452D01*
X40546Y773989D01*
X40208Y773517D01*
X39883Y773038D01*
X39568Y772550D01*
X39266Y772055D01*
X38977Y771553D01*
X38699Y771044D01*
X38434Y770528D01*
X38181Y770006D01*
X37942Y769478D01*
X37715Y768945D01*
X37501Y768406D01*
X37301Y767862D01*
X37113Y767313D01*
X36940Y766760D01*
X36779Y766202D01*
X36633Y765641D01*
X36500Y765077D01*
X36380Y764510D01*
X36275Y763939D01*
X36184Y763367D01*
X36106Y762792D01*
X36043Y762216D01*
X35994Y761638D01*
X35958Y761059D01*
X35937Y760480D01*
X35930Y759900D01*
X35930Y179900D02*
X35937Y179320D01*
X35958Y178741D01*
X35994Y178162D01*
X36043Y177584D01*
X36106Y177008D01*
X36184Y176433D01*
X36275Y175861D01*
X36380Y175290D01*
X36500Y174723D01*
X36633Y174159D01*
X36779Y173598D01*
X36940Y173040D01*
X37113Y172487D01*
X37301Y171938D01*
X37501Y171394D01*
X37715Y170855D01*
X37942Y170322D01*
X38181Y169794D01*
X38434Y169272D01*
X38699Y168756D01*
X38977Y168247D01*
X39266Y167745D01*
X39568Y167250D01*
X39883Y166762D01*
X40208Y166283D01*
X40546Y165811D01*
X40894Y165348D01*
X41254Y164893D01*
X41625Y164448D01*
X42007Y164011D01*
X42399Y163584D01*
X42802Y163167D01*
X43214Y162759D01*
X43636Y162362D01*
X44068Y161975D01*
X44509Y161599D01*
X44960Y161233D01*
X45419Y160879D01*
X45886Y160536D01*
X46362Y160204D01*
X46845Y159884D01*
X47336Y159576D01*
X47835Y159280D01*
X48341Y158996D01*
X48853Y158725D01*
X49372Y158466D01*
X49897Y158220D01*
X50428Y157987D01*
X50964Y157766D01*
X51506Y157559D01*
X52052Y157365D01*
X52603Y157185D01*
X53158Y157018D01*
X53718Y156864D01*
X54280Y156724D01*
X54846Y156598D01*
X55415Y156486D01*
X55987Y156388D01*
X56560Y156303D01*
X57136Y156233D01*
X57713Y156176D01*
X58291Y156134D01*
X58870Y156106D01*
X59450Y156092D01*
X60030Y156092D01*
X60610Y156106D01*
X61189Y156134D01*
X61767Y156176D01*
X62344Y156233D01*
X62920Y156303D01*
X63493Y156388D01*
X64065Y156486D01*
X64634Y156598D01*
X65200Y156724D01*
X65762Y156864D01*
X66322Y157018D01*
X66877Y157185D01*
X67428Y157365D01*
X67974Y157559D01*
X68516Y157766D01*
X69052Y157987D01*
X69583Y158220D01*
X70108Y158466D01*
X70627Y158725D01*
X71139Y158996D01*
X71645Y159280D01*
X72144Y159576D01*
X72635Y159884D01*
X73118Y160204D01*
X73594Y160536D01*
X74061Y160879D01*
X74520Y161233D01*
X74971Y161599D01*
X75412Y161975D01*
X75844Y162362D01*
X76266Y162759D01*
X76678Y163167D01*
X77081Y163584D01*
X77473Y164011D01*
X77855Y164448D01*
X78226Y164893D01*
X78586Y165348D01*
X78934Y165811D01*
X79272Y166283D01*
X79597Y166762D01*
X79912Y167250D01*
X80214Y167745D01*
X80503Y168247D01*
X80781Y168756D01*
X81046Y169272D01*
X81299Y169794D01*
X81538Y170322D01*
X81765Y170855D01*
X81979Y171394D01*
X82179Y171938D01*
X82367Y172487D01*
X82540Y173040D01*
X82701Y173598D01*
X82847Y174159D01*
X82980Y174723D01*
X83100Y175290D01*
X83205Y175861D01*
X83296Y176433D01*
X83374Y177008D01*
X83437Y177584D01*
X83486Y178162D01*
X83522Y178741D01*
X83543Y179320D01*
X83550Y179900D01*
M02*
