G04 EAGLE Gerber RS-274X export*
G75*
%MOMM*%
%FSLAX34Y34*%
%LPD*%
%INSilkscreen Bottom*%
%IPPOS*%
%AMOC8*
5,1,8,0,0,1.08239X$1,22.5*%
G01*
%ADD10C,0.152400*%
%ADD11C,0.127000*%
%ADD12C,0.101600*%
%ADD13C,0.076200*%
%ADD14C,0.254000*%
%ADD15C,0.203200*%
%ADD16C,0.228600*%
%ADD17C,0.304800*%


D10*
X621030Y728980D02*
X608330Y728980D01*
X601980Y722630D01*
X601980Y709930D02*
X608330Y703580D01*
X601980Y722630D02*
X595630Y728980D01*
X582930Y728980D01*
X576580Y722630D01*
X576580Y709930D02*
X582930Y703580D01*
X595630Y703580D01*
X601980Y709930D01*
X627380Y709930D02*
X627380Y722630D01*
X621030Y728980D01*
X627380Y709930D02*
X621030Y703580D01*
X608330Y703580D01*
X576580Y722630D02*
X570230Y728980D01*
X557530Y728980D01*
X551180Y722630D01*
X551180Y709930D02*
X557530Y703580D01*
X570230Y703580D01*
X576580Y709930D01*
X551180Y709930D02*
X551180Y722630D01*
D11*
X636270Y721995D02*
X639445Y719455D01*
X636270Y721995D02*
X636270Y710565D01*
X639445Y710565D02*
X633095Y710565D01*
X626745Y733425D02*
X626745Y744855D01*
X622935Y738505D01*
X619125Y744855D01*
X619125Y733425D01*
X613537Y742315D02*
X610362Y744855D01*
X610362Y733425D01*
X613537Y733425D02*
X607187Y733425D01*
D12*
X586232Y451545D02*
X574548Y451545D01*
X586232Y451545D02*
X586232Y454790D01*
X586230Y454903D01*
X586224Y455016D01*
X586214Y455129D01*
X586200Y455242D01*
X586183Y455354D01*
X586161Y455465D01*
X586136Y455575D01*
X586106Y455685D01*
X586073Y455793D01*
X586036Y455900D01*
X585996Y456006D01*
X585951Y456110D01*
X585903Y456213D01*
X585852Y456314D01*
X585797Y456413D01*
X585739Y456510D01*
X585677Y456605D01*
X585612Y456698D01*
X585544Y456788D01*
X585473Y456876D01*
X585398Y456962D01*
X585321Y457045D01*
X585241Y457125D01*
X585158Y457202D01*
X585072Y457277D01*
X584984Y457348D01*
X584894Y457416D01*
X584801Y457481D01*
X584706Y457543D01*
X584609Y457601D01*
X584510Y457656D01*
X584409Y457707D01*
X584306Y457755D01*
X584202Y457800D01*
X584096Y457840D01*
X583989Y457877D01*
X583881Y457910D01*
X583771Y457940D01*
X583661Y457965D01*
X583550Y457987D01*
X583438Y458004D01*
X583325Y458018D01*
X583212Y458028D01*
X583099Y458034D01*
X582986Y458036D01*
X582873Y458034D01*
X582760Y458028D01*
X582647Y458018D01*
X582534Y458004D01*
X582422Y457987D01*
X582311Y457965D01*
X582201Y457940D01*
X582091Y457910D01*
X581983Y457877D01*
X581876Y457840D01*
X581770Y457800D01*
X581666Y457755D01*
X581563Y457707D01*
X581462Y457656D01*
X581363Y457601D01*
X581266Y457543D01*
X581171Y457481D01*
X581078Y457416D01*
X580988Y457348D01*
X580900Y457277D01*
X580814Y457202D01*
X580731Y457125D01*
X580651Y457045D01*
X580574Y456962D01*
X580499Y456876D01*
X580428Y456788D01*
X580360Y456698D01*
X580295Y456605D01*
X580233Y456510D01*
X580175Y456413D01*
X580120Y456314D01*
X580069Y456213D01*
X580021Y456110D01*
X579976Y456006D01*
X579936Y455900D01*
X579899Y455793D01*
X579866Y455685D01*
X579836Y455575D01*
X579811Y455465D01*
X579789Y455354D01*
X579772Y455242D01*
X579758Y455129D01*
X579748Y455016D01*
X579742Y454903D01*
X579740Y454790D01*
X579741Y454790D02*
X579741Y451545D01*
X579741Y455439D02*
X574548Y458036D01*
X574548Y462901D02*
X574548Y466146D01*
X574550Y466259D01*
X574556Y466372D01*
X574566Y466485D01*
X574580Y466598D01*
X574597Y466710D01*
X574619Y466821D01*
X574644Y466931D01*
X574674Y467041D01*
X574707Y467149D01*
X574744Y467256D01*
X574784Y467362D01*
X574829Y467466D01*
X574877Y467569D01*
X574928Y467670D01*
X574983Y467769D01*
X575041Y467866D01*
X575103Y467961D01*
X575168Y468054D01*
X575236Y468144D01*
X575307Y468232D01*
X575382Y468318D01*
X575459Y468401D01*
X575539Y468481D01*
X575622Y468558D01*
X575708Y468633D01*
X575796Y468704D01*
X575886Y468772D01*
X575979Y468837D01*
X576074Y468899D01*
X576171Y468957D01*
X576270Y469012D01*
X576371Y469063D01*
X576474Y469111D01*
X576578Y469156D01*
X576684Y469196D01*
X576791Y469233D01*
X576899Y469266D01*
X577009Y469296D01*
X577119Y469321D01*
X577230Y469343D01*
X577342Y469360D01*
X577455Y469374D01*
X577568Y469384D01*
X577681Y469390D01*
X577794Y469392D01*
X577907Y469390D01*
X578020Y469384D01*
X578133Y469374D01*
X578246Y469360D01*
X578358Y469343D01*
X578469Y469321D01*
X578579Y469296D01*
X578689Y469266D01*
X578797Y469233D01*
X578904Y469196D01*
X579010Y469156D01*
X579114Y469111D01*
X579217Y469063D01*
X579318Y469012D01*
X579417Y468957D01*
X579514Y468899D01*
X579609Y468837D01*
X579702Y468772D01*
X579792Y468704D01*
X579880Y468633D01*
X579966Y468558D01*
X580049Y468481D01*
X580129Y468401D01*
X580206Y468318D01*
X580281Y468232D01*
X580352Y468144D01*
X580420Y468054D01*
X580485Y467961D01*
X580547Y467866D01*
X580605Y467769D01*
X580660Y467670D01*
X580711Y467569D01*
X580759Y467466D01*
X580804Y467362D01*
X580844Y467256D01*
X580881Y467149D01*
X580914Y467041D01*
X580944Y466931D01*
X580969Y466821D01*
X580991Y466710D01*
X581008Y466598D01*
X581022Y466485D01*
X581032Y466372D01*
X581038Y466259D01*
X581040Y466146D01*
X586232Y466796D02*
X586232Y462901D01*
X586232Y466796D02*
X586230Y466897D01*
X586224Y466997D01*
X586214Y467097D01*
X586201Y467197D01*
X586183Y467296D01*
X586162Y467395D01*
X586137Y467492D01*
X586108Y467589D01*
X586075Y467684D01*
X586039Y467778D01*
X585999Y467870D01*
X585956Y467961D01*
X585909Y468050D01*
X585859Y468137D01*
X585805Y468223D01*
X585748Y468306D01*
X585688Y468386D01*
X585625Y468465D01*
X585558Y468541D01*
X585489Y468614D01*
X585417Y468684D01*
X585343Y468752D01*
X585266Y468817D01*
X585186Y468878D01*
X585104Y468937D01*
X585020Y468992D01*
X584934Y469044D01*
X584846Y469093D01*
X584756Y469138D01*
X584664Y469180D01*
X584571Y469218D01*
X584476Y469252D01*
X584381Y469283D01*
X584284Y469310D01*
X584186Y469333D01*
X584087Y469353D01*
X583987Y469368D01*
X583887Y469380D01*
X583787Y469388D01*
X583686Y469392D01*
X583586Y469392D01*
X583485Y469388D01*
X583385Y469380D01*
X583285Y469368D01*
X583185Y469353D01*
X583086Y469333D01*
X582988Y469310D01*
X582891Y469283D01*
X582796Y469252D01*
X582701Y469218D01*
X582608Y469180D01*
X582516Y469138D01*
X582426Y469093D01*
X582338Y469044D01*
X582252Y468992D01*
X582168Y468937D01*
X582086Y468878D01*
X582006Y468817D01*
X581929Y468752D01*
X581855Y468684D01*
X581783Y468614D01*
X581714Y468541D01*
X581647Y468465D01*
X581584Y468386D01*
X581524Y468306D01*
X581467Y468223D01*
X581413Y468137D01*
X581363Y468050D01*
X581316Y467961D01*
X581273Y467870D01*
X581233Y467778D01*
X581197Y467684D01*
X581164Y467589D01*
X581135Y467492D01*
X581110Y467395D01*
X581089Y467296D01*
X581071Y467197D01*
X581058Y467097D01*
X581048Y466997D01*
X581042Y466897D01*
X581040Y466796D01*
X581039Y466796D02*
X581039Y464199D01*
X586232Y406908D02*
X574548Y406908D01*
X586232Y406908D02*
X586232Y410154D01*
X586230Y410267D01*
X586224Y410380D01*
X586214Y410493D01*
X586200Y410606D01*
X586183Y410718D01*
X586161Y410829D01*
X586136Y410939D01*
X586106Y411049D01*
X586073Y411157D01*
X586036Y411264D01*
X585996Y411370D01*
X585951Y411474D01*
X585903Y411577D01*
X585852Y411678D01*
X585797Y411777D01*
X585739Y411874D01*
X585677Y411969D01*
X585612Y412062D01*
X585544Y412152D01*
X585473Y412240D01*
X585398Y412326D01*
X585321Y412409D01*
X585241Y412489D01*
X585158Y412566D01*
X585072Y412641D01*
X584984Y412712D01*
X584894Y412780D01*
X584801Y412845D01*
X584706Y412907D01*
X584609Y412965D01*
X584510Y413020D01*
X584409Y413071D01*
X584306Y413119D01*
X584202Y413164D01*
X584096Y413204D01*
X583989Y413241D01*
X583881Y413274D01*
X583771Y413304D01*
X583661Y413329D01*
X583550Y413351D01*
X583438Y413368D01*
X583325Y413382D01*
X583212Y413392D01*
X583099Y413398D01*
X582986Y413400D01*
X582873Y413398D01*
X582760Y413392D01*
X582647Y413382D01*
X582534Y413368D01*
X582422Y413351D01*
X582311Y413329D01*
X582201Y413304D01*
X582091Y413274D01*
X581983Y413241D01*
X581876Y413204D01*
X581770Y413164D01*
X581666Y413119D01*
X581563Y413071D01*
X581462Y413020D01*
X581363Y412965D01*
X581266Y412907D01*
X581171Y412845D01*
X581078Y412780D01*
X580988Y412712D01*
X580900Y412641D01*
X580814Y412566D01*
X580731Y412489D01*
X580651Y412409D01*
X580574Y412326D01*
X580499Y412240D01*
X580428Y412152D01*
X580360Y412062D01*
X580295Y411969D01*
X580233Y411874D01*
X580175Y411777D01*
X580120Y411678D01*
X580069Y411577D01*
X580021Y411474D01*
X579976Y411370D01*
X579936Y411264D01*
X579899Y411157D01*
X579866Y411049D01*
X579836Y410939D01*
X579811Y410829D01*
X579789Y410718D01*
X579772Y410606D01*
X579758Y410493D01*
X579748Y410380D01*
X579742Y410267D01*
X579740Y410154D01*
X579741Y410154D02*
X579741Y406908D01*
X579741Y410803D02*
X574548Y413399D01*
X577144Y418264D02*
X586232Y420861D01*
X577144Y418264D02*
X577144Y424755D01*
X579741Y422808D02*
X574548Y422808D01*
D11*
X449580Y88900D02*
X439420Y88900D01*
D13*
X457581Y76581D02*
X464947Y76581D01*
X464947Y78627D01*
X464945Y78716D01*
X464939Y78805D01*
X464929Y78894D01*
X464916Y78982D01*
X464899Y79070D01*
X464877Y79157D01*
X464852Y79242D01*
X464824Y79327D01*
X464791Y79410D01*
X464755Y79492D01*
X464716Y79572D01*
X464673Y79650D01*
X464627Y79726D01*
X464577Y79801D01*
X464524Y79873D01*
X464468Y79942D01*
X464409Y80009D01*
X464348Y80074D01*
X464283Y80135D01*
X464216Y80194D01*
X464147Y80250D01*
X464075Y80303D01*
X464000Y80353D01*
X463924Y80399D01*
X463846Y80442D01*
X463766Y80481D01*
X463684Y80517D01*
X463601Y80550D01*
X463516Y80578D01*
X463431Y80603D01*
X463344Y80625D01*
X463256Y80642D01*
X463168Y80655D01*
X463079Y80665D01*
X462990Y80671D01*
X462901Y80673D01*
X462812Y80671D01*
X462723Y80665D01*
X462634Y80655D01*
X462546Y80642D01*
X462458Y80625D01*
X462371Y80603D01*
X462286Y80578D01*
X462201Y80550D01*
X462118Y80517D01*
X462036Y80481D01*
X461956Y80442D01*
X461878Y80399D01*
X461802Y80353D01*
X461727Y80303D01*
X461655Y80250D01*
X461586Y80194D01*
X461519Y80135D01*
X461454Y80074D01*
X461393Y80009D01*
X461334Y79942D01*
X461278Y79873D01*
X461225Y79801D01*
X461175Y79726D01*
X461129Y79650D01*
X461086Y79572D01*
X461047Y79492D01*
X461011Y79410D01*
X460978Y79327D01*
X460950Y79242D01*
X460925Y79157D01*
X460903Y79070D01*
X460886Y78982D01*
X460873Y78894D01*
X460863Y78805D01*
X460857Y78716D01*
X460855Y78627D01*
X460855Y76581D01*
X460855Y79036D02*
X457581Y80673D01*
X457581Y83845D02*
X457581Y86300D01*
X457583Y86380D01*
X457589Y86460D01*
X457599Y86540D01*
X457612Y86619D01*
X457630Y86698D01*
X457651Y86775D01*
X457677Y86851D01*
X457706Y86926D01*
X457738Y87000D01*
X457774Y87072D01*
X457814Y87142D01*
X457857Y87209D01*
X457903Y87275D01*
X457953Y87338D01*
X458005Y87399D01*
X458060Y87458D01*
X458119Y87513D01*
X458179Y87565D01*
X458243Y87615D01*
X458309Y87661D01*
X458376Y87704D01*
X458446Y87744D01*
X458518Y87780D01*
X458592Y87812D01*
X458666Y87841D01*
X458743Y87867D01*
X458820Y87888D01*
X458899Y87906D01*
X458978Y87919D01*
X459058Y87929D01*
X459138Y87935D01*
X459218Y87937D01*
X460036Y87937D01*
X460114Y87935D01*
X460192Y87930D01*
X460269Y87920D01*
X460346Y87907D01*
X460422Y87891D01*
X460497Y87871D01*
X460571Y87847D01*
X460644Y87820D01*
X460716Y87789D01*
X460786Y87755D01*
X460855Y87718D01*
X460921Y87677D01*
X460986Y87633D01*
X461048Y87587D01*
X461108Y87537D01*
X461166Y87485D01*
X461221Y87430D01*
X461273Y87372D01*
X461323Y87312D01*
X461369Y87250D01*
X461413Y87185D01*
X461454Y87119D01*
X461491Y87050D01*
X461525Y86980D01*
X461556Y86908D01*
X461583Y86835D01*
X461607Y86761D01*
X461627Y86686D01*
X461643Y86610D01*
X461656Y86533D01*
X461666Y86456D01*
X461671Y86378D01*
X461673Y86300D01*
X461673Y83845D01*
X464947Y83845D01*
X464947Y87937D01*
D11*
X629920Y88900D02*
X640080Y88900D01*
D13*
X648081Y89281D02*
X655447Y89281D01*
X655447Y91327D01*
X655445Y91416D01*
X655439Y91505D01*
X655429Y91594D01*
X655416Y91682D01*
X655399Y91770D01*
X655377Y91857D01*
X655352Y91942D01*
X655324Y92027D01*
X655291Y92110D01*
X655255Y92192D01*
X655216Y92272D01*
X655173Y92350D01*
X655127Y92426D01*
X655077Y92501D01*
X655024Y92573D01*
X654968Y92642D01*
X654909Y92709D01*
X654848Y92774D01*
X654783Y92835D01*
X654716Y92894D01*
X654647Y92950D01*
X654575Y93003D01*
X654500Y93053D01*
X654424Y93099D01*
X654346Y93142D01*
X654266Y93181D01*
X654184Y93217D01*
X654101Y93250D01*
X654016Y93278D01*
X653931Y93303D01*
X653844Y93325D01*
X653756Y93342D01*
X653668Y93355D01*
X653579Y93365D01*
X653490Y93371D01*
X653401Y93373D01*
X653312Y93371D01*
X653223Y93365D01*
X653134Y93355D01*
X653046Y93342D01*
X652958Y93325D01*
X652871Y93303D01*
X652786Y93278D01*
X652701Y93250D01*
X652618Y93217D01*
X652536Y93181D01*
X652456Y93142D01*
X652378Y93099D01*
X652302Y93053D01*
X652227Y93003D01*
X652155Y92950D01*
X652086Y92894D01*
X652019Y92835D01*
X651954Y92774D01*
X651893Y92709D01*
X651834Y92642D01*
X651778Y92573D01*
X651725Y92501D01*
X651675Y92426D01*
X651629Y92350D01*
X651586Y92272D01*
X651547Y92192D01*
X651511Y92110D01*
X651478Y92027D01*
X651450Y91942D01*
X651425Y91857D01*
X651403Y91770D01*
X651386Y91682D01*
X651373Y91594D01*
X651363Y91505D01*
X651357Y91416D01*
X651355Y91327D01*
X651355Y89281D01*
X651355Y91736D02*
X648081Y93373D01*
X652173Y96545D02*
X652173Y99000D01*
X652171Y99078D01*
X652166Y99156D01*
X652156Y99233D01*
X652143Y99310D01*
X652127Y99386D01*
X652107Y99461D01*
X652083Y99535D01*
X652056Y99608D01*
X652025Y99680D01*
X651991Y99750D01*
X651954Y99819D01*
X651913Y99885D01*
X651869Y99950D01*
X651823Y100012D01*
X651773Y100072D01*
X651721Y100130D01*
X651666Y100185D01*
X651608Y100237D01*
X651548Y100287D01*
X651486Y100333D01*
X651421Y100377D01*
X651355Y100418D01*
X651286Y100455D01*
X651216Y100489D01*
X651144Y100520D01*
X651071Y100547D01*
X650997Y100571D01*
X650922Y100591D01*
X650846Y100607D01*
X650769Y100620D01*
X650692Y100630D01*
X650614Y100635D01*
X650536Y100637D01*
X650127Y100637D01*
X650038Y100635D01*
X649949Y100629D01*
X649860Y100619D01*
X649772Y100606D01*
X649684Y100589D01*
X649597Y100567D01*
X649512Y100542D01*
X649427Y100514D01*
X649344Y100481D01*
X649262Y100445D01*
X649182Y100406D01*
X649104Y100363D01*
X649028Y100317D01*
X648953Y100267D01*
X648881Y100214D01*
X648812Y100158D01*
X648745Y100099D01*
X648680Y100038D01*
X648619Y99973D01*
X648560Y99906D01*
X648504Y99837D01*
X648451Y99765D01*
X648401Y99690D01*
X648355Y99614D01*
X648312Y99536D01*
X648273Y99456D01*
X648237Y99374D01*
X648204Y99291D01*
X648176Y99206D01*
X648151Y99121D01*
X648129Y99034D01*
X648112Y98946D01*
X648099Y98858D01*
X648089Y98769D01*
X648083Y98680D01*
X648081Y98591D01*
X648083Y98502D01*
X648089Y98413D01*
X648099Y98324D01*
X648112Y98236D01*
X648129Y98148D01*
X648151Y98061D01*
X648176Y97976D01*
X648204Y97891D01*
X648237Y97808D01*
X648273Y97726D01*
X648312Y97646D01*
X648355Y97568D01*
X648401Y97492D01*
X648451Y97417D01*
X648504Y97345D01*
X648560Y97276D01*
X648619Y97209D01*
X648680Y97144D01*
X648745Y97083D01*
X648812Y97024D01*
X648881Y96968D01*
X648953Y96915D01*
X649028Y96865D01*
X649104Y96819D01*
X649182Y96776D01*
X649262Y96737D01*
X649344Y96701D01*
X649427Y96668D01*
X649512Y96640D01*
X649597Y96615D01*
X649684Y96593D01*
X649772Y96576D01*
X649860Y96563D01*
X649949Y96553D01*
X650038Y96547D01*
X650127Y96545D01*
X652173Y96545D01*
X652287Y96547D01*
X652401Y96553D01*
X652515Y96563D01*
X652629Y96577D01*
X652742Y96595D01*
X652854Y96617D01*
X652965Y96642D01*
X653075Y96672D01*
X653185Y96705D01*
X653293Y96742D01*
X653399Y96783D01*
X653505Y96828D01*
X653608Y96876D01*
X653710Y96928D01*
X653810Y96984D01*
X653908Y97042D01*
X654004Y97105D01*
X654097Y97170D01*
X654189Y97239D01*
X654277Y97311D01*
X654364Y97386D01*
X654447Y97464D01*
X654528Y97545D01*
X654606Y97628D01*
X654681Y97715D01*
X654753Y97803D01*
X654822Y97895D01*
X654887Y97988D01*
X654949Y98084D01*
X655008Y98182D01*
X655064Y98282D01*
X655116Y98384D01*
X655164Y98487D01*
X655209Y98593D01*
X655250Y98699D01*
X655287Y98807D01*
X655320Y98917D01*
X655350Y99027D01*
X655375Y99138D01*
X655397Y99250D01*
X655415Y99363D01*
X655429Y99477D01*
X655439Y99591D01*
X655445Y99705D01*
X655447Y99819D01*
D11*
X820420Y88900D02*
X830580Y88900D01*
D13*
X838581Y76581D02*
X845947Y76581D01*
X845947Y78627D01*
X845945Y78716D01*
X845939Y78805D01*
X845929Y78894D01*
X845916Y78982D01*
X845899Y79070D01*
X845877Y79157D01*
X845852Y79242D01*
X845824Y79327D01*
X845791Y79410D01*
X845755Y79492D01*
X845716Y79572D01*
X845673Y79650D01*
X845627Y79726D01*
X845577Y79801D01*
X845524Y79873D01*
X845468Y79942D01*
X845409Y80009D01*
X845348Y80074D01*
X845283Y80135D01*
X845216Y80194D01*
X845147Y80250D01*
X845075Y80303D01*
X845000Y80353D01*
X844924Y80399D01*
X844846Y80442D01*
X844766Y80481D01*
X844684Y80517D01*
X844601Y80550D01*
X844516Y80578D01*
X844431Y80603D01*
X844344Y80625D01*
X844256Y80642D01*
X844168Y80655D01*
X844079Y80665D01*
X843990Y80671D01*
X843901Y80673D01*
X843812Y80671D01*
X843723Y80665D01*
X843634Y80655D01*
X843546Y80642D01*
X843458Y80625D01*
X843371Y80603D01*
X843286Y80578D01*
X843201Y80550D01*
X843118Y80517D01*
X843036Y80481D01*
X842956Y80442D01*
X842878Y80399D01*
X842802Y80353D01*
X842727Y80303D01*
X842655Y80250D01*
X842586Y80194D01*
X842519Y80135D01*
X842454Y80074D01*
X842393Y80009D01*
X842334Y79942D01*
X842278Y79873D01*
X842225Y79801D01*
X842175Y79726D01*
X842129Y79650D01*
X842086Y79572D01*
X842047Y79492D01*
X842011Y79410D01*
X841978Y79327D01*
X841950Y79242D01*
X841925Y79157D01*
X841903Y79070D01*
X841886Y78982D01*
X841873Y78894D01*
X841863Y78805D01*
X841857Y78716D01*
X841855Y78627D01*
X841855Y76581D01*
X841855Y79036D02*
X838581Y80673D01*
X845129Y83845D02*
X845947Y83845D01*
X845947Y87937D01*
X838581Y85891D01*
D14*
X171970Y351370D02*
X171970Y701370D01*
X171999Y703786D01*
X172087Y706201D01*
X172233Y708613D01*
X172437Y711021D01*
X172699Y713424D01*
X173019Y715819D01*
X173397Y718206D01*
X173833Y720583D01*
X174326Y722948D01*
X174876Y725302D01*
X175482Y727641D01*
X176145Y729965D01*
X176864Y732272D01*
X177639Y734561D01*
X178468Y736830D01*
X179353Y739079D01*
X180291Y741306D01*
X181283Y743510D01*
X182327Y745689D01*
X183424Y747842D01*
X184573Y749968D01*
X185773Y752066D01*
X187023Y754134D01*
X188323Y756171D01*
X189672Y758176D01*
X191068Y760149D01*
X192512Y762086D01*
X194003Y763989D01*
X195538Y765854D01*
X197119Y767682D01*
X198743Y769472D01*
X200410Y771221D01*
X202119Y772930D01*
X203868Y774597D01*
X205658Y776221D01*
X207486Y777802D01*
X209351Y779337D01*
X211254Y780828D01*
X213191Y782272D01*
X215164Y783668D01*
X217169Y785017D01*
X219206Y786317D01*
X221274Y787567D01*
X223372Y788767D01*
X225498Y789916D01*
X227651Y791013D01*
X229830Y792057D01*
X232034Y793049D01*
X234261Y793987D01*
X236510Y794872D01*
X238779Y795701D01*
X241068Y796476D01*
X243375Y797195D01*
X245699Y797858D01*
X248038Y798464D01*
X250392Y799014D01*
X252757Y799507D01*
X255134Y799943D01*
X257521Y800321D01*
X259916Y800641D01*
X262319Y800903D01*
X264727Y801107D01*
X267139Y801253D01*
X269554Y801341D01*
X271970Y801370D01*
X421970Y801370D01*
X424386Y801341D01*
X426801Y801253D01*
X429213Y801107D01*
X431621Y800903D01*
X434024Y800641D01*
X436419Y800321D01*
X438806Y799943D01*
X441183Y799507D01*
X443548Y799014D01*
X445902Y798464D01*
X448241Y797858D01*
X450565Y797195D01*
X452872Y796476D01*
X455161Y795701D01*
X457430Y794872D01*
X459679Y793987D01*
X461906Y793049D01*
X464110Y792057D01*
X466289Y791013D01*
X468442Y789916D01*
X470568Y788767D01*
X472666Y787567D01*
X474734Y786317D01*
X476771Y785017D01*
X478776Y783668D01*
X480749Y782272D01*
X482686Y780828D01*
X484589Y779337D01*
X486454Y777802D01*
X488282Y776221D01*
X490072Y774597D01*
X491821Y772930D01*
X493530Y771221D01*
X495197Y769472D01*
X496821Y767682D01*
X498402Y765854D01*
X499937Y763989D01*
X501428Y762086D01*
X502872Y760149D01*
X504268Y758176D01*
X505617Y756171D01*
X506917Y754134D01*
X508167Y752066D01*
X509367Y749968D01*
X510516Y747842D01*
X511613Y745689D01*
X512657Y743510D01*
X513649Y741306D01*
X514587Y739079D01*
X515472Y736830D01*
X516301Y734561D01*
X517076Y732272D01*
X517795Y729965D01*
X518458Y727641D01*
X519064Y725302D01*
X519614Y722948D01*
X520107Y720583D01*
X520543Y718206D01*
X520921Y715819D01*
X521241Y713424D01*
X521503Y711021D01*
X521707Y708613D01*
X521853Y706201D01*
X521941Y703786D01*
X521970Y701370D01*
X521970Y351370D01*
X521941Y348954D01*
X521853Y346539D01*
X521707Y344127D01*
X521503Y341719D01*
X521241Y339316D01*
X520921Y336921D01*
X520543Y334534D01*
X520107Y332157D01*
X519614Y329792D01*
X519064Y327438D01*
X518458Y325099D01*
X517795Y322775D01*
X517076Y320468D01*
X516301Y318179D01*
X515472Y315910D01*
X514587Y313661D01*
X513649Y311434D01*
X512657Y309230D01*
X511613Y307051D01*
X510516Y304898D01*
X509367Y302772D01*
X508167Y300674D01*
X506917Y298606D01*
X505617Y296569D01*
X504268Y294564D01*
X502872Y292591D01*
X501428Y290654D01*
X499937Y288751D01*
X498402Y286886D01*
X496821Y285058D01*
X495197Y283268D01*
X493530Y281519D01*
X491821Y279810D01*
X490072Y278143D01*
X488282Y276519D01*
X486454Y274938D01*
X484589Y273403D01*
X482686Y271912D01*
X480749Y270468D01*
X478776Y269072D01*
X476771Y267723D01*
X474734Y266423D01*
X472666Y265173D01*
X470568Y263973D01*
X468442Y262824D01*
X466289Y261727D01*
X464110Y260683D01*
X461906Y259691D01*
X459679Y258753D01*
X457430Y257868D01*
X455161Y257039D01*
X452872Y256264D01*
X450565Y255545D01*
X448241Y254882D01*
X445902Y254276D01*
X443548Y253726D01*
X441183Y253233D01*
X438806Y252797D01*
X436419Y252419D01*
X434024Y252099D01*
X431621Y251837D01*
X429213Y251633D01*
X426801Y251487D01*
X424386Y251399D01*
X421970Y251370D01*
X271970Y251370D01*
X269554Y251399D01*
X267139Y251487D01*
X264727Y251633D01*
X262319Y251837D01*
X259916Y252099D01*
X257521Y252419D01*
X255134Y252797D01*
X252757Y253233D01*
X250392Y253726D01*
X248038Y254276D01*
X245699Y254882D01*
X243375Y255545D01*
X241068Y256264D01*
X238779Y257039D01*
X236510Y257868D01*
X234261Y258753D01*
X232034Y259691D01*
X229830Y260683D01*
X227651Y261727D01*
X225498Y262824D01*
X223372Y263973D01*
X221274Y265173D01*
X219206Y266423D01*
X217169Y267723D01*
X215164Y269072D01*
X213191Y270468D01*
X211254Y271912D01*
X209351Y273403D01*
X207486Y274938D01*
X205658Y276519D01*
X203868Y278143D01*
X202119Y279810D01*
X200410Y281519D01*
X198743Y283268D01*
X197119Y285058D01*
X195538Y286886D01*
X194003Y288751D01*
X192512Y290654D01*
X191068Y292591D01*
X189672Y294564D01*
X188323Y296569D01*
X187023Y298606D01*
X185773Y300674D01*
X184573Y302772D01*
X183424Y304898D01*
X182327Y307051D01*
X181283Y309230D01*
X180291Y311434D01*
X179353Y313661D01*
X178468Y315910D01*
X177639Y318179D01*
X176864Y320468D01*
X176145Y322775D01*
X175482Y325099D01*
X174876Y327438D01*
X174326Y329792D01*
X173833Y332157D01*
X173397Y334534D01*
X173019Y336921D01*
X172699Y339316D01*
X172437Y341719D01*
X172233Y344127D01*
X172087Y346539D01*
X171999Y348954D01*
X171970Y351370D01*
D10*
X478423Y762762D02*
X478423Y773938D01*
X475319Y773938D01*
X475208Y773936D01*
X475098Y773930D01*
X474987Y773920D01*
X474877Y773906D01*
X474768Y773889D01*
X474659Y773867D01*
X474551Y773842D01*
X474445Y773812D01*
X474339Y773779D01*
X474234Y773742D01*
X474131Y773702D01*
X474030Y773657D01*
X473930Y773610D01*
X473831Y773558D01*
X473735Y773503D01*
X473641Y773445D01*
X473549Y773384D01*
X473459Y773319D01*
X473371Y773251D01*
X473286Y773180D01*
X473204Y773106D01*
X473124Y773029D01*
X473047Y772949D01*
X472973Y772867D01*
X472902Y772782D01*
X472834Y772694D01*
X472769Y772604D01*
X472708Y772512D01*
X472650Y772418D01*
X472595Y772322D01*
X472543Y772223D01*
X472496Y772123D01*
X472451Y772022D01*
X472411Y771919D01*
X472374Y771814D01*
X472341Y771708D01*
X472311Y771602D01*
X472286Y771494D01*
X472264Y771385D01*
X472247Y771276D01*
X472233Y771166D01*
X472223Y771055D01*
X472217Y770945D01*
X472215Y770834D01*
X472217Y770723D01*
X472223Y770613D01*
X472233Y770502D01*
X472247Y770392D01*
X472264Y770283D01*
X472286Y770174D01*
X472311Y770066D01*
X472341Y769960D01*
X472374Y769854D01*
X472411Y769749D01*
X472451Y769646D01*
X472496Y769545D01*
X472543Y769445D01*
X472595Y769346D01*
X472650Y769250D01*
X472708Y769156D01*
X472769Y769064D01*
X472834Y768974D01*
X472902Y768886D01*
X472973Y768801D01*
X473047Y768719D01*
X473124Y768639D01*
X473204Y768562D01*
X473286Y768488D01*
X473371Y768417D01*
X473459Y768349D01*
X473549Y768284D01*
X473641Y768223D01*
X473735Y768165D01*
X473831Y768110D01*
X473930Y768058D01*
X474030Y768011D01*
X474131Y767966D01*
X474234Y767926D01*
X474339Y767889D01*
X474445Y767856D01*
X474551Y767826D01*
X474659Y767801D01*
X474768Y767779D01*
X474877Y767762D01*
X474987Y767748D01*
X475098Y767738D01*
X475208Y767732D01*
X475319Y767730D01*
X475319Y767729D02*
X478423Y767729D01*
X467586Y771454D02*
X464481Y773938D01*
X464481Y762762D01*
X461377Y762762D02*
X467586Y762762D01*
X224423Y762762D02*
X224423Y773938D01*
X221319Y773938D01*
X221208Y773936D01*
X221098Y773930D01*
X220987Y773920D01*
X220877Y773906D01*
X220768Y773889D01*
X220659Y773867D01*
X220551Y773842D01*
X220445Y773812D01*
X220339Y773779D01*
X220234Y773742D01*
X220131Y773702D01*
X220030Y773657D01*
X219930Y773610D01*
X219831Y773558D01*
X219735Y773503D01*
X219641Y773445D01*
X219549Y773384D01*
X219459Y773319D01*
X219371Y773251D01*
X219286Y773180D01*
X219204Y773106D01*
X219124Y773029D01*
X219047Y772949D01*
X218973Y772867D01*
X218902Y772782D01*
X218834Y772694D01*
X218769Y772604D01*
X218708Y772512D01*
X218650Y772418D01*
X218595Y772322D01*
X218543Y772223D01*
X218496Y772123D01*
X218451Y772022D01*
X218411Y771919D01*
X218374Y771814D01*
X218341Y771708D01*
X218311Y771602D01*
X218286Y771494D01*
X218264Y771385D01*
X218247Y771276D01*
X218233Y771166D01*
X218223Y771055D01*
X218217Y770945D01*
X218215Y770834D01*
X218217Y770723D01*
X218223Y770613D01*
X218233Y770502D01*
X218247Y770392D01*
X218264Y770283D01*
X218286Y770174D01*
X218311Y770066D01*
X218341Y769960D01*
X218374Y769854D01*
X218411Y769749D01*
X218451Y769646D01*
X218496Y769545D01*
X218543Y769445D01*
X218595Y769346D01*
X218650Y769250D01*
X218708Y769156D01*
X218769Y769064D01*
X218834Y768974D01*
X218902Y768886D01*
X218973Y768801D01*
X219047Y768719D01*
X219124Y768639D01*
X219204Y768562D01*
X219286Y768488D01*
X219371Y768417D01*
X219459Y768349D01*
X219549Y768284D01*
X219641Y768223D01*
X219735Y768165D01*
X219831Y768110D01*
X219930Y768058D01*
X220030Y768011D01*
X220131Y767966D01*
X220234Y767926D01*
X220339Y767889D01*
X220445Y767856D01*
X220551Y767826D01*
X220659Y767801D01*
X220768Y767779D01*
X220877Y767762D01*
X220987Y767748D01*
X221098Y767738D01*
X221208Y767732D01*
X221319Y767730D01*
X221319Y767729D02*
X224423Y767729D01*
X210171Y773938D02*
X210067Y773936D01*
X209962Y773930D01*
X209858Y773920D01*
X209755Y773907D01*
X209652Y773889D01*
X209549Y773868D01*
X209448Y773843D01*
X209347Y773814D01*
X209248Y773781D01*
X209150Y773745D01*
X209054Y773705D01*
X208959Y773661D01*
X208865Y773614D01*
X208774Y773564D01*
X208685Y773510D01*
X208597Y773453D01*
X208512Y773392D01*
X208429Y773328D01*
X208349Y773262D01*
X208271Y773192D01*
X208195Y773120D01*
X208123Y773044D01*
X208053Y772966D01*
X207987Y772886D01*
X207923Y772803D01*
X207862Y772718D01*
X207805Y772630D01*
X207751Y772541D01*
X207701Y772450D01*
X207654Y772356D01*
X207610Y772261D01*
X207570Y772165D01*
X207534Y772067D01*
X207501Y771968D01*
X207472Y771867D01*
X207447Y771766D01*
X207426Y771663D01*
X207408Y771560D01*
X207395Y771457D01*
X207385Y771353D01*
X207379Y771248D01*
X207377Y771144D01*
X210171Y773939D02*
X210290Y773937D01*
X210408Y773931D01*
X210527Y773921D01*
X210645Y773908D01*
X210762Y773890D01*
X210879Y773868D01*
X210995Y773843D01*
X211110Y773814D01*
X211225Y773781D01*
X211338Y773744D01*
X211449Y773704D01*
X211560Y773660D01*
X211668Y773612D01*
X211775Y773561D01*
X211881Y773506D01*
X211984Y773447D01*
X212086Y773386D01*
X212185Y773321D01*
X212283Y773252D01*
X212377Y773181D01*
X212470Y773106D01*
X212560Y773029D01*
X212647Y772948D01*
X212732Y772865D01*
X212814Y772779D01*
X212893Y772690D01*
X212969Y772599D01*
X213042Y772505D01*
X213111Y772409D01*
X213178Y772310D01*
X213241Y772210D01*
X213301Y772107D01*
X213358Y772003D01*
X213410Y771896D01*
X213460Y771788D01*
X213506Y771679D01*
X213548Y771567D01*
X213586Y771455D01*
X208308Y768971D02*
X208233Y769045D01*
X208161Y769122D01*
X208091Y769201D01*
X208024Y769283D01*
X207960Y769367D01*
X207899Y769453D01*
X207841Y769541D01*
X207786Y769632D01*
X207734Y769724D01*
X207686Y769818D01*
X207641Y769913D01*
X207599Y770011D01*
X207561Y770109D01*
X207526Y770209D01*
X207495Y770310D01*
X207468Y770412D01*
X207444Y770515D01*
X207423Y770618D01*
X207407Y770723D01*
X207394Y770828D01*
X207384Y770933D01*
X207379Y771038D01*
X207377Y771144D01*
X208308Y768971D02*
X213586Y762762D01*
X207377Y762762D01*
D12*
X260858Y474007D02*
X272542Y474007D01*
X272542Y477252D01*
X272540Y477365D01*
X272534Y477478D01*
X272524Y477591D01*
X272510Y477704D01*
X272493Y477816D01*
X272471Y477927D01*
X272446Y478037D01*
X272416Y478147D01*
X272383Y478255D01*
X272346Y478362D01*
X272306Y478468D01*
X272261Y478572D01*
X272213Y478675D01*
X272162Y478776D01*
X272107Y478875D01*
X272049Y478972D01*
X271987Y479067D01*
X271922Y479160D01*
X271854Y479250D01*
X271783Y479338D01*
X271708Y479424D01*
X271631Y479507D01*
X271551Y479587D01*
X271468Y479664D01*
X271382Y479739D01*
X271294Y479810D01*
X271204Y479878D01*
X271111Y479943D01*
X271016Y480005D01*
X270919Y480063D01*
X270820Y480118D01*
X270719Y480169D01*
X270616Y480217D01*
X270512Y480262D01*
X270406Y480302D01*
X270299Y480339D01*
X270191Y480372D01*
X270081Y480402D01*
X269971Y480427D01*
X269860Y480449D01*
X269748Y480466D01*
X269635Y480480D01*
X269522Y480490D01*
X269409Y480496D01*
X269296Y480498D01*
X269183Y480496D01*
X269070Y480490D01*
X268957Y480480D01*
X268844Y480466D01*
X268732Y480449D01*
X268621Y480427D01*
X268511Y480402D01*
X268401Y480372D01*
X268293Y480339D01*
X268186Y480302D01*
X268080Y480262D01*
X267976Y480217D01*
X267873Y480169D01*
X267772Y480118D01*
X267673Y480063D01*
X267576Y480005D01*
X267481Y479943D01*
X267388Y479878D01*
X267298Y479810D01*
X267210Y479739D01*
X267124Y479664D01*
X267041Y479587D01*
X266961Y479507D01*
X266884Y479424D01*
X266809Y479338D01*
X266738Y479250D01*
X266670Y479160D01*
X266605Y479067D01*
X266543Y478972D01*
X266485Y478875D01*
X266430Y478776D01*
X266379Y478675D01*
X266331Y478572D01*
X266286Y478468D01*
X266246Y478362D01*
X266209Y478255D01*
X266176Y478147D01*
X266146Y478037D01*
X266121Y477927D01*
X266099Y477816D01*
X266082Y477704D01*
X266068Y477591D01*
X266058Y477478D01*
X266052Y477365D01*
X266050Y477252D01*
X266051Y477252D02*
X266051Y474007D01*
X266051Y484773D02*
X263454Y484773D01*
X266051Y484774D02*
X266152Y484776D01*
X266252Y484782D01*
X266352Y484792D01*
X266452Y484805D01*
X266551Y484823D01*
X266650Y484844D01*
X266747Y484869D01*
X266844Y484898D01*
X266939Y484931D01*
X267033Y484967D01*
X267125Y485007D01*
X267216Y485050D01*
X267305Y485097D01*
X267392Y485147D01*
X267478Y485201D01*
X267561Y485258D01*
X267641Y485318D01*
X267720Y485381D01*
X267796Y485448D01*
X267869Y485517D01*
X267939Y485589D01*
X268007Y485663D01*
X268072Y485740D01*
X268133Y485820D01*
X268192Y485902D01*
X268247Y485986D01*
X268299Y486072D01*
X268348Y486160D01*
X268393Y486250D01*
X268435Y486342D01*
X268473Y486435D01*
X268507Y486530D01*
X268538Y486625D01*
X268565Y486722D01*
X268588Y486820D01*
X268608Y486919D01*
X268623Y487019D01*
X268635Y487119D01*
X268643Y487219D01*
X268647Y487320D01*
X268647Y487420D01*
X268643Y487521D01*
X268635Y487621D01*
X268623Y487721D01*
X268608Y487821D01*
X268588Y487920D01*
X268565Y488018D01*
X268538Y488115D01*
X268507Y488210D01*
X268473Y488305D01*
X268435Y488398D01*
X268393Y488490D01*
X268348Y488580D01*
X268299Y488668D01*
X268247Y488754D01*
X268192Y488838D01*
X268133Y488920D01*
X268072Y489000D01*
X268007Y489077D01*
X267939Y489151D01*
X267869Y489223D01*
X267796Y489292D01*
X267720Y489359D01*
X267641Y489422D01*
X267561Y489482D01*
X267478Y489539D01*
X267392Y489593D01*
X267305Y489643D01*
X267216Y489690D01*
X267125Y489733D01*
X267033Y489773D01*
X266939Y489809D01*
X266844Y489842D01*
X266747Y489871D01*
X266650Y489896D01*
X266551Y489917D01*
X266452Y489935D01*
X266352Y489948D01*
X266252Y489958D01*
X266152Y489964D01*
X266051Y489966D01*
X263454Y489966D01*
X263353Y489964D01*
X263253Y489958D01*
X263153Y489948D01*
X263053Y489935D01*
X262954Y489917D01*
X262855Y489896D01*
X262758Y489871D01*
X262661Y489842D01*
X262566Y489809D01*
X262472Y489773D01*
X262380Y489733D01*
X262289Y489690D01*
X262200Y489643D01*
X262113Y489593D01*
X262027Y489539D01*
X261944Y489482D01*
X261864Y489422D01*
X261785Y489359D01*
X261709Y489292D01*
X261636Y489223D01*
X261566Y489151D01*
X261498Y489077D01*
X261433Y489000D01*
X261372Y488920D01*
X261313Y488838D01*
X261258Y488754D01*
X261206Y488668D01*
X261157Y488580D01*
X261112Y488490D01*
X261070Y488398D01*
X261032Y488305D01*
X260998Y488210D01*
X260967Y488115D01*
X260940Y488018D01*
X260917Y487920D01*
X260897Y487821D01*
X260882Y487721D01*
X260870Y487621D01*
X260862Y487521D01*
X260858Y487420D01*
X260858Y487320D01*
X260862Y487219D01*
X260870Y487119D01*
X260882Y487019D01*
X260897Y486919D01*
X260917Y486820D01*
X260940Y486722D01*
X260967Y486625D01*
X260998Y486530D01*
X261032Y486435D01*
X261070Y486342D01*
X261112Y486250D01*
X261157Y486160D01*
X261206Y486072D01*
X261258Y485986D01*
X261313Y485902D01*
X261372Y485820D01*
X261433Y485740D01*
X261498Y485663D01*
X261566Y485589D01*
X261636Y485517D01*
X261709Y485448D01*
X261785Y485381D01*
X261864Y485318D01*
X261944Y485258D01*
X262027Y485201D01*
X262113Y485147D01*
X262200Y485097D01*
X262289Y485050D01*
X262380Y485007D01*
X262472Y484967D01*
X262566Y484931D01*
X262661Y484898D01*
X262758Y484869D01*
X262855Y484844D01*
X262954Y484823D01*
X263053Y484805D01*
X263153Y484792D01*
X263253Y484782D01*
X263353Y484776D01*
X263454Y484774D01*
X260858Y496640D02*
X260858Y499236D01*
X260858Y496640D02*
X260860Y496553D01*
X260866Y496465D01*
X260876Y496379D01*
X260889Y496292D01*
X260907Y496207D01*
X260928Y496122D01*
X260953Y496038D01*
X260982Y495956D01*
X261015Y495875D01*
X261051Y495795D01*
X261090Y495717D01*
X261134Y495641D01*
X261180Y495567D01*
X261230Y495496D01*
X261283Y495426D01*
X261339Y495359D01*
X261398Y495295D01*
X261460Y495233D01*
X261524Y495174D01*
X261591Y495118D01*
X261661Y495065D01*
X261732Y495015D01*
X261806Y494969D01*
X261882Y494925D01*
X261960Y494886D01*
X262040Y494850D01*
X262121Y494817D01*
X262203Y494788D01*
X262287Y494763D01*
X262372Y494742D01*
X262457Y494724D01*
X262544Y494711D01*
X262630Y494701D01*
X262718Y494695D01*
X262805Y494693D01*
X266700Y494693D01*
X266787Y494695D01*
X266875Y494701D01*
X266961Y494711D01*
X267048Y494724D01*
X267133Y494742D01*
X267218Y494763D01*
X267302Y494788D01*
X267384Y494817D01*
X267465Y494850D01*
X267545Y494886D01*
X267623Y494925D01*
X267699Y494969D01*
X267773Y495015D01*
X267844Y495065D01*
X267914Y495118D01*
X267981Y495174D01*
X268045Y495233D01*
X268107Y495295D01*
X268166Y495359D01*
X268222Y495426D01*
X268275Y495496D01*
X268325Y495567D01*
X268371Y495641D01*
X268415Y495717D01*
X268454Y495795D01*
X268490Y495875D01*
X268523Y495956D01*
X268552Y496038D01*
X268577Y496122D01*
X268598Y496207D01*
X268616Y496292D01*
X268629Y496379D01*
X268639Y496465D01*
X268645Y496553D01*
X268647Y496640D01*
X268647Y499236D01*
X260858Y505390D02*
X260858Y508635D01*
X260858Y505390D02*
X260860Y505303D01*
X260866Y505215D01*
X260876Y505129D01*
X260889Y505042D01*
X260907Y504957D01*
X260928Y504872D01*
X260953Y504788D01*
X260982Y504706D01*
X261015Y504625D01*
X261051Y504545D01*
X261090Y504467D01*
X261134Y504391D01*
X261180Y504317D01*
X261230Y504246D01*
X261283Y504176D01*
X261339Y504109D01*
X261398Y504045D01*
X261460Y503983D01*
X261524Y503924D01*
X261591Y503868D01*
X261661Y503815D01*
X261732Y503765D01*
X261806Y503719D01*
X261882Y503675D01*
X261960Y503636D01*
X262040Y503600D01*
X262121Y503567D01*
X262203Y503538D01*
X262287Y503513D01*
X262372Y503492D01*
X262457Y503474D01*
X262544Y503461D01*
X262630Y503451D01*
X262718Y503445D01*
X262805Y503443D01*
X262805Y503442D02*
X266051Y503442D01*
X266051Y503443D02*
X266152Y503445D01*
X266252Y503451D01*
X266352Y503461D01*
X266452Y503474D01*
X266551Y503492D01*
X266650Y503513D01*
X266747Y503538D01*
X266844Y503567D01*
X266939Y503600D01*
X267033Y503636D01*
X267125Y503676D01*
X267216Y503719D01*
X267305Y503766D01*
X267392Y503816D01*
X267478Y503870D01*
X267561Y503927D01*
X267641Y503987D01*
X267720Y504050D01*
X267796Y504117D01*
X267869Y504186D01*
X267939Y504258D01*
X268007Y504332D01*
X268072Y504409D01*
X268133Y504489D01*
X268192Y504571D01*
X268247Y504655D01*
X268299Y504741D01*
X268348Y504829D01*
X268393Y504919D01*
X268435Y505011D01*
X268473Y505104D01*
X268507Y505199D01*
X268538Y505294D01*
X268565Y505391D01*
X268588Y505489D01*
X268608Y505588D01*
X268623Y505688D01*
X268635Y505788D01*
X268643Y505888D01*
X268647Y505989D01*
X268647Y506089D01*
X268643Y506190D01*
X268635Y506290D01*
X268623Y506390D01*
X268608Y506490D01*
X268588Y506589D01*
X268565Y506687D01*
X268538Y506784D01*
X268507Y506879D01*
X268473Y506974D01*
X268435Y507067D01*
X268393Y507159D01*
X268348Y507249D01*
X268299Y507337D01*
X268247Y507423D01*
X268192Y507507D01*
X268133Y507589D01*
X268072Y507669D01*
X268007Y507746D01*
X267939Y507820D01*
X267869Y507892D01*
X267796Y507961D01*
X267720Y508028D01*
X267641Y508091D01*
X267561Y508151D01*
X267478Y508208D01*
X267392Y508262D01*
X267305Y508312D01*
X267216Y508359D01*
X267125Y508402D01*
X267033Y508442D01*
X266939Y508478D01*
X266844Y508511D01*
X266747Y508540D01*
X266650Y508565D01*
X266551Y508586D01*
X266452Y508604D01*
X266352Y508617D01*
X266252Y508627D01*
X266152Y508633D01*
X266051Y508635D01*
X264753Y508635D01*
X264753Y503442D01*
X260858Y513865D02*
X272542Y513865D01*
X268647Y519058D02*
X264753Y513865D01*
X266375Y516137D02*
X260858Y519058D01*
X268647Y522287D02*
X268647Y526182D01*
X272542Y523585D02*
X262805Y523585D01*
X262805Y523586D02*
X262718Y523588D01*
X262630Y523594D01*
X262544Y523604D01*
X262457Y523617D01*
X262372Y523635D01*
X262287Y523656D01*
X262203Y523681D01*
X262121Y523710D01*
X262040Y523743D01*
X261960Y523779D01*
X261882Y523818D01*
X261806Y523862D01*
X261732Y523908D01*
X261661Y523958D01*
X261591Y524011D01*
X261524Y524067D01*
X261460Y524126D01*
X261398Y524188D01*
X261339Y524252D01*
X261283Y524319D01*
X261230Y524389D01*
X261180Y524460D01*
X261134Y524534D01*
X261090Y524610D01*
X261051Y524688D01*
X261015Y524768D01*
X260982Y524849D01*
X260953Y524931D01*
X260928Y525015D01*
X260907Y525100D01*
X260889Y525185D01*
X260876Y525272D01*
X260866Y525358D01*
X260860Y525446D01*
X260858Y525533D01*
X260858Y526182D01*
X267349Y531156D02*
X267349Y534402D01*
X267350Y534402D02*
X267348Y534515D01*
X267342Y534628D01*
X267332Y534741D01*
X267318Y534854D01*
X267301Y534966D01*
X267279Y535077D01*
X267254Y535187D01*
X267224Y535297D01*
X267191Y535405D01*
X267154Y535512D01*
X267114Y535618D01*
X267069Y535722D01*
X267021Y535825D01*
X266970Y535926D01*
X266915Y536025D01*
X266857Y536122D01*
X266795Y536217D01*
X266730Y536310D01*
X266662Y536400D01*
X266591Y536488D01*
X266516Y536574D01*
X266439Y536657D01*
X266359Y536737D01*
X266276Y536814D01*
X266190Y536889D01*
X266102Y536960D01*
X266012Y537028D01*
X265919Y537093D01*
X265824Y537155D01*
X265727Y537213D01*
X265628Y537268D01*
X265527Y537319D01*
X265424Y537367D01*
X265320Y537412D01*
X265214Y537452D01*
X265107Y537489D01*
X264999Y537522D01*
X264889Y537552D01*
X264779Y537577D01*
X264668Y537599D01*
X264556Y537616D01*
X264443Y537630D01*
X264330Y537640D01*
X264217Y537646D01*
X264104Y537648D01*
X263991Y537646D01*
X263878Y537640D01*
X263765Y537630D01*
X263652Y537616D01*
X263540Y537599D01*
X263429Y537577D01*
X263319Y537552D01*
X263209Y537522D01*
X263101Y537489D01*
X262994Y537452D01*
X262888Y537412D01*
X262784Y537367D01*
X262681Y537319D01*
X262580Y537268D01*
X262481Y537213D01*
X262384Y537155D01*
X262289Y537093D01*
X262196Y537028D01*
X262106Y536960D01*
X262018Y536889D01*
X261932Y536814D01*
X261849Y536737D01*
X261769Y536657D01*
X261692Y536574D01*
X261617Y536488D01*
X261546Y536400D01*
X261478Y536310D01*
X261413Y536217D01*
X261351Y536122D01*
X261293Y536025D01*
X261238Y535926D01*
X261187Y535825D01*
X261139Y535722D01*
X261094Y535618D01*
X261054Y535512D01*
X261017Y535405D01*
X260984Y535297D01*
X260954Y535187D01*
X260929Y535077D01*
X260907Y534966D01*
X260890Y534854D01*
X260876Y534741D01*
X260866Y534628D01*
X260860Y534515D01*
X260858Y534402D01*
X260858Y531156D01*
X272542Y531156D01*
X272542Y534402D01*
X272540Y534503D01*
X272534Y534603D01*
X272524Y534703D01*
X272511Y534803D01*
X272493Y534902D01*
X272472Y535001D01*
X272447Y535098D01*
X272418Y535195D01*
X272385Y535290D01*
X272349Y535384D01*
X272309Y535476D01*
X272266Y535567D01*
X272219Y535656D01*
X272169Y535743D01*
X272115Y535829D01*
X272058Y535912D01*
X271998Y535992D01*
X271935Y536071D01*
X271868Y536147D01*
X271799Y536220D01*
X271727Y536290D01*
X271653Y536358D01*
X271576Y536423D01*
X271496Y536484D01*
X271414Y536543D01*
X271330Y536598D01*
X271244Y536650D01*
X271156Y536699D01*
X271066Y536744D01*
X270974Y536786D01*
X270881Y536824D01*
X270786Y536858D01*
X270691Y536889D01*
X270594Y536916D01*
X270496Y536939D01*
X270397Y536959D01*
X270297Y536974D01*
X270197Y536986D01*
X270097Y536994D01*
X269996Y536998D01*
X269896Y536998D01*
X269795Y536994D01*
X269695Y536986D01*
X269595Y536974D01*
X269495Y536959D01*
X269396Y536939D01*
X269298Y536916D01*
X269201Y536889D01*
X269106Y536858D01*
X269011Y536824D01*
X268918Y536786D01*
X268826Y536744D01*
X268736Y536699D01*
X268648Y536650D01*
X268562Y536598D01*
X268478Y536543D01*
X268396Y536484D01*
X268316Y536423D01*
X268239Y536358D01*
X268165Y536290D01*
X268093Y536220D01*
X268024Y536147D01*
X267957Y536071D01*
X267894Y535992D01*
X267834Y535912D01*
X267777Y535829D01*
X267723Y535743D01*
X267673Y535656D01*
X267626Y535567D01*
X267583Y535476D01*
X267543Y535384D01*
X267507Y535290D01*
X267474Y535195D01*
X267445Y535098D01*
X267420Y535001D01*
X267399Y534902D01*
X267381Y534803D01*
X267368Y534703D01*
X267358Y534603D01*
X267352Y534503D01*
X267350Y534402D01*
X260858Y543871D02*
X260858Y547116D01*
X260858Y543871D02*
X260860Y543784D01*
X260866Y543696D01*
X260876Y543610D01*
X260889Y543523D01*
X260907Y543438D01*
X260928Y543353D01*
X260953Y543269D01*
X260982Y543187D01*
X261015Y543106D01*
X261051Y543026D01*
X261090Y542948D01*
X261134Y542872D01*
X261180Y542798D01*
X261230Y542727D01*
X261283Y542657D01*
X261339Y542590D01*
X261398Y542526D01*
X261460Y542464D01*
X261524Y542405D01*
X261591Y542349D01*
X261661Y542296D01*
X261732Y542246D01*
X261806Y542200D01*
X261882Y542156D01*
X261960Y542117D01*
X262040Y542081D01*
X262121Y542048D01*
X262203Y542019D01*
X262287Y541994D01*
X262372Y541973D01*
X262457Y541955D01*
X262544Y541942D01*
X262630Y541932D01*
X262718Y541926D01*
X262805Y541924D01*
X262805Y541923D02*
X266051Y541923D01*
X266051Y541924D02*
X266152Y541926D01*
X266252Y541932D01*
X266352Y541942D01*
X266452Y541955D01*
X266551Y541973D01*
X266650Y541994D01*
X266747Y542019D01*
X266844Y542048D01*
X266939Y542081D01*
X267033Y542117D01*
X267125Y542157D01*
X267216Y542200D01*
X267305Y542247D01*
X267392Y542297D01*
X267478Y542351D01*
X267561Y542408D01*
X267641Y542468D01*
X267720Y542531D01*
X267796Y542598D01*
X267869Y542667D01*
X267939Y542739D01*
X268007Y542813D01*
X268072Y542890D01*
X268133Y542970D01*
X268192Y543052D01*
X268247Y543136D01*
X268299Y543222D01*
X268348Y543310D01*
X268393Y543400D01*
X268435Y543492D01*
X268473Y543585D01*
X268507Y543680D01*
X268538Y543775D01*
X268565Y543872D01*
X268588Y543970D01*
X268608Y544069D01*
X268623Y544169D01*
X268635Y544269D01*
X268643Y544369D01*
X268647Y544470D01*
X268647Y544570D01*
X268643Y544671D01*
X268635Y544771D01*
X268623Y544871D01*
X268608Y544971D01*
X268588Y545070D01*
X268565Y545168D01*
X268538Y545265D01*
X268507Y545360D01*
X268473Y545455D01*
X268435Y545548D01*
X268393Y545640D01*
X268348Y545730D01*
X268299Y545818D01*
X268247Y545904D01*
X268192Y545988D01*
X268133Y546070D01*
X268072Y546150D01*
X268007Y546227D01*
X267939Y546301D01*
X267869Y546373D01*
X267796Y546442D01*
X267720Y546509D01*
X267641Y546572D01*
X267561Y546632D01*
X267478Y546689D01*
X267392Y546743D01*
X267305Y546793D01*
X267216Y546840D01*
X267125Y546883D01*
X267033Y546923D01*
X266939Y546959D01*
X266844Y546992D01*
X266747Y547021D01*
X266650Y547046D01*
X266551Y547067D01*
X266452Y547085D01*
X266352Y547098D01*
X266252Y547108D01*
X266152Y547114D01*
X266051Y547116D01*
X264753Y547116D01*
X264753Y541923D01*
X265402Y554042D02*
X265402Y556963D01*
X265402Y554042D02*
X265400Y553948D01*
X265394Y553854D01*
X265385Y553761D01*
X265371Y553668D01*
X265354Y553576D01*
X265332Y553484D01*
X265308Y553394D01*
X265279Y553304D01*
X265247Y553216D01*
X265211Y553129D01*
X265171Y553044D01*
X265128Y552961D01*
X265082Y552879D01*
X265032Y552799D01*
X264979Y552722D01*
X264923Y552647D01*
X264864Y552574D01*
X264802Y552503D01*
X264737Y552435D01*
X264669Y552370D01*
X264598Y552308D01*
X264525Y552249D01*
X264450Y552193D01*
X264373Y552140D01*
X264293Y552090D01*
X264211Y552044D01*
X264128Y552001D01*
X264043Y551961D01*
X263956Y551925D01*
X263868Y551893D01*
X263778Y551864D01*
X263688Y551840D01*
X263596Y551818D01*
X263504Y551801D01*
X263411Y551787D01*
X263318Y551778D01*
X263224Y551772D01*
X263130Y551770D01*
X263036Y551772D01*
X262942Y551778D01*
X262849Y551787D01*
X262756Y551801D01*
X262664Y551818D01*
X262572Y551840D01*
X262482Y551864D01*
X262392Y551893D01*
X262304Y551925D01*
X262217Y551961D01*
X262132Y552001D01*
X262049Y552044D01*
X261967Y552090D01*
X261887Y552140D01*
X261810Y552193D01*
X261735Y552249D01*
X261662Y552308D01*
X261591Y552370D01*
X261523Y552435D01*
X261458Y552503D01*
X261396Y552574D01*
X261337Y552647D01*
X261281Y552722D01*
X261228Y552799D01*
X261178Y552879D01*
X261132Y552961D01*
X261089Y553044D01*
X261049Y553129D01*
X261013Y553216D01*
X260981Y553304D01*
X260952Y553394D01*
X260928Y553484D01*
X260906Y553576D01*
X260889Y553668D01*
X260875Y553761D01*
X260866Y553854D01*
X260860Y553948D01*
X260858Y554042D01*
X260858Y556963D01*
X266700Y556963D01*
X266787Y556961D01*
X266875Y556955D01*
X266961Y556945D01*
X267048Y556932D01*
X267133Y556914D01*
X267218Y556893D01*
X267302Y556868D01*
X267384Y556839D01*
X267465Y556806D01*
X267545Y556770D01*
X267623Y556731D01*
X267699Y556687D01*
X267773Y556641D01*
X267844Y556591D01*
X267914Y556538D01*
X267981Y556482D01*
X268045Y556423D01*
X268107Y556361D01*
X268166Y556297D01*
X268222Y556230D01*
X268275Y556160D01*
X268325Y556089D01*
X268371Y556015D01*
X268415Y555939D01*
X268454Y555861D01*
X268490Y555781D01*
X268523Y555700D01*
X268552Y555618D01*
X268577Y555534D01*
X268598Y555449D01*
X268616Y555364D01*
X268629Y555277D01*
X268639Y555191D01*
X268645Y555103D01*
X268647Y555016D01*
X268647Y552419D01*
X260858Y564005D02*
X260858Y567250D01*
X260858Y564005D02*
X260860Y563918D01*
X260866Y563830D01*
X260876Y563744D01*
X260889Y563657D01*
X260907Y563572D01*
X260928Y563487D01*
X260953Y563403D01*
X260982Y563321D01*
X261015Y563240D01*
X261051Y563160D01*
X261090Y563082D01*
X261134Y563006D01*
X261180Y562932D01*
X261230Y562861D01*
X261283Y562791D01*
X261339Y562724D01*
X261398Y562660D01*
X261460Y562598D01*
X261524Y562539D01*
X261591Y562483D01*
X261661Y562430D01*
X261732Y562380D01*
X261806Y562334D01*
X261882Y562290D01*
X261960Y562251D01*
X262040Y562215D01*
X262121Y562182D01*
X262203Y562153D01*
X262287Y562128D01*
X262372Y562107D01*
X262457Y562089D01*
X262544Y562076D01*
X262630Y562066D01*
X262718Y562060D01*
X262805Y562058D01*
X262805Y562057D02*
X266700Y562057D01*
X266700Y562058D02*
X266787Y562060D01*
X266875Y562066D01*
X266961Y562076D01*
X267048Y562089D01*
X267133Y562107D01*
X267218Y562128D01*
X267302Y562153D01*
X267384Y562182D01*
X267465Y562215D01*
X267545Y562251D01*
X267623Y562290D01*
X267699Y562334D01*
X267773Y562380D01*
X267844Y562430D01*
X267914Y562483D01*
X267981Y562539D01*
X268045Y562598D01*
X268107Y562660D01*
X268166Y562724D01*
X268222Y562791D01*
X268275Y562861D01*
X268325Y562932D01*
X268371Y563006D01*
X268415Y563082D01*
X268454Y563160D01*
X268490Y563240D01*
X268523Y563321D01*
X268552Y563403D01*
X268577Y563487D01*
X268598Y563572D01*
X268616Y563657D01*
X268629Y563744D01*
X268639Y563830D01*
X268645Y563918D01*
X268647Y564005D01*
X268647Y567250D01*
X258911Y567250D01*
X258824Y567248D01*
X258736Y567242D01*
X258650Y567232D01*
X258563Y567219D01*
X258478Y567201D01*
X258393Y567180D01*
X258309Y567155D01*
X258227Y567126D01*
X258146Y567093D01*
X258066Y567057D01*
X257988Y567018D01*
X257912Y566974D01*
X257838Y566928D01*
X257767Y566878D01*
X257697Y566825D01*
X257630Y566769D01*
X257566Y566710D01*
X257504Y566649D01*
X257445Y566584D01*
X257389Y566517D01*
X257336Y566447D01*
X257286Y566376D01*
X257240Y566302D01*
X257196Y566226D01*
X257157Y566148D01*
X257121Y566068D01*
X257088Y565987D01*
X257059Y565905D01*
X257034Y565821D01*
X257013Y565736D01*
X256995Y565651D01*
X256982Y565564D01*
X256972Y565478D01*
X256966Y565390D01*
X256964Y565303D01*
X256963Y565303D02*
X256963Y562706D01*
X262805Y572553D02*
X272542Y572553D01*
X262805Y572553D02*
X262718Y572555D01*
X262630Y572561D01*
X262544Y572571D01*
X262457Y572584D01*
X262372Y572602D01*
X262287Y572623D01*
X262203Y572648D01*
X262121Y572677D01*
X262040Y572710D01*
X261960Y572746D01*
X261882Y572785D01*
X261806Y572829D01*
X261732Y572875D01*
X261661Y572925D01*
X261591Y572978D01*
X261524Y573034D01*
X261460Y573093D01*
X261398Y573155D01*
X261339Y573219D01*
X261283Y573286D01*
X261230Y573356D01*
X261180Y573427D01*
X261134Y573501D01*
X261090Y573577D01*
X261051Y573655D01*
X261015Y573735D01*
X260982Y573816D01*
X260953Y573898D01*
X260928Y573982D01*
X260907Y574067D01*
X260889Y574152D01*
X260876Y574239D01*
X260866Y574325D01*
X260860Y574413D01*
X260858Y574500D01*
X260858Y580446D02*
X260858Y583692D01*
X260858Y580446D02*
X260860Y580359D01*
X260866Y580271D01*
X260876Y580185D01*
X260889Y580098D01*
X260907Y580013D01*
X260928Y579928D01*
X260953Y579844D01*
X260982Y579762D01*
X261015Y579681D01*
X261051Y579601D01*
X261090Y579523D01*
X261134Y579447D01*
X261180Y579373D01*
X261230Y579302D01*
X261283Y579232D01*
X261339Y579165D01*
X261398Y579101D01*
X261460Y579039D01*
X261524Y578980D01*
X261591Y578924D01*
X261661Y578871D01*
X261732Y578821D01*
X261806Y578775D01*
X261882Y578731D01*
X261960Y578692D01*
X262040Y578656D01*
X262121Y578623D01*
X262203Y578594D01*
X262287Y578569D01*
X262372Y578548D01*
X262457Y578530D01*
X262544Y578517D01*
X262630Y578507D01*
X262718Y578501D01*
X262805Y578499D01*
X266051Y578499D01*
X266051Y578500D02*
X266152Y578502D01*
X266252Y578508D01*
X266352Y578518D01*
X266452Y578531D01*
X266551Y578549D01*
X266650Y578570D01*
X266747Y578595D01*
X266844Y578624D01*
X266939Y578657D01*
X267033Y578693D01*
X267125Y578733D01*
X267216Y578776D01*
X267305Y578823D01*
X267392Y578873D01*
X267478Y578927D01*
X267561Y578984D01*
X267641Y579044D01*
X267720Y579107D01*
X267796Y579174D01*
X267869Y579243D01*
X267939Y579315D01*
X268007Y579389D01*
X268072Y579466D01*
X268133Y579546D01*
X268192Y579628D01*
X268247Y579712D01*
X268299Y579798D01*
X268348Y579886D01*
X268393Y579976D01*
X268435Y580068D01*
X268473Y580161D01*
X268507Y580256D01*
X268538Y580351D01*
X268565Y580448D01*
X268588Y580546D01*
X268608Y580645D01*
X268623Y580745D01*
X268635Y580845D01*
X268643Y580945D01*
X268647Y581046D01*
X268647Y581146D01*
X268643Y581247D01*
X268635Y581347D01*
X268623Y581447D01*
X268608Y581547D01*
X268588Y581646D01*
X268565Y581744D01*
X268538Y581841D01*
X268507Y581936D01*
X268473Y582031D01*
X268435Y582124D01*
X268393Y582216D01*
X268348Y582306D01*
X268299Y582394D01*
X268247Y582480D01*
X268192Y582564D01*
X268133Y582646D01*
X268072Y582726D01*
X268007Y582803D01*
X267939Y582877D01*
X267869Y582949D01*
X267796Y583018D01*
X267720Y583085D01*
X267641Y583148D01*
X267561Y583208D01*
X267478Y583265D01*
X267392Y583319D01*
X267305Y583369D01*
X267216Y583416D01*
X267125Y583459D01*
X267033Y583499D01*
X266939Y583535D01*
X266844Y583568D01*
X266747Y583597D01*
X266650Y583622D01*
X266551Y583643D01*
X266452Y583661D01*
X266352Y583674D01*
X266252Y583684D01*
X266152Y583690D01*
X266051Y583692D01*
X264753Y583692D01*
X264753Y578499D01*
D10*
X623570Y513080D02*
X623570Y411480D01*
X681990Y411480D02*
X681990Y513080D01*
X681990Y411480D02*
X623570Y411480D01*
X623570Y513080D02*
X642620Y513080D01*
X662940Y513080D02*
X681990Y513080D01*
X662940Y513080D02*
X662937Y512833D01*
X662928Y512585D01*
X662913Y512338D01*
X662892Y512092D01*
X662865Y511846D01*
X662832Y511601D01*
X662793Y511356D01*
X662748Y511113D01*
X662697Y510871D01*
X662640Y510630D01*
X662578Y510391D01*
X662509Y510153D01*
X662435Y509917D01*
X662355Y509683D01*
X662270Y509451D01*
X662178Y509221D01*
X662082Y508993D01*
X661979Y508768D01*
X661872Y508545D01*
X661758Y508325D01*
X661640Y508108D01*
X661516Y507893D01*
X661387Y507682D01*
X661253Y507474D01*
X661114Y507269D01*
X660970Y507068D01*
X660822Y506870D01*
X660668Y506676D01*
X660510Y506486D01*
X660347Y506300D01*
X660180Y506118D01*
X660008Y505940D01*
X659832Y505766D01*
X659652Y505596D01*
X659467Y505431D01*
X659279Y505271D01*
X659087Y505115D01*
X658891Y504963D01*
X658692Y504817D01*
X658489Y504675D01*
X658282Y504539D01*
X658073Y504407D01*
X657860Y504281D01*
X657644Y504160D01*
X657426Y504044D01*
X657204Y503934D01*
X656980Y503829D01*
X656754Y503729D01*
X656525Y503635D01*
X656294Y503547D01*
X656060Y503464D01*
X655825Y503387D01*
X655588Y503316D01*
X655350Y503250D01*
X655110Y503191D01*
X654868Y503137D01*
X654625Y503089D01*
X654382Y503047D01*
X654137Y503011D01*
X653891Y502981D01*
X653645Y502957D01*
X653398Y502939D01*
X653151Y502927D01*
X652904Y502921D01*
X652656Y502921D01*
X652409Y502927D01*
X652162Y502939D01*
X651915Y502957D01*
X651669Y502981D01*
X651423Y503011D01*
X651178Y503047D01*
X650935Y503089D01*
X650692Y503137D01*
X650450Y503191D01*
X650210Y503250D01*
X649972Y503316D01*
X649735Y503387D01*
X649500Y503464D01*
X649266Y503547D01*
X649035Y503635D01*
X648806Y503729D01*
X648580Y503829D01*
X648356Y503934D01*
X648134Y504044D01*
X647916Y504160D01*
X647700Y504281D01*
X647487Y504407D01*
X647278Y504539D01*
X647071Y504675D01*
X646868Y504817D01*
X646669Y504963D01*
X646473Y505115D01*
X646281Y505271D01*
X646093Y505431D01*
X645908Y505596D01*
X645728Y505766D01*
X645552Y505940D01*
X645380Y506118D01*
X645213Y506300D01*
X645050Y506486D01*
X644892Y506676D01*
X644738Y506870D01*
X644590Y507068D01*
X644446Y507269D01*
X644307Y507474D01*
X644173Y507682D01*
X644044Y507893D01*
X643920Y508108D01*
X643802Y508325D01*
X643688Y508545D01*
X643581Y508768D01*
X643478Y508993D01*
X643382Y509221D01*
X643290Y509451D01*
X643205Y509683D01*
X643125Y509917D01*
X643051Y510153D01*
X642982Y510391D01*
X642920Y510630D01*
X642863Y510871D01*
X642812Y511113D01*
X642767Y511356D01*
X642728Y511601D01*
X642695Y511846D01*
X642668Y512092D01*
X642647Y512338D01*
X642632Y512585D01*
X642623Y512833D01*
X642620Y513080D01*
D11*
X643255Y519430D02*
X643255Y527685D01*
X643255Y519430D02*
X643253Y519319D01*
X643247Y519209D01*
X643238Y519098D01*
X643224Y518988D01*
X643207Y518879D01*
X643186Y518770D01*
X643161Y518662D01*
X643132Y518555D01*
X643100Y518449D01*
X643064Y518344D01*
X643024Y518241D01*
X642981Y518139D01*
X642934Y518038D01*
X642883Y517939D01*
X642830Y517842D01*
X642773Y517748D01*
X642712Y517655D01*
X642649Y517564D01*
X642582Y517475D01*
X642512Y517389D01*
X642439Y517306D01*
X642364Y517224D01*
X642286Y517146D01*
X642204Y517071D01*
X642121Y516998D01*
X642035Y516928D01*
X641946Y516861D01*
X641855Y516798D01*
X641762Y516737D01*
X641668Y516680D01*
X641571Y516627D01*
X641472Y516576D01*
X641371Y516529D01*
X641269Y516486D01*
X641166Y516446D01*
X641061Y516410D01*
X640955Y516378D01*
X640848Y516349D01*
X640740Y516324D01*
X640631Y516303D01*
X640522Y516286D01*
X640412Y516272D01*
X640301Y516263D01*
X640191Y516257D01*
X640080Y516255D01*
X639969Y516257D01*
X639859Y516263D01*
X639748Y516272D01*
X639638Y516286D01*
X639529Y516303D01*
X639420Y516324D01*
X639312Y516349D01*
X639205Y516378D01*
X639099Y516410D01*
X638994Y516446D01*
X638891Y516486D01*
X638789Y516529D01*
X638688Y516576D01*
X638589Y516627D01*
X638493Y516680D01*
X638398Y516737D01*
X638305Y516798D01*
X638214Y516861D01*
X638125Y516928D01*
X638039Y516998D01*
X637956Y517071D01*
X637874Y517146D01*
X637796Y517224D01*
X637721Y517306D01*
X637648Y517389D01*
X637578Y517475D01*
X637511Y517564D01*
X637448Y517655D01*
X637387Y517748D01*
X637330Y517843D01*
X637277Y517939D01*
X637226Y518038D01*
X637179Y518139D01*
X637136Y518241D01*
X637096Y518344D01*
X637060Y518449D01*
X637028Y518555D01*
X636999Y518662D01*
X636974Y518770D01*
X636953Y518879D01*
X636936Y518988D01*
X636922Y519098D01*
X636913Y519209D01*
X636907Y519319D01*
X636905Y519430D01*
X636905Y527685D01*
X631444Y516255D02*
X628269Y516255D01*
X628158Y516257D01*
X628048Y516263D01*
X627937Y516272D01*
X627827Y516286D01*
X627718Y516303D01*
X627609Y516324D01*
X627501Y516349D01*
X627394Y516378D01*
X627288Y516410D01*
X627183Y516446D01*
X627080Y516486D01*
X626978Y516529D01*
X626877Y516576D01*
X626778Y516627D01*
X626682Y516680D01*
X626587Y516737D01*
X626494Y516798D01*
X626403Y516861D01*
X626314Y516928D01*
X626228Y516998D01*
X626145Y517071D01*
X626063Y517146D01*
X625985Y517224D01*
X625910Y517306D01*
X625837Y517389D01*
X625767Y517475D01*
X625700Y517564D01*
X625637Y517655D01*
X625576Y517748D01*
X625519Y517843D01*
X625466Y517939D01*
X625415Y518038D01*
X625368Y518139D01*
X625325Y518241D01*
X625285Y518344D01*
X625249Y518449D01*
X625217Y518555D01*
X625188Y518662D01*
X625163Y518770D01*
X625142Y518879D01*
X625125Y518988D01*
X625111Y519098D01*
X625102Y519209D01*
X625096Y519319D01*
X625094Y519430D01*
X625096Y519541D01*
X625102Y519651D01*
X625111Y519762D01*
X625125Y519872D01*
X625142Y519981D01*
X625163Y520090D01*
X625188Y520198D01*
X625217Y520305D01*
X625249Y520411D01*
X625285Y520516D01*
X625325Y520619D01*
X625368Y520721D01*
X625415Y520822D01*
X625466Y520921D01*
X625519Y521018D01*
X625576Y521112D01*
X625637Y521205D01*
X625700Y521296D01*
X625767Y521385D01*
X625837Y521471D01*
X625910Y521554D01*
X625985Y521636D01*
X626063Y521714D01*
X626145Y521789D01*
X626228Y521862D01*
X626314Y521932D01*
X626403Y521999D01*
X626494Y522062D01*
X626587Y522123D01*
X626682Y522180D01*
X626778Y522233D01*
X626877Y522284D01*
X626978Y522331D01*
X627080Y522374D01*
X627183Y522414D01*
X627288Y522450D01*
X627394Y522482D01*
X627501Y522511D01*
X627609Y522536D01*
X627718Y522557D01*
X627827Y522574D01*
X627937Y522588D01*
X628048Y522597D01*
X628158Y522603D01*
X628269Y522605D01*
X627634Y527685D02*
X631444Y527685D01*
X627634Y527685D02*
X627534Y527683D01*
X627435Y527677D01*
X627335Y527667D01*
X627237Y527654D01*
X627138Y527636D01*
X627041Y527615D01*
X626945Y527590D01*
X626849Y527561D01*
X626755Y527528D01*
X626662Y527492D01*
X626571Y527452D01*
X626481Y527408D01*
X626393Y527361D01*
X626307Y527311D01*
X626223Y527257D01*
X626141Y527200D01*
X626062Y527140D01*
X625984Y527076D01*
X625910Y527010D01*
X625838Y526941D01*
X625769Y526869D01*
X625703Y526795D01*
X625639Y526717D01*
X625579Y526638D01*
X625522Y526556D01*
X625468Y526472D01*
X625418Y526386D01*
X625371Y526298D01*
X625327Y526208D01*
X625287Y526117D01*
X625251Y526024D01*
X625218Y525930D01*
X625189Y525834D01*
X625164Y525738D01*
X625143Y525641D01*
X625125Y525542D01*
X625112Y525444D01*
X625102Y525344D01*
X625096Y525245D01*
X625094Y525145D01*
X625096Y525045D01*
X625102Y524946D01*
X625112Y524846D01*
X625125Y524748D01*
X625143Y524649D01*
X625164Y524552D01*
X625189Y524456D01*
X625218Y524360D01*
X625251Y524266D01*
X625287Y524173D01*
X625327Y524082D01*
X625371Y523992D01*
X625418Y523904D01*
X625468Y523818D01*
X625522Y523734D01*
X625579Y523652D01*
X625639Y523573D01*
X625703Y523495D01*
X625769Y523421D01*
X625838Y523349D01*
X625910Y523280D01*
X625984Y523214D01*
X626062Y523150D01*
X626141Y523090D01*
X626223Y523033D01*
X626307Y522979D01*
X626393Y522929D01*
X626481Y522882D01*
X626571Y522838D01*
X626662Y522798D01*
X626755Y522762D01*
X626849Y522729D01*
X626945Y522700D01*
X627041Y522675D01*
X627138Y522654D01*
X627237Y522636D01*
X627335Y522623D01*
X627435Y522613D01*
X627534Y522607D01*
X627634Y522605D01*
X630174Y522605D01*
D15*
X754380Y431800D02*
X754380Y396240D01*
X774700Y396240D01*
X802640Y368300D01*
X802640Y292100D01*
X774700Y264160D01*
X754380Y264160D01*
X754380Y228600D01*
X718820Y228600D01*
X718820Y264160D01*
X670560Y264160D01*
X670560Y396240D02*
X718820Y396240D01*
X718820Y431800D01*
X754380Y431800D01*
D16*
X809429Y411910D02*
X809429Y409018D01*
X809429Y411910D02*
X809427Y412017D01*
X809421Y412124D01*
X809411Y412230D01*
X809397Y412336D01*
X809380Y412442D01*
X809358Y412546D01*
X809333Y412650D01*
X809303Y412753D01*
X809270Y412855D01*
X809234Y412955D01*
X809193Y413054D01*
X809149Y413151D01*
X809101Y413247D01*
X809050Y413341D01*
X808996Y413433D01*
X808938Y413523D01*
X808876Y413610D01*
X808812Y413696D01*
X808745Y413779D01*
X808674Y413859D01*
X808600Y413937D01*
X808524Y414012D01*
X808445Y414084D01*
X808364Y414153D01*
X808279Y414219D01*
X808193Y414282D01*
X808104Y414341D01*
X808013Y414397D01*
X807920Y414450D01*
X807826Y414500D01*
X807729Y414546D01*
X807631Y414588D01*
X807531Y414626D01*
X807430Y414661D01*
X807328Y414693D01*
X807224Y414720D01*
X807120Y414743D01*
X807015Y414763D01*
X806909Y414779D01*
X806803Y414791D01*
X806696Y414799D01*
X806589Y414803D01*
X806483Y414803D01*
X806376Y414799D01*
X806269Y414791D01*
X806163Y414779D01*
X806057Y414763D01*
X805952Y414743D01*
X805848Y414720D01*
X805744Y414693D01*
X805642Y414661D01*
X805541Y414626D01*
X805441Y414588D01*
X805343Y414546D01*
X805246Y414500D01*
X805152Y414450D01*
X805059Y414397D01*
X804968Y414341D01*
X804879Y414282D01*
X804793Y414219D01*
X804708Y414153D01*
X804627Y414084D01*
X804548Y414012D01*
X804472Y413937D01*
X804398Y413859D01*
X804327Y413779D01*
X804260Y413696D01*
X804196Y413610D01*
X804134Y413523D01*
X804076Y413433D01*
X804022Y413341D01*
X803971Y413247D01*
X803923Y413151D01*
X803879Y413054D01*
X803838Y412955D01*
X803802Y412855D01*
X803769Y412753D01*
X803739Y412650D01*
X803714Y412546D01*
X803692Y412442D01*
X803675Y412336D01*
X803661Y412230D01*
X803651Y412124D01*
X803645Y412017D01*
X803643Y411910D01*
X803643Y409018D01*
X814057Y409018D01*
X814057Y411910D01*
X814055Y412004D01*
X814049Y412099D01*
X814040Y412193D01*
X814026Y412286D01*
X814009Y412379D01*
X813988Y412471D01*
X813963Y412562D01*
X813935Y412652D01*
X813903Y412741D01*
X813867Y412828D01*
X813828Y412914D01*
X813785Y412998D01*
X813739Y413081D01*
X813690Y413161D01*
X813637Y413239D01*
X813581Y413316D01*
X813522Y413389D01*
X813461Y413461D01*
X813396Y413529D01*
X813328Y413596D01*
X813258Y413659D01*
X813186Y413719D01*
X813111Y413777D01*
X813033Y413831D01*
X812954Y413882D01*
X812873Y413930D01*
X812789Y413974D01*
X812704Y414015D01*
X812618Y414052D01*
X812530Y414086D01*
X812440Y414117D01*
X812350Y414143D01*
X812258Y414166D01*
X812165Y414185D01*
X812072Y414200D01*
X811979Y414212D01*
X811885Y414220D01*
X811790Y414224D01*
X811696Y414224D01*
X811601Y414220D01*
X811507Y414212D01*
X811414Y414200D01*
X811321Y414185D01*
X811228Y414166D01*
X811136Y414143D01*
X811046Y414117D01*
X810956Y414086D01*
X810868Y414052D01*
X810782Y414015D01*
X810697Y413974D01*
X810613Y413930D01*
X810532Y413882D01*
X810453Y413831D01*
X810375Y413777D01*
X810300Y413719D01*
X810228Y413659D01*
X810158Y413596D01*
X810090Y413529D01*
X810025Y413461D01*
X809964Y413389D01*
X809905Y413316D01*
X809849Y413239D01*
X809796Y413161D01*
X809747Y413081D01*
X809701Y412998D01*
X809658Y412914D01*
X809619Y412828D01*
X809583Y412741D01*
X809551Y412652D01*
X809523Y412562D01*
X809498Y412471D01*
X809477Y412379D01*
X809460Y412286D01*
X809446Y412193D01*
X809437Y412099D01*
X809431Y412004D01*
X809429Y411910D01*
X811743Y419791D02*
X814057Y422684D01*
X803643Y422684D01*
X803643Y419791D02*
X803643Y425577D01*
D17*
X672661Y612902D02*
X672663Y613015D01*
X672669Y613129D01*
X672679Y613242D01*
X672693Y613354D01*
X672711Y613467D01*
X672732Y613578D01*
X672758Y613688D01*
X672788Y613798D01*
X672821Y613906D01*
X672858Y614014D01*
X672899Y614120D01*
X672944Y614224D01*
X672992Y614327D01*
X673044Y614428D01*
X673099Y614527D01*
X673158Y614624D01*
X673220Y614719D01*
X673285Y614811D01*
X673354Y614902D01*
X673426Y614990D01*
X673500Y615075D01*
X673578Y615158D01*
X673659Y615238D01*
X673742Y615315D01*
X673828Y615389D01*
X673917Y615460D01*
X674007Y615528D01*
X674101Y615592D01*
X674196Y615653D01*
X674294Y615711D01*
X674393Y615766D01*
X674495Y615817D01*
X674598Y615864D01*
X674703Y615908D01*
X674809Y615948D01*
X674917Y615984D01*
X675025Y616016D01*
X675135Y616045D01*
X675246Y616069D01*
X675357Y616090D01*
X675470Y616107D01*
X675582Y616120D01*
X675696Y616129D01*
X675809Y616134D01*
X675922Y616135D01*
X676036Y616132D01*
X676149Y616125D01*
X676262Y616114D01*
X676375Y616099D01*
X676486Y616080D01*
X676598Y616058D01*
X676708Y616031D01*
X676817Y616000D01*
X676925Y615966D01*
X677032Y615928D01*
X677138Y615886D01*
X677242Y615841D01*
X677344Y615792D01*
X677445Y615739D01*
X677543Y615683D01*
X677640Y615623D01*
X677734Y615560D01*
X677826Y615494D01*
X677916Y615425D01*
X678003Y615352D01*
X678088Y615277D01*
X678170Y615198D01*
X678249Y615117D01*
X678325Y615033D01*
X678399Y614946D01*
X678469Y614857D01*
X678536Y614765D01*
X678600Y614672D01*
X678660Y614575D01*
X678717Y614477D01*
X678771Y614377D01*
X678821Y614275D01*
X678867Y614172D01*
X678910Y614067D01*
X678949Y613960D01*
X678984Y613852D01*
X679016Y613743D01*
X679043Y613633D01*
X679067Y613522D01*
X679087Y613411D01*
X679103Y613298D01*
X679115Y613185D01*
X679123Y613072D01*
X679127Y612959D01*
X679127Y612845D01*
X679123Y612732D01*
X679115Y612619D01*
X679103Y612506D01*
X679087Y612393D01*
X679067Y612282D01*
X679043Y612171D01*
X679016Y612061D01*
X678984Y611952D01*
X678949Y611844D01*
X678910Y611737D01*
X678867Y611632D01*
X678821Y611529D01*
X678771Y611427D01*
X678717Y611327D01*
X678660Y611229D01*
X678600Y611132D01*
X678536Y611039D01*
X678469Y610947D01*
X678399Y610858D01*
X678325Y610771D01*
X678249Y610687D01*
X678170Y610606D01*
X678088Y610527D01*
X678003Y610452D01*
X677916Y610379D01*
X677826Y610310D01*
X677734Y610244D01*
X677640Y610181D01*
X677543Y610121D01*
X677445Y610065D01*
X677344Y610012D01*
X677242Y609963D01*
X677138Y609918D01*
X677032Y609876D01*
X676925Y609838D01*
X676817Y609804D01*
X676708Y609773D01*
X676598Y609746D01*
X676486Y609724D01*
X676375Y609705D01*
X676262Y609690D01*
X676149Y609679D01*
X676036Y609672D01*
X675922Y609669D01*
X675809Y609670D01*
X675696Y609675D01*
X675582Y609684D01*
X675470Y609697D01*
X675357Y609714D01*
X675246Y609735D01*
X675135Y609759D01*
X675025Y609788D01*
X674917Y609820D01*
X674809Y609856D01*
X674703Y609896D01*
X674598Y609940D01*
X674495Y609987D01*
X674393Y610038D01*
X674294Y610093D01*
X674196Y610151D01*
X674101Y610212D01*
X674007Y610276D01*
X673917Y610344D01*
X673828Y610415D01*
X673742Y610489D01*
X673659Y610566D01*
X673578Y610646D01*
X673500Y610729D01*
X673426Y610814D01*
X673354Y610902D01*
X673285Y610993D01*
X673220Y611085D01*
X673158Y611180D01*
X673099Y611277D01*
X673044Y611376D01*
X672992Y611477D01*
X672944Y611580D01*
X672899Y611684D01*
X672858Y611790D01*
X672821Y611898D01*
X672788Y612006D01*
X672758Y612116D01*
X672732Y612226D01*
X672711Y612337D01*
X672693Y612450D01*
X672679Y612562D01*
X672669Y612675D01*
X672663Y612789D01*
X672661Y612902D01*
D15*
X695640Y542120D02*
X695640Y538120D01*
X655640Y538120D01*
X655640Y542120D01*
X655640Y561120D02*
X655640Y597120D01*
X695640Y597120D02*
X695640Y561120D01*
X695640Y616120D02*
X695640Y620120D01*
X655640Y620120D01*
X655640Y616120D01*
D10*
X708427Y613883D02*
X711546Y611682D01*
X708427Y613883D02*
X711546Y616085D01*
X708427Y613883D02*
X704942Y613883D01*
X710078Y619364D02*
X711546Y621199D01*
X704942Y621199D01*
X704942Y623033D02*
X704942Y619364D01*
M02*
