G04 EAGLE Gerber RS-274X export*
G75*
%MOMM*%
%FSLAX34Y34*%
%LPD*%
%INSoldermask Bottom*%
%IPPOS*%
%AMOC8*
5,1,8,0,0,1.08239X$1,22.5*%
G01*
%ADD10C,0.502400*%
%ADD11C,1.272400*%
%ADD12C,1.574800*%
%ADD13R,1.422400X1.295400*%
%ADD14R,1.183641X1.102359*%
%ADD15C,2.112400*%
%ADD16R,1.676400X1.676400*%
%ADD17P,1.814519X8X292.500000*%
%ADD18R,1.828800X1.828800*%
%ADD19C,1.828800*%
%ADD20C,4.168400*%
%ADD21C,1.290319*%
%ADD22C,12.564231*%
%ADD23R,3.352400X3.352400*%
%ADD24C,6.502400*%
%ADD25R,2.052400X1.452400*%
%ADD26C,4.597400*%


D10*
X-215900Y749300D03*
D11*
X127000Y56400D03*
X127000Y121400D03*
D12*
X614680Y709168D02*
X614680Y723392D01*
X589280Y723392D02*
X589280Y709168D01*
X563880Y709168D02*
X563880Y723392D01*
D13*
X563880Y466090D03*
X563880Y448310D03*
X563880Y405130D03*
X563880Y422910D03*
D14*
X444500Y80899D03*
X444500Y96901D03*
X635000Y80899D03*
X635000Y96901D03*
X825500Y80899D03*
X825500Y96901D03*
D15*
X293100Y63900D03*
X293100Y113900D03*
X418100Y113900D03*
X418100Y63900D03*
X483600Y63900D03*
X483600Y113900D03*
X608600Y113900D03*
X608600Y63900D03*
X674100Y63900D03*
X674100Y113900D03*
X799100Y113900D03*
X799100Y63900D03*
D16*
X485400Y741000D03*
D17*
X460000Y741000D03*
X485400Y715600D03*
X460000Y715600D03*
X485400Y690200D03*
X460000Y690200D03*
X485400Y664800D03*
X460000Y664800D03*
X485400Y639400D03*
X460000Y639400D03*
X485400Y614000D03*
X460000Y614000D03*
X485400Y588600D03*
X460000Y588600D03*
X485400Y563200D03*
X460000Y563200D03*
X485400Y537800D03*
X460000Y537800D03*
X485400Y512400D03*
X460000Y512400D03*
X485400Y487000D03*
X460000Y487000D03*
X485400Y461600D03*
X460000Y461600D03*
X485400Y436200D03*
X460000Y436200D03*
X485400Y410800D03*
X460000Y410800D03*
X485400Y385400D03*
X460000Y385400D03*
X485400Y360000D03*
X460000Y360000D03*
X485400Y334600D03*
X460000Y334600D03*
X485400Y309200D03*
X460000Y309200D03*
D16*
X231400Y741000D03*
D17*
X206000Y741000D03*
X231400Y715600D03*
X206000Y715600D03*
X231400Y690200D03*
X206000Y690200D03*
X231400Y664800D03*
X206000Y664800D03*
X231400Y639400D03*
X206000Y639400D03*
X231400Y614000D03*
X206000Y614000D03*
X231400Y588600D03*
X206000Y588600D03*
X231400Y563200D03*
X206000Y563200D03*
X231400Y537800D03*
X206000Y537800D03*
X231400Y512400D03*
X206000Y512400D03*
X231400Y487000D03*
X206000Y487000D03*
X231400Y461600D03*
X206000Y461600D03*
X231400Y436200D03*
X206000Y436200D03*
X231400Y410800D03*
X206000Y410800D03*
X231400Y385400D03*
X206000Y385400D03*
X231400Y360000D03*
X206000Y360000D03*
X231400Y334600D03*
X206000Y334600D03*
X231400Y309200D03*
X206000Y309200D03*
D18*
X828040Y711200D03*
D19*
X828040Y685800D03*
X828040Y660400D03*
X828040Y635000D03*
X828040Y609600D03*
X828040Y584200D03*
X828040Y558800D03*
X828040Y533400D03*
X828040Y508000D03*
X828040Y482600D03*
X828040Y457200D03*
X828040Y431800D03*
X828040Y406400D03*
X828040Y381000D03*
X828040Y355600D03*
X828040Y330200D03*
X828040Y304800D03*
X828040Y279400D03*
X828040Y254000D03*
X828040Y228600D03*
D18*
X58040Y711200D03*
D19*
X58040Y685800D03*
X58040Y660400D03*
X58040Y635000D03*
X58040Y609600D03*
X58040Y584200D03*
X58040Y558800D03*
X58040Y533400D03*
X58040Y508000D03*
X58040Y482600D03*
X58040Y457200D03*
X58040Y431800D03*
X58040Y406400D03*
X58040Y381000D03*
X58040Y355600D03*
X58040Y330200D03*
X58040Y304800D03*
X58040Y279400D03*
X58040Y254000D03*
X58040Y228600D03*
D20*
X829740Y759900D03*
X829740Y179900D03*
X59740Y759900D03*
X59740Y179900D03*
D21*
X685190Y500380D02*
X696570Y500380D01*
X696570Y474980D02*
X685190Y474980D01*
X620370Y474980D02*
X608990Y474980D01*
X608990Y500380D02*
X620370Y500380D01*
X685190Y449580D02*
X696570Y449580D01*
X696570Y424180D02*
X685190Y424180D01*
X620370Y449580D02*
X608990Y449580D01*
X608990Y424180D02*
X620370Y424180D01*
D22*
X736600Y330200D03*
D23*
X736600Y412454D03*
X736600Y247946D03*
D24*
X736600Y330200D03*
D25*
X659640Y551620D03*
X659640Y606620D03*
X691640Y606620D03*
X691640Y551620D03*
D26*
X25400Y800100D03*
X863600Y800100D03*
X25400Y25400D03*
X863600Y25400D03*
M02*
