G04 EAGLE Gerber RS-274X export*
G75*
%MOMM*%
%FSLAX34Y34*%
%LPD*%
%INSoldermask Top*%
%IPPOS*%
%AMOC8*
5,1,8,0,0,1.08239X$1,22.5*%
G01*
%ADD10C,0.502400*%
%ADD11C,1.272400*%
%ADD12C,1.574800*%
%ADD13C,2.112400*%
%ADD14R,1.676400X1.676400*%
%ADD15P,1.814519X8X292.500000*%
%ADD16R,1.828800X1.828800*%
%ADD17C,1.828800*%
%ADD18C,4.168400*%
%ADD19C,1.290319*%
%ADD20C,0.609600*%
%ADD21C,1.168400*%
%ADD22C,4.597400*%


D10*
X-215900Y749300D03*
D11*
X127000Y56400D03*
X127000Y121400D03*
D12*
X614680Y709168D02*
X614680Y723392D01*
X589280Y723392D02*
X589280Y709168D01*
X563880Y709168D02*
X563880Y723392D01*
D13*
X293100Y63900D03*
X293100Y113900D03*
X418100Y113900D03*
X418100Y63900D03*
X483600Y63900D03*
X483600Y113900D03*
X608600Y113900D03*
X608600Y63900D03*
X674100Y63900D03*
X674100Y113900D03*
X799100Y113900D03*
X799100Y63900D03*
D14*
X485400Y741000D03*
D15*
X460000Y741000D03*
X485400Y715600D03*
X460000Y715600D03*
X485400Y690200D03*
X460000Y690200D03*
X485400Y664800D03*
X460000Y664800D03*
X485400Y639400D03*
X460000Y639400D03*
X485400Y614000D03*
X460000Y614000D03*
X485400Y588600D03*
X460000Y588600D03*
X485400Y563200D03*
X460000Y563200D03*
X485400Y537800D03*
X460000Y537800D03*
X485400Y512400D03*
X460000Y512400D03*
X485400Y487000D03*
X460000Y487000D03*
X485400Y461600D03*
X460000Y461600D03*
X485400Y436200D03*
X460000Y436200D03*
X485400Y410800D03*
X460000Y410800D03*
X485400Y385400D03*
X460000Y385400D03*
X485400Y360000D03*
X460000Y360000D03*
X485400Y334600D03*
X460000Y334600D03*
X485400Y309200D03*
X460000Y309200D03*
D14*
X231400Y741000D03*
D15*
X206000Y741000D03*
X231400Y715600D03*
X206000Y715600D03*
X231400Y690200D03*
X206000Y690200D03*
X231400Y664800D03*
X206000Y664800D03*
X231400Y639400D03*
X206000Y639400D03*
X231400Y614000D03*
X206000Y614000D03*
X231400Y588600D03*
X206000Y588600D03*
X231400Y563200D03*
X206000Y563200D03*
X231400Y537800D03*
X206000Y537800D03*
X231400Y512400D03*
X206000Y512400D03*
X231400Y487000D03*
X206000Y487000D03*
X231400Y461600D03*
X206000Y461600D03*
X231400Y436200D03*
X206000Y436200D03*
X231400Y410800D03*
X206000Y410800D03*
X231400Y385400D03*
X206000Y385400D03*
X231400Y360000D03*
X206000Y360000D03*
X231400Y334600D03*
X206000Y334600D03*
X231400Y309200D03*
X206000Y309200D03*
D16*
X828040Y711200D03*
D17*
X828040Y685800D03*
X828040Y660400D03*
X828040Y635000D03*
X828040Y609600D03*
X828040Y584200D03*
X828040Y558800D03*
X828040Y533400D03*
X828040Y508000D03*
X828040Y482600D03*
X828040Y457200D03*
X828040Y431800D03*
X828040Y406400D03*
X828040Y381000D03*
X828040Y355600D03*
X828040Y330200D03*
X828040Y304800D03*
X828040Y279400D03*
X828040Y254000D03*
X828040Y228600D03*
D16*
X58040Y711200D03*
D17*
X58040Y685800D03*
X58040Y660400D03*
X58040Y635000D03*
X58040Y609600D03*
X58040Y584200D03*
X58040Y558800D03*
X58040Y533400D03*
X58040Y508000D03*
X58040Y482600D03*
X58040Y457200D03*
X58040Y431800D03*
X58040Y406400D03*
X58040Y381000D03*
X58040Y355600D03*
X58040Y330200D03*
X58040Y304800D03*
X58040Y279400D03*
X58040Y254000D03*
X58040Y228600D03*
D18*
X829740Y759900D03*
X829740Y179900D03*
X59740Y759900D03*
X59740Y179900D03*
D19*
X685190Y500380D02*
X696570Y500380D01*
X696570Y474980D02*
X685190Y474980D01*
X620370Y474980D02*
X608990Y474980D01*
X608990Y500380D02*
X620370Y500380D01*
X685190Y449580D02*
X696570Y449580D01*
X696570Y424180D02*
X685190Y424180D01*
X620370Y449580D02*
X608990Y449580D01*
X608990Y424180D02*
X620370Y424180D01*
D20*
X58420Y802640D02*
X58422Y802827D01*
X58429Y803014D01*
X58441Y803201D01*
X58457Y803387D01*
X58477Y803573D01*
X58502Y803758D01*
X58532Y803943D01*
X58566Y804127D01*
X58605Y804310D01*
X58648Y804492D01*
X58696Y804672D01*
X58748Y804852D01*
X58805Y805030D01*
X58865Y805207D01*
X58931Y805382D01*
X59000Y805556D01*
X59074Y805728D01*
X59152Y805898D01*
X59234Y806066D01*
X59320Y806232D01*
X59410Y806396D01*
X59504Y806557D01*
X59602Y806717D01*
X59704Y806873D01*
X59810Y807028D01*
X59920Y807179D01*
X60033Y807328D01*
X60150Y807474D01*
X60270Y807617D01*
X60394Y807757D01*
X60521Y807894D01*
X60652Y808028D01*
X60786Y808159D01*
X60923Y808286D01*
X61063Y808410D01*
X61206Y808530D01*
X61352Y808647D01*
X61501Y808760D01*
X61652Y808870D01*
X61807Y808976D01*
X61963Y809078D01*
X62123Y809176D01*
X62284Y809270D01*
X62448Y809360D01*
X62614Y809446D01*
X62782Y809528D01*
X62952Y809606D01*
X63124Y809680D01*
X63298Y809749D01*
X63473Y809815D01*
X63650Y809875D01*
X63828Y809932D01*
X64008Y809984D01*
X64188Y810032D01*
X64370Y810075D01*
X64553Y810114D01*
X64737Y810148D01*
X64922Y810178D01*
X65107Y810203D01*
X65293Y810223D01*
X65479Y810239D01*
X65666Y810251D01*
X65853Y810258D01*
X66040Y810260D01*
X66227Y810258D01*
X66414Y810251D01*
X66601Y810239D01*
X66787Y810223D01*
X66973Y810203D01*
X67158Y810178D01*
X67343Y810148D01*
X67527Y810114D01*
X67710Y810075D01*
X67892Y810032D01*
X68072Y809984D01*
X68252Y809932D01*
X68430Y809875D01*
X68607Y809815D01*
X68782Y809749D01*
X68956Y809680D01*
X69128Y809606D01*
X69298Y809528D01*
X69466Y809446D01*
X69632Y809360D01*
X69796Y809270D01*
X69957Y809176D01*
X70117Y809078D01*
X70273Y808976D01*
X70428Y808870D01*
X70579Y808760D01*
X70728Y808647D01*
X70874Y808530D01*
X71017Y808410D01*
X71157Y808286D01*
X71294Y808159D01*
X71428Y808028D01*
X71559Y807894D01*
X71686Y807757D01*
X71810Y807617D01*
X71930Y807474D01*
X72047Y807328D01*
X72160Y807179D01*
X72270Y807028D01*
X72376Y806873D01*
X72478Y806717D01*
X72576Y806557D01*
X72670Y806396D01*
X72760Y806232D01*
X72846Y806066D01*
X72928Y805898D01*
X73006Y805728D01*
X73080Y805556D01*
X73149Y805382D01*
X73215Y805207D01*
X73275Y805030D01*
X73332Y804852D01*
X73384Y804672D01*
X73432Y804492D01*
X73475Y804310D01*
X73514Y804127D01*
X73548Y803943D01*
X73578Y803758D01*
X73603Y803573D01*
X73623Y803387D01*
X73639Y803201D01*
X73651Y803014D01*
X73658Y802827D01*
X73660Y802640D01*
X73658Y802453D01*
X73651Y802266D01*
X73639Y802079D01*
X73623Y801893D01*
X73603Y801707D01*
X73578Y801522D01*
X73548Y801337D01*
X73514Y801153D01*
X73475Y800970D01*
X73432Y800788D01*
X73384Y800608D01*
X73332Y800428D01*
X73275Y800250D01*
X73215Y800073D01*
X73149Y799898D01*
X73080Y799724D01*
X73006Y799552D01*
X72928Y799382D01*
X72846Y799214D01*
X72760Y799048D01*
X72670Y798884D01*
X72576Y798723D01*
X72478Y798563D01*
X72376Y798407D01*
X72270Y798252D01*
X72160Y798101D01*
X72047Y797952D01*
X71930Y797806D01*
X71810Y797663D01*
X71686Y797523D01*
X71559Y797386D01*
X71428Y797252D01*
X71294Y797121D01*
X71157Y796994D01*
X71017Y796870D01*
X70874Y796750D01*
X70728Y796633D01*
X70579Y796520D01*
X70428Y796410D01*
X70273Y796304D01*
X70117Y796202D01*
X69957Y796104D01*
X69796Y796010D01*
X69632Y795920D01*
X69466Y795834D01*
X69298Y795752D01*
X69128Y795674D01*
X68956Y795600D01*
X68782Y795531D01*
X68607Y795465D01*
X68430Y795405D01*
X68252Y795348D01*
X68072Y795296D01*
X67892Y795248D01*
X67710Y795205D01*
X67527Y795166D01*
X67343Y795132D01*
X67158Y795102D01*
X66973Y795077D01*
X66787Y795057D01*
X66601Y795041D01*
X66414Y795029D01*
X66227Y795022D01*
X66040Y795020D01*
X65853Y795022D01*
X65666Y795029D01*
X65479Y795041D01*
X65293Y795057D01*
X65107Y795077D01*
X64922Y795102D01*
X64737Y795132D01*
X64553Y795166D01*
X64370Y795205D01*
X64188Y795248D01*
X64008Y795296D01*
X63828Y795348D01*
X63650Y795405D01*
X63473Y795465D01*
X63298Y795531D01*
X63124Y795600D01*
X62952Y795674D01*
X62782Y795752D01*
X62614Y795834D01*
X62448Y795920D01*
X62284Y796010D01*
X62123Y796104D01*
X61963Y796202D01*
X61807Y796304D01*
X61652Y796410D01*
X61501Y796520D01*
X61352Y796633D01*
X61206Y796750D01*
X61063Y796870D01*
X60923Y796994D01*
X60786Y797121D01*
X60652Y797252D01*
X60521Y797386D01*
X60394Y797523D01*
X60270Y797663D01*
X60150Y797806D01*
X60033Y797952D01*
X59920Y798101D01*
X59810Y798252D01*
X59704Y798407D01*
X59602Y798563D01*
X59504Y798723D01*
X59410Y798884D01*
X59320Y799048D01*
X59234Y799214D01*
X59152Y799382D01*
X59074Y799552D01*
X59000Y799724D01*
X58931Y799898D01*
X58865Y800073D01*
X58805Y800250D01*
X58748Y800428D01*
X58696Y800608D01*
X58648Y800788D01*
X58605Y800970D01*
X58566Y801153D01*
X58532Y801337D01*
X58502Y801522D01*
X58477Y801707D01*
X58457Y801893D01*
X58441Y802079D01*
X58429Y802266D01*
X58422Y802453D01*
X58420Y802640D01*
D21*
X66040Y802640D03*
D20*
X815340Y802640D02*
X815342Y802827D01*
X815349Y803014D01*
X815361Y803201D01*
X815377Y803387D01*
X815397Y803573D01*
X815422Y803758D01*
X815452Y803943D01*
X815486Y804127D01*
X815525Y804310D01*
X815568Y804492D01*
X815616Y804672D01*
X815668Y804852D01*
X815725Y805030D01*
X815785Y805207D01*
X815851Y805382D01*
X815920Y805556D01*
X815994Y805728D01*
X816072Y805898D01*
X816154Y806066D01*
X816240Y806232D01*
X816330Y806396D01*
X816424Y806557D01*
X816522Y806717D01*
X816624Y806873D01*
X816730Y807028D01*
X816840Y807179D01*
X816953Y807328D01*
X817070Y807474D01*
X817190Y807617D01*
X817314Y807757D01*
X817441Y807894D01*
X817572Y808028D01*
X817706Y808159D01*
X817843Y808286D01*
X817983Y808410D01*
X818126Y808530D01*
X818272Y808647D01*
X818421Y808760D01*
X818572Y808870D01*
X818727Y808976D01*
X818883Y809078D01*
X819043Y809176D01*
X819204Y809270D01*
X819368Y809360D01*
X819534Y809446D01*
X819702Y809528D01*
X819872Y809606D01*
X820044Y809680D01*
X820218Y809749D01*
X820393Y809815D01*
X820570Y809875D01*
X820748Y809932D01*
X820928Y809984D01*
X821108Y810032D01*
X821290Y810075D01*
X821473Y810114D01*
X821657Y810148D01*
X821842Y810178D01*
X822027Y810203D01*
X822213Y810223D01*
X822399Y810239D01*
X822586Y810251D01*
X822773Y810258D01*
X822960Y810260D01*
X823147Y810258D01*
X823334Y810251D01*
X823521Y810239D01*
X823707Y810223D01*
X823893Y810203D01*
X824078Y810178D01*
X824263Y810148D01*
X824447Y810114D01*
X824630Y810075D01*
X824812Y810032D01*
X824992Y809984D01*
X825172Y809932D01*
X825350Y809875D01*
X825527Y809815D01*
X825702Y809749D01*
X825876Y809680D01*
X826048Y809606D01*
X826218Y809528D01*
X826386Y809446D01*
X826552Y809360D01*
X826716Y809270D01*
X826877Y809176D01*
X827037Y809078D01*
X827193Y808976D01*
X827348Y808870D01*
X827499Y808760D01*
X827648Y808647D01*
X827794Y808530D01*
X827937Y808410D01*
X828077Y808286D01*
X828214Y808159D01*
X828348Y808028D01*
X828479Y807894D01*
X828606Y807757D01*
X828730Y807617D01*
X828850Y807474D01*
X828967Y807328D01*
X829080Y807179D01*
X829190Y807028D01*
X829296Y806873D01*
X829398Y806717D01*
X829496Y806557D01*
X829590Y806396D01*
X829680Y806232D01*
X829766Y806066D01*
X829848Y805898D01*
X829926Y805728D01*
X830000Y805556D01*
X830069Y805382D01*
X830135Y805207D01*
X830195Y805030D01*
X830252Y804852D01*
X830304Y804672D01*
X830352Y804492D01*
X830395Y804310D01*
X830434Y804127D01*
X830468Y803943D01*
X830498Y803758D01*
X830523Y803573D01*
X830543Y803387D01*
X830559Y803201D01*
X830571Y803014D01*
X830578Y802827D01*
X830580Y802640D01*
X830578Y802453D01*
X830571Y802266D01*
X830559Y802079D01*
X830543Y801893D01*
X830523Y801707D01*
X830498Y801522D01*
X830468Y801337D01*
X830434Y801153D01*
X830395Y800970D01*
X830352Y800788D01*
X830304Y800608D01*
X830252Y800428D01*
X830195Y800250D01*
X830135Y800073D01*
X830069Y799898D01*
X830000Y799724D01*
X829926Y799552D01*
X829848Y799382D01*
X829766Y799214D01*
X829680Y799048D01*
X829590Y798884D01*
X829496Y798723D01*
X829398Y798563D01*
X829296Y798407D01*
X829190Y798252D01*
X829080Y798101D01*
X828967Y797952D01*
X828850Y797806D01*
X828730Y797663D01*
X828606Y797523D01*
X828479Y797386D01*
X828348Y797252D01*
X828214Y797121D01*
X828077Y796994D01*
X827937Y796870D01*
X827794Y796750D01*
X827648Y796633D01*
X827499Y796520D01*
X827348Y796410D01*
X827193Y796304D01*
X827037Y796202D01*
X826877Y796104D01*
X826716Y796010D01*
X826552Y795920D01*
X826386Y795834D01*
X826218Y795752D01*
X826048Y795674D01*
X825876Y795600D01*
X825702Y795531D01*
X825527Y795465D01*
X825350Y795405D01*
X825172Y795348D01*
X824992Y795296D01*
X824812Y795248D01*
X824630Y795205D01*
X824447Y795166D01*
X824263Y795132D01*
X824078Y795102D01*
X823893Y795077D01*
X823707Y795057D01*
X823521Y795041D01*
X823334Y795029D01*
X823147Y795022D01*
X822960Y795020D01*
X822773Y795022D01*
X822586Y795029D01*
X822399Y795041D01*
X822213Y795057D01*
X822027Y795077D01*
X821842Y795102D01*
X821657Y795132D01*
X821473Y795166D01*
X821290Y795205D01*
X821108Y795248D01*
X820928Y795296D01*
X820748Y795348D01*
X820570Y795405D01*
X820393Y795465D01*
X820218Y795531D01*
X820044Y795600D01*
X819872Y795674D01*
X819702Y795752D01*
X819534Y795834D01*
X819368Y795920D01*
X819204Y796010D01*
X819043Y796104D01*
X818883Y796202D01*
X818727Y796304D01*
X818572Y796410D01*
X818421Y796520D01*
X818272Y796633D01*
X818126Y796750D01*
X817983Y796870D01*
X817843Y796994D01*
X817706Y797121D01*
X817572Y797252D01*
X817441Y797386D01*
X817314Y797523D01*
X817190Y797663D01*
X817070Y797806D01*
X816953Y797952D01*
X816840Y798101D01*
X816730Y798252D01*
X816624Y798407D01*
X816522Y798563D01*
X816424Y798723D01*
X816330Y798884D01*
X816240Y799048D01*
X816154Y799214D01*
X816072Y799382D01*
X815994Y799552D01*
X815920Y799724D01*
X815851Y799898D01*
X815785Y800073D01*
X815725Y800250D01*
X815668Y800428D01*
X815616Y800608D01*
X815568Y800788D01*
X815525Y800970D01*
X815486Y801153D01*
X815452Y801337D01*
X815422Y801522D01*
X815397Y801707D01*
X815377Y801893D01*
X815361Y802079D01*
X815349Y802266D01*
X815342Y802453D01*
X815340Y802640D01*
D21*
X822960Y802640D03*
D20*
X60960Y22860D02*
X60962Y23047D01*
X60969Y23234D01*
X60981Y23421D01*
X60997Y23607D01*
X61017Y23793D01*
X61042Y23978D01*
X61072Y24163D01*
X61106Y24347D01*
X61145Y24530D01*
X61188Y24712D01*
X61236Y24892D01*
X61288Y25072D01*
X61345Y25250D01*
X61405Y25427D01*
X61471Y25602D01*
X61540Y25776D01*
X61614Y25948D01*
X61692Y26118D01*
X61774Y26286D01*
X61860Y26452D01*
X61950Y26616D01*
X62044Y26777D01*
X62142Y26937D01*
X62244Y27093D01*
X62350Y27248D01*
X62460Y27399D01*
X62573Y27548D01*
X62690Y27694D01*
X62810Y27837D01*
X62934Y27977D01*
X63061Y28114D01*
X63192Y28248D01*
X63326Y28379D01*
X63463Y28506D01*
X63603Y28630D01*
X63746Y28750D01*
X63892Y28867D01*
X64041Y28980D01*
X64192Y29090D01*
X64347Y29196D01*
X64503Y29298D01*
X64663Y29396D01*
X64824Y29490D01*
X64988Y29580D01*
X65154Y29666D01*
X65322Y29748D01*
X65492Y29826D01*
X65664Y29900D01*
X65838Y29969D01*
X66013Y30035D01*
X66190Y30095D01*
X66368Y30152D01*
X66548Y30204D01*
X66728Y30252D01*
X66910Y30295D01*
X67093Y30334D01*
X67277Y30368D01*
X67462Y30398D01*
X67647Y30423D01*
X67833Y30443D01*
X68019Y30459D01*
X68206Y30471D01*
X68393Y30478D01*
X68580Y30480D01*
X68767Y30478D01*
X68954Y30471D01*
X69141Y30459D01*
X69327Y30443D01*
X69513Y30423D01*
X69698Y30398D01*
X69883Y30368D01*
X70067Y30334D01*
X70250Y30295D01*
X70432Y30252D01*
X70612Y30204D01*
X70792Y30152D01*
X70970Y30095D01*
X71147Y30035D01*
X71322Y29969D01*
X71496Y29900D01*
X71668Y29826D01*
X71838Y29748D01*
X72006Y29666D01*
X72172Y29580D01*
X72336Y29490D01*
X72497Y29396D01*
X72657Y29298D01*
X72813Y29196D01*
X72968Y29090D01*
X73119Y28980D01*
X73268Y28867D01*
X73414Y28750D01*
X73557Y28630D01*
X73697Y28506D01*
X73834Y28379D01*
X73968Y28248D01*
X74099Y28114D01*
X74226Y27977D01*
X74350Y27837D01*
X74470Y27694D01*
X74587Y27548D01*
X74700Y27399D01*
X74810Y27248D01*
X74916Y27093D01*
X75018Y26937D01*
X75116Y26777D01*
X75210Y26616D01*
X75300Y26452D01*
X75386Y26286D01*
X75468Y26118D01*
X75546Y25948D01*
X75620Y25776D01*
X75689Y25602D01*
X75755Y25427D01*
X75815Y25250D01*
X75872Y25072D01*
X75924Y24892D01*
X75972Y24712D01*
X76015Y24530D01*
X76054Y24347D01*
X76088Y24163D01*
X76118Y23978D01*
X76143Y23793D01*
X76163Y23607D01*
X76179Y23421D01*
X76191Y23234D01*
X76198Y23047D01*
X76200Y22860D01*
X76198Y22673D01*
X76191Y22486D01*
X76179Y22299D01*
X76163Y22113D01*
X76143Y21927D01*
X76118Y21742D01*
X76088Y21557D01*
X76054Y21373D01*
X76015Y21190D01*
X75972Y21008D01*
X75924Y20828D01*
X75872Y20648D01*
X75815Y20470D01*
X75755Y20293D01*
X75689Y20118D01*
X75620Y19944D01*
X75546Y19772D01*
X75468Y19602D01*
X75386Y19434D01*
X75300Y19268D01*
X75210Y19104D01*
X75116Y18943D01*
X75018Y18783D01*
X74916Y18627D01*
X74810Y18472D01*
X74700Y18321D01*
X74587Y18172D01*
X74470Y18026D01*
X74350Y17883D01*
X74226Y17743D01*
X74099Y17606D01*
X73968Y17472D01*
X73834Y17341D01*
X73697Y17214D01*
X73557Y17090D01*
X73414Y16970D01*
X73268Y16853D01*
X73119Y16740D01*
X72968Y16630D01*
X72813Y16524D01*
X72657Y16422D01*
X72497Y16324D01*
X72336Y16230D01*
X72172Y16140D01*
X72006Y16054D01*
X71838Y15972D01*
X71668Y15894D01*
X71496Y15820D01*
X71322Y15751D01*
X71147Y15685D01*
X70970Y15625D01*
X70792Y15568D01*
X70612Y15516D01*
X70432Y15468D01*
X70250Y15425D01*
X70067Y15386D01*
X69883Y15352D01*
X69698Y15322D01*
X69513Y15297D01*
X69327Y15277D01*
X69141Y15261D01*
X68954Y15249D01*
X68767Y15242D01*
X68580Y15240D01*
X68393Y15242D01*
X68206Y15249D01*
X68019Y15261D01*
X67833Y15277D01*
X67647Y15297D01*
X67462Y15322D01*
X67277Y15352D01*
X67093Y15386D01*
X66910Y15425D01*
X66728Y15468D01*
X66548Y15516D01*
X66368Y15568D01*
X66190Y15625D01*
X66013Y15685D01*
X65838Y15751D01*
X65664Y15820D01*
X65492Y15894D01*
X65322Y15972D01*
X65154Y16054D01*
X64988Y16140D01*
X64824Y16230D01*
X64663Y16324D01*
X64503Y16422D01*
X64347Y16524D01*
X64192Y16630D01*
X64041Y16740D01*
X63892Y16853D01*
X63746Y16970D01*
X63603Y17090D01*
X63463Y17214D01*
X63326Y17341D01*
X63192Y17472D01*
X63061Y17606D01*
X62934Y17743D01*
X62810Y17883D01*
X62690Y18026D01*
X62573Y18172D01*
X62460Y18321D01*
X62350Y18472D01*
X62244Y18627D01*
X62142Y18783D01*
X62044Y18943D01*
X61950Y19104D01*
X61860Y19268D01*
X61774Y19434D01*
X61692Y19602D01*
X61614Y19772D01*
X61540Y19944D01*
X61471Y20118D01*
X61405Y20293D01*
X61345Y20470D01*
X61288Y20648D01*
X61236Y20828D01*
X61188Y21008D01*
X61145Y21190D01*
X61106Y21373D01*
X61072Y21557D01*
X61042Y21742D01*
X61017Y21927D01*
X60997Y22113D01*
X60981Y22299D01*
X60969Y22486D01*
X60962Y22673D01*
X60960Y22860D01*
D21*
X68580Y22860D03*
D22*
X25400Y800100D03*
X863600Y800100D03*
X25400Y25400D03*
X863600Y25400D03*
M02*
